<svg width="12" height="12" viewBox="0 0 12 12" fill="none" xmlns="http://www.w3.org/2000/svg">
<path d="M5.86992 0.787177C5.78238 0.829713 4.4956 2.10943 4.44824 2.19696C4.34892 2.38382 4.46485 2.63925 4.6682 2.67954C4.83138 2.71029 4.8811 2.67954 5.2832 2.27979L5.66635 1.90136L5.67342 2.54947C5.68049 3.129 5.6852 3.207 5.72313 3.26379C5.85792 3.47197 6.16542 3.47197 6.30031 3.26379C6.33813 3.207 6.34285 3.129 6.35003 2.54947L6.3571 1.899L6.72846 2.27036C7.16603 2.70557 7.23706 2.7435 7.43335 2.65114C7.5871 2.57786 7.65803 2.35307 7.57531 2.19696C7.52335 2.1 6.21053 0.803677 6.13478 0.775284C6.04253 0.73982 5.95263 0.742177 5.86992 0.787177Z" fill="#565656"/>
<path d="M5.63318 4.04823C4.85971 4.21859 4.23046 4.84302 4.04832 5.6212C4.00343 5.81748 4.00343 6.16291 4.04832 6.3758C4.17368 6.97902 4.62078 7.53488 5.19796 7.80927C5.70893 8.05056 6.29082 8.05056 6.80168 7.80927C7.50657 7.47338 7.98679 6.74952 7.98679 6.01623C7.98679 5.47923 7.78332 5.00855 7.37179 4.60409C7.08079 4.31544 6.73546 4.12623 6.35704 4.04587C6.163 4.00569 5.82239 4.00569 5.63318 4.04823ZM6.31204 4.71059C6.67868 4.78634 7.02164 5.04412 7.17775 5.35634C7.3765 5.75845 7.36932 6.27177 7.16125 6.68095C7.07843 6.84413 6.84657 7.07363 6.66454 7.16823C6.27186 7.37405 5.75146 7.37877 5.35643 7.18002C4.95668 6.97902 4.71068 6.58163 4.68228 6.09198C4.65625 5.6662 4.77925 5.32323 5.05128 5.05355C5.37293 4.73662 5.839 4.60891 6.31204 4.71059Z" fill="#565656"/>
<path d="M2.20378 4.41662C2.12803 4.45927 0.819925 5.76737 0.782104 5.8383C0.741925 5.91395 0.739568 6.05355 0.775032 6.12448C0.812854 6.19788 2.11861 7.50823 2.19671 7.55088C2.23218 7.56984 2.30793 7.58398 2.36707 7.58398C2.561 7.58398 2.71475 7.38534 2.67693 7.18659C2.66514 7.11566 2.59175 7.03048 2.28189 6.71591L1.90111 6.33277L2.55157 6.3257C3.12875 6.31863 3.20675 6.31391 3.26354 6.27609C3.41493 6.17677 3.467 5.96623 3.37475 5.8172C3.28721 5.67287 3.25175 5.6658 2.54686 5.6658C2.19436 5.66345 1.90818 5.65637 1.90818 5.6493C1.90818 5.64223 2.07853 5.4648 2.28425 5.25427C2.69107 4.84509 2.72418 4.79302 2.6675 4.6203C2.62261 4.48552 2.52082 4.40741 2.3765 4.39798C2.30782 4.39305 2.22971 4.40248 2.20378 4.41662Z" fill="#565656"/>
<path d="M9.48455 4.46205C9.34741 4.54487 9.2859 4.70098 9.33315 4.8453C9.34965 4.89737 9.48455 5.05112 9.72583 5.28994C9.92694 5.49105 10.0925 5.66366 10.0925 5.6732C10.0925 5.68498 9.80148 5.69216 9.44908 5.69216C8.85058 5.69216 8.79862 5.69452 8.72758 5.73952C8.51233 5.86959 8.53601 6.19605 8.76776 6.31198C8.84105 6.3498 8.92858 6.35452 9.47737 6.35452H10.1019L9.73291 6.72577C9.29051 7.17041 9.25505 7.23909 9.35683 7.43773C9.40419 7.53234 9.50116 7.60091 9.59576 7.61045C9.78026 7.62695 9.7613 7.6412 10.4899 6.91498C10.8708 6.53655 11.1995 6.19584 11.2184 6.16037C11.2611 6.07755 11.2611 5.96645 11.2161 5.87184C11.1687 5.77252 9.86308 4.47148 9.77791 4.44073C9.67612 4.40291 9.56973 4.40998 9.48455 4.46205Z" fill="#565656"/>
<path d="M5.83439 8.62066C5.77996 8.64669 5.73271 8.69876 5.6996 8.76733C5.64753 8.86666 5.64517 8.89505 5.64517 9.48648V10.1015L5.27382 9.73248C4.9781 9.44148 4.87878 9.35641 4.80314 9.33509C4.67542 9.29726 4.56185 9.33273 4.46253 9.44394C4.40574 9.51016 4.3916 9.54798 4.3916 9.63316C4.3916 9.6923 4.40339 9.76323 4.41764 9.79162C4.45546 9.86491 5.76121 11.1754 5.83932 11.218C5.92214 11.2607 6.05457 11.2607 6.13739 11.218C6.24839 11.1588 7.5565 9.82709 7.57536 9.75369C7.6345 9.50534 7.44057 9.28301 7.19693 9.32555C7.11175 9.33969 7.05496 9.38469 6.71671 9.71823L6.33357 10.0967L6.3265 9.46269C6.31943 8.87609 6.31471 8.8193 6.27207 8.74601C6.18218 8.59226 5.99532 8.54019 5.83439 8.62066Z" fill="#565656"/>
</svg>
