<svg width="33" height="47" viewBox="0 0 33 47" fill="none" xmlns="http://www.w3.org/2000/svg">
<path d="M27.2069 23.4478L27.1374 23.1553C26.8199 21.8177 25.6684 20.8339 24.3111 20.8339C23.629 20.8339 23.0006 21.0823 22.5027 21.4983L22.2935 21.673L22.1896 21.421C21.7397 20.3303 20.7068 19.5731 19.5162 19.5731C18.9388 19.5731 18.3995 19.7515 17.9458 20.0587L17.6337 20.2699V19.893V13.8119C17.6337 12.1153 16.3181 10.7508 14.7213 10.7508C13.1245 10.7508 11.8083 12.1154 11.8083 13.8119V30.3767V30.8504L11.4688 30.52L9.67221 28.7715L9.6675 28.7669L9.66758 28.7668C8.89091 27.9596 7.86559 27.5177 6.77631 27.5177L6.76594 27.5177L6.76542 27.5177M27.2069 23.4478L3.72204 31.4753C2.98062 30.6991 2.97771 29.4337 3.7155 28.6545C4.52809 27.7956 5.61153 27.3207 6.76542 27.3177V27.5177M27.2069 23.4478L27.4498 23.2707C27.9216 22.9268 28.4921 22.7252 29.1068 22.7252M27.2069 23.4478L29.1068 22.7252M6.76542 27.5177C5.66802 27.5207 4.63665 27.9719 3.86078 28.7919L3.86073 28.792C3.19623 29.4938 3.19881 30.6379 3.86666 31.3371M6.76542 27.5177L3.86666 31.3371M29.1068 22.7252H29.1061C30.7036 22.7252 32.0191 24.0898 32.0191 25.7863V35.2398C32.0191 41.1072 27.4768 45.8639 21.9133 45.8639C19.1007 45.8639 16.3933 44.6179 14.4832 42.4402L14.4833 42.4401L14.4774 42.4338L3.86666 31.3371M29.1068 22.7252L3.86666 31.3371M3.86666 31.3371L3.86659 31.337L3.72205 31.4752L3.86666 31.3371Z" fill="#222222" stroke="#222222" stroke-width="0.4"/>
<mask id="path-2-inside-1_1192_21880" fill="white">
<path d="M30.8307 29.0788V35.3816C30.8307 40.534 26.8491 44.7254 21.9547 44.7254C19.4756 44.7254 17.0923 43.6223 15.4148 41.6987C15.4097 41.6934 15.4046 41.6889 15.4003 41.6837C15.3974 41.6807 15.3952 41.6777 15.3923 41.6747L4.78005 30.5756C4.58471 30.3705 4.58325 30.0368 4.77859 29.8309C5.32104 29.2576 6.04286 28.9405 6.81042 28.939H6.81768C7.58234 28.939 8.3027 29.2516 8.84587 29.8204C8.85168 29.8264 8.85822 29.8332 8.86403 29.8392L11.874 32.7697C12.0817 32.9718 12.386 33.0267 12.6474 32.9102C12.9088 32.793 13.0787 32.5263 13.0787 32.2309V13.9537C13.0787 12.9716 13.8339 12.1729 14.7613 12.1729C15.6886 12.1729 16.4438 12.9716 16.4438 13.9537V25.2977C16.4438 25.7065 16.764 26.0378 17.1591 26.0378C17.5541 26.0378 17.8743 25.7065 17.8743 25.2977V22.7767C17.8743 21.7946 18.6296 20.9959 19.5569 20.9959C20.4842 20.9959 21.2394 21.7946 21.2394 22.7767V26.5578C21.2394 26.9666 21.5597 27.298 21.9547 27.298C22.3497 27.298 22.67 26.9666 22.67 26.5578V24.0368C22.67 23.0547 23.4245 22.256 24.3525 22.256C25.2806 22.256 26.0351 23.0547 26.0351 24.0368V27.8179C26.0351 28.2267 26.3553 28.5581 26.7503 28.5581C27.1454 28.5581 27.4656 28.2267 27.4656 27.8179V25.9274C27.4656 24.9453 28.2201 24.1465 29.1481 24.1465C30.0762 24.1465 30.8307 24.9453 30.8307 25.9274V29.0788Z"/>
</mask>
<path d="M30.8307 29.0788V35.3816C30.8307 40.534 26.8491 44.7254 21.9547 44.7254C19.4756 44.7254 17.0923 43.6223 15.4148 41.6987C15.4097 41.6934 15.4046 41.6889 15.4003 41.6837C15.3974 41.6807 15.3952 41.6777 15.3923 41.6747L4.78005 30.5756C4.58471 30.3705 4.58325 30.0368 4.77859 29.8309C5.32104 29.2576 6.04286 28.9405 6.81042 28.939H6.81768C7.58234 28.939 8.3027 29.2516 8.84587 29.8204C8.85168 29.8264 8.85822 29.8332 8.86403 29.8392L11.874 32.7697C12.0817 32.9718 12.386 33.0267 12.6474 32.9102C12.9088 32.793 13.0787 32.5263 13.0787 32.2309V13.9537C13.0787 12.9716 13.8339 12.1729 14.7613 12.1729C15.6886 12.1729 16.4438 12.9716 16.4438 13.9537V25.2977C16.4438 25.7065 16.764 26.0378 17.1591 26.0378C17.5541 26.0378 17.8743 25.7065 17.8743 25.2977V22.7767C17.8743 21.7946 18.6296 20.9959 19.5569 20.9959C20.4842 20.9959 21.2394 21.7946 21.2394 22.7767V26.5578C21.2394 26.9666 21.5597 27.298 21.9547 27.298C22.3497 27.298 22.67 26.9666 22.67 26.5578V24.0368C22.67 23.0547 23.4245 22.256 24.3525 22.256C25.2806 22.256 26.0351 23.0547 26.0351 24.0368V27.8179C26.0351 28.2267 26.3553 28.5581 26.7503 28.5581C27.1454 28.5581 27.4656 28.2267 27.4656 27.8179V25.9274C27.4656 24.9453 28.2201 24.1465 29.1481 24.1465C30.0762 24.1465 30.8307 24.9453 30.8307 25.9274V29.0788Z" fill="white"/>
<path d="M15.4148 41.6987L15.7163 41.4358L15.7096 41.4281L15.7024 41.4207L15.4148 41.6987ZM15.4003 41.6837L15.7083 41.4285L15.6986 41.4167L15.6879 41.4057L15.4003 41.6837ZM15.3923 41.6747L15.1032 41.9511L15.1047 41.9526L15.3923 41.6747ZM4.78005 30.5756L4.49037 30.8514L4.49093 30.852L4.78005 30.5756ZM4.77859 29.8309L5.06877 30.1063L5.06915 30.1059L4.77859 29.8309ZM6.81042 28.939V28.539L6.80963 28.539L6.81042 28.939ZM8.84587 29.8204L8.55658 30.0967L8.55824 30.0984L8.84587 29.8204ZM8.86403 29.8392L8.57626 30.1173L8.58499 30.1258L8.86403 29.8392ZM11.874 32.7697L11.595 33.0563L11.595 33.0564L11.874 32.7697ZM12.6474 32.9102L12.8102 33.2756L12.811 33.2752L12.6474 32.9102ZM30.4307 29.0788V35.3816H31.2307V29.0788H30.4307ZM30.4307 35.3816C30.4307 40.3327 26.6091 44.3254 21.9547 44.3254V45.1254C27.0891 45.1254 31.2307 40.7353 31.2307 35.3816H30.4307ZM21.9547 44.3254C19.595 44.3254 17.3203 43.2752 15.7163 41.4358L15.1133 41.9616C16.8642 43.9694 19.3561 45.1254 21.9547 45.1254V44.3254ZM15.7024 41.4207C15.698 41.4161 15.6942 41.4124 15.6922 41.4104C15.6913 41.4095 15.6901 41.4083 15.6899 41.4081C15.6894 41.4076 15.6894 41.4076 15.6896 41.4079C15.69 41.4082 15.6922 41.4104 15.6953 41.4137C15.6984 41.417 15.703 41.4221 15.7083 41.4285L15.0922 41.9388C15.1067 41.9563 15.1198 41.9694 15.1249 41.9745C15.1263 41.9759 15.1276 41.9772 15.1284 41.9779C15.1294 41.9789 15.1295 41.979 15.1298 41.9794C15.1303 41.9798 15.1291 41.9786 15.1272 41.9767L15.7024 41.4207ZM15.6879 41.4057C15.6929 41.4109 15.6968 41.4152 15.6991 41.4178C15.7011 41.4201 15.7027 41.422 15.7017 41.4208C15.7014 41.4205 15.6985 41.4171 15.6952 41.4133C15.6916 41.4092 15.6864 41.4034 15.6799 41.3967L15.1047 41.9526C15.0997 41.9474 15.0958 41.9431 15.0935 41.9405C15.0915 41.9382 15.0899 41.9363 15.0909 41.9375C15.0912 41.9379 15.0941 41.9412 15.0974 41.945C15.101 41.9491 15.1062 41.9549 15.1127 41.9616L15.6879 41.4057ZM15.6814 41.3982L5.06916 30.2992L4.49093 30.852L15.1032 41.9511L15.6814 41.3982ZM5.06972 30.2998C5.02038 30.2479 5.02096 30.1567 5.06877 30.1063L4.48842 29.5556C4.14555 29.917 4.14903 30.493 4.49037 30.8514L5.06972 30.2998ZM5.06915 30.1059C5.53873 29.6096 6.15687 29.3403 6.8112 29.339L6.80963 28.539C5.92884 28.5408 5.10335 28.9057 4.48803 29.556L5.06915 30.1059ZM6.81042 29.339H6.81768V28.539H6.81042V29.339ZM6.81768 29.339C7.46983 29.339 8.08663 29.6045 8.55659 30.0967L9.13516 29.5442C8.51876 28.8987 7.69484 28.539 6.81768 28.539V29.339ZM8.55824 30.0984C8.56114 30.1014 8.56423 30.1046 8.56731 30.1078C8.5704 30.111 8.57349 30.1142 8.5764 30.1172L9.15166 29.5612C9.14876 29.5582 9.14567 29.555 9.14259 29.5519C9.1395 29.5487 9.13641 29.5455 9.13351 29.5425L8.55824 30.0984ZM8.58499 30.1258L11.595 33.0563L12.153 32.4831L9.14306 29.5526L8.58499 30.1258ZM11.595 33.0564C11.9186 33.3713 12.3975 33.4594 12.8102 33.2756L12.4846 32.5448C12.3744 32.5939 12.2448 32.5724 12.153 32.4831L11.595 33.0564ZM12.811 33.2752C13.2211 33.0913 13.4787 32.6784 13.4787 32.2309H12.6787C12.6787 32.3741 12.5965 32.4947 12.4837 32.5452L12.811 33.2752ZM13.4787 32.2309V13.9537H12.6787V32.2309H13.4787ZM13.4787 13.9537C13.4787 13.1709 14.0759 12.5729 14.7613 12.5729V11.7729C13.592 11.7729 12.6787 12.7723 12.6787 13.9537H13.4787ZM14.7613 12.5729C15.4467 12.5729 16.0438 13.1709 16.0438 13.9537H16.8438C16.8438 12.7723 15.9305 11.7729 14.7613 11.7729V12.5729ZM16.0438 13.9537V25.2977H16.8438V13.9537H16.0438ZM16.0438 25.2977C16.0438 25.9144 16.5303 26.4378 17.1591 26.4378V25.6378C16.9977 25.6378 16.8438 25.4985 16.8438 25.2977H16.0438ZM17.1591 26.4378C17.7878 26.4378 18.2743 25.9144 18.2743 25.2977H17.4743C17.4743 25.4985 17.3204 25.6378 17.1591 25.6378V26.4378ZM18.2743 25.2977V22.7767H17.4743V25.2977H18.2743ZM18.2743 22.7767C18.2743 21.9939 18.8715 21.3959 19.5569 21.3959V20.5959C18.3876 20.5959 17.4743 21.5953 17.4743 22.7767H18.2743ZM19.5569 21.3959C20.2423 21.3959 20.8394 21.9939 20.8394 22.7767H21.6394C21.6394 21.5953 20.7261 20.5959 19.5569 20.5959V21.3959ZM20.8394 22.7767V26.5578H21.6394V22.7767H20.8394ZM20.8394 26.5578C20.8394 27.1745 21.326 27.698 21.9547 27.698V26.898C21.7933 26.898 21.6394 26.7587 21.6394 26.5578H20.8394ZM21.9547 27.698C22.5834 27.698 23.07 27.1745 23.07 26.5578H22.27C22.27 26.7587 22.116 26.898 21.9547 26.898V27.698ZM23.07 26.5578V24.0368H22.27V26.5578H23.07ZM23.07 24.0368C23.07 23.2539 23.6665 22.656 24.3525 22.656V21.856C23.1824 21.856 22.27 22.8556 22.27 24.0368H23.07ZM24.3525 22.656C25.0385 22.656 25.6351 23.2539 25.6351 24.0368H26.4351C26.4351 22.8556 25.5226 21.856 24.3525 21.856V22.656ZM25.6351 24.0368V27.8179H26.4351V24.0368H25.6351ZM25.6351 27.8179C25.6351 28.4346 26.1216 28.9581 26.7503 28.9581V28.1581C26.589 28.1581 26.4351 28.0188 26.4351 27.8179H25.6351ZM26.7503 28.9581C27.379 28.9581 27.8656 28.4346 27.8656 27.8179H27.0656C27.0656 28.0188 26.9117 28.1581 26.7503 28.1581V28.9581ZM27.8656 27.8179V25.9274H27.0656V27.8179H27.8656ZM27.8656 25.9274C27.8656 25.1445 28.4621 24.5465 29.1481 24.5465V23.7465C27.9781 23.7465 27.0656 24.7461 27.0656 25.9274H27.8656ZM29.1481 24.5465C29.8342 24.5465 30.4307 25.1445 30.4307 25.9274H31.2307C31.2307 24.7461 30.3182 23.7465 29.1481 23.7465V24.5465ZM30.4307 25.9274V29.0788H31.2307V25.9274H30.4307Z" fill="#222222" mask="url(#path-2-inside-1_1192_21880)"/>
<path d="M13.4112 8.125C14.2674 7.89557 14.7754 7.01573 14.5455 6.16034L13.3708 1.7763C13.1414 0.920048 12.2615 0.41207 11.4061 0.642004C10.5507 0.871939 10.0419 1.75128 10.2718 2.60667L11.4465 6.9907C11.5611 7.41815 11.8384 7.76011 12.1937 7.9652C12.5489 8.1703 12.9832 8.2404 13.4112 8.125Z" fill="#768AF4"/>
<path d="M9.78671 12.1338C10.23 11.366 9.96716 10.385 9.19936 9.94176L5.03031 7.53476C4.26251 7.09147 3.28158 7.35431 2.83829 8.12211C2.395 8.8899 2.65784 9.87083 3.42564 10.3141L7.59469 12.7211C8.36249 13.1644 9.34342 12.9016 9.78671 12.1338Z" fill="#768AF4"/>
<path d="M2.6089 20.4167L6.99293 19.242C7.84919 19.0125 8.35717 18.1327 8.12723 17.2773C7.8973 16.4219 7.01796 15.9131 6.16257 16.143L1.77853 17.3177C0.922276 17.5472 0.414299 18.427 0.644233 19.2824C0.758767 19.7098 1.03614 20.0518 1.39138 20.2569C1.74662 20.462 2.18095 20.5321 2.6089 20.4167Z" fill="#768AF4"/>
<path d="M24.5269 14.5436L28.9109 13.3689C29.7672 13.1395 30.2751 12.2597 30.0452 11.4043C29.8153 10.5489 28.9359 10.04 28.0805 10.27L23.6965 11.4447C22.8402 11.6741 22.3323 12.5539 22.5622 13.4093C22.6767 13.8368 22.9541 14.1787 23.3093 14.3838C23.6646 14.5889 24.0989 14.659 24.5269 14.5436Z" fill="#768AF4"/>
<path d="M20.7458 9.1966L23.1528 5.02755C23.5961 4.25975 23.3333 3.27883 22.5655 2.83554C21.7977 2.39225 20.8167 2.65509 20.3734 3.42289L17.9664 7.59194C17.5232 8.35974 17.786 9.34066 18.5538 9.78395C19.3216 10.2272 20.3025 9.9644 20.7458 9.1966Z" fill="#768AF4"/>
</svg>
