<svg width="80" height="80" viewBox="0 0 80 80" fill="none" xmlns="http://www.w3.org/2000/svg">
<rect x="1.5" y="1.5" width="77" height="77" rx="18.5" fill="white" stroke="#EEEEEE" stroke-width="3"/>
<path d="M41.4317 63.1416C50.4868 62.0957 57.7439 54.6318 58.7767 45.2948C60.1322 33.0863 50.9295 22.6939 39.3938 22.5608V17.0841C39.3938 16.7799 39.0249 16.6182 38.776 16.8084L27.8397 25.09C27.6552 25.2326 27.6552 25.5083 27.8397 25.651L38.776 33.9326C39.0249 34.1227 39.3938 33.9516 39.3938 33.6568V28.1896C47.4992 28.3227 53.9909 35.4348 53.4376 43.9351C52.9673 51.2469 47.1857 57.18 40.0946 57.6459C32.5793 58.1403 26.1891 52.6065 25.0457 45.2853C24.8336 43.9256 23.6809 42.9368 22.3531 42.9368C20.7025 42.9368 19.4115 44.4486 19.6697 46.1315C21.2742 56.5619 30.6152 64.3871 41.4317 63.1416Z" fill="#565656"/>
</svg>
