<svg width="20" height="31" viewBox="0 0 20 31" fill="none" xmlns="http://www.w3.org/2000/svg">
<path d="M4.8125 5.08339C4.82655 2.26331 6.98339 -0.00721375 9.64608 1.72235e-05C12.2877 0.0072482 14.4305 2.27777 14.4375 5.08339V12.7916C14.4305 15.6117 12.2666 17.8822 9.61095 17.875C6.96934 17.8678 4.82655 15.5972 4.81953 12.7916V5.08339H4.8125Z" fill="white"/>
<path d="M10.6081 23.4897V28.1922H14.7263C15.2694 28.1922 15.7094 28.6459 15.7094 29.2028C15.7094 29.7597 15.2694 30.2134 14.7263 30.2134H4.52375C3.98063 30.2134 3.54063 29.7597 3.54063 29.2028C3.54063 28.6459 3.98063 28.1922 4.52375 28.1922H8.64188V23.4897C3.36188 22.9534 0.01375 18.3816 0 12.9091C0 12.3522 0.44 11.8984 0.983125 11.8984C1.52625 11.8984 1.96625 12.3522 1.96625 12.9091C1.96625 17.6528 5.02563 21.5166 9.63188 21.5166C14.2381 21.5166 17.2975 17.6528 17.2975 12.9091C17.2975 12.3522 17.7375 11.8984 18.2806 11.8984C18.8238 11.8984 19.2638 12.3522 19.2638 12.9091C19.25 18.3816 15.9019 22.9534 10.6219 23.4897H10.6081Z" fill="white"/>
</svg>
