<svg width="55" height="55" viewBox="0 0 55 55" fill="none" xmlns="http://www.w3.org/2000/svg">
<rect width="55" height="55" fill="#FF6161"/>
<path d="M23.4961 17.7499C23.5092 15.1148 25.5246 12.9933 28.0126 13C30.4809 13.0068 32.4831 15.1283 32.4897 17.7499V24.9524C32.4831 27.5875 30.4612 29.7091 27.9798 29.7023C25.5114 29.6956 23.5092 27.574 23.5027 24.9524V17.7499H23.4961Z" fill="white"/>
<path d="M28.9122 34.9539V39.3479H32.7602C33.2677 39.3479 33.6788 39.7719 33.6788 40.2922C33.6788 40.8126 33.2677 41.2365 32.7602 41.2365H23.227C22.7195 41.2365 22.3084 40.8126 22.3084 40.2922C22.3084 39.7719 22.7195 39.3479 23.227 39.3479H27.0749V34.9539C22.1413 34.4528 19.0128 30.1809 19 25.0674C19 24.547 19.4111 24.123 19.9186 24.123C20.4261 24.123 20.8373 24.547 20.8373 25.0674C20.8373 29.4999 23.6959 33.1102 28 33.1102C32.3041 33.1102 35.1627 29.4999 35.1627 25.0674C35.1627 24.547 35.5739 24.123 36.0814 24.123C36.5889 24.123 37 24.547 37 25.0674C36.9872 30.1809 33.8587 34.4528 28.9251 34.9539H28.9122Z" fill="white"/>
</svg>
