<svg width="25" height="25" viewBox="0 0 25 25" fill="none" xmlns="http://www.w3.org/2000/svg">
<path d="M24.0065 7.42828C23.3504 5.95969 22.4506 4.66172 21.3322 3.57094C20.2137 2.48016 18.8828 1.60266 17.3769 0.962812C15.871 0.322969 14.2277 0 12.4969 0C10.7661 0 9.12897 0.322969 7.61685 0.962812C6.11097 1.60266 4.78006 2.48016 3.66158 3.57094C2.54311 4.66172 1.64334 5.95969 0.987253 7.42828C0.331167 8.89687 0 10.4995 0 12.1875V22.035C0 22.6627 0.237441 23.2111 0.712322 23.6742C1.1872 24.1373 1.75581 24.3689 2.39315 24.3689H6.63611V13.9852H2.48688V12.1875C2.48688 9.46359 3.46163 7.13578 5.3924 5.25281C7.31692 3.37594 9.71007 2.41922 12.5031 2.41922C15.2962 2.41922 17.6831 3.36984 19.6138 5.25281C21.5384 7.12969 22.5194 9.46359 22.5194 12.1875V13.9852H18.3639V24.375H22.6068C23.2504 24.375 23.8128 24.1434 24.2877 23.6803C24.7626 23.2172 25 22.6687 25 22.0411V12.1875C25 10.5056 24.6688 8.90297 24.0127 7.42828H24.0065Z" fill="white"/>
</svg>
