<svg width="41" height="30" viewBox="0 0 41 30" fill="none" xmlns="http://www.w3.org/2000/svg">
<path d="M19.1612 1.35241C18.0287 0.801087 16.7344 0.900505 15.6876 1.62355L9.82198 6.99214H5.89158C3.18884 6.99214 1 9.11608 1 11.7281V18.2719C1 20.8838 3.18884 23.0078 5.89158 23.0078H9.83149L15.6781 28.3764C16.2776 28.7921 16.9533 29 17.648 29C18.1619 29 18.6758 28.8825 19.1612 28.6475C20.3127 28.0872 20.036 26.9664 20.036 25.7373V4.27169C20.036 3.03348 20.3222 1.9218 19.1707 1.35241H19.1612Z" fill="white"/>
<path d="M28.3456 6.85063C27.9935 6.50718 27.5176 6.30834 27.0133 6.29931C26.5184 6.28123 26.0235 6.47103 25.6619 6.80544C24.9101 7.50136 24.891 8.64016 25.6143 9.35416C27.2797 10.981 28.2028 13.1501 28.2028 15.4639C28.2028 17.7776 27.2892 19.9106 25.6333 21.5555C24.9101 22.2695 24.9291 23.4173 25.6809 24.1042C26.0521 24.4386 26.5279 24.6104 27.0037 24.6104C27.4796 24.6104 27.9935 24.4296 28.3646 24.0681C30.7057 21.7543 32 18.6995 32 15.4729C32 12.2463 30.7057 9.16436 28.3456 6.85966V6.85063Z" fill="white"/>
<path d="M34.4708 2.53948L34.0616 2.14181V2.25027C33.7761 2.09662 33.4525 2.00624 33.1194 2.00624C32.615 2.00624 32.1487 2.19604 31.7871 2.53045C31.4255 2.87389 31.2161 3.32579 31.2161 3.81385C31.2161 4.29286 31.4064 4.74476 31.7681 5.07917C34.6326 7.84481 36.2124 11.5323 36.2124 15.4548C36.2124 19.3773 34.6326 23.0558 31.7681 25.8215C31.4064 26.1649 31.2161 26.6258 31.2161 27.1139C31.2161 27.5929 31.4255 28.0448 31.7871 28.3792C32.1487 28.7136 32.6246 28.9034 33.1194 28.9034H33.1385C33.6428 28.9034 34.1187 28.7046 34.4708 28.3611C38.0396 24.9177 40 20.3354 40 15.4458C40 10.5562 38.0396 5.99201 34.4708 2.53948Z" fill="white"/>
<path d="M19.1612 1.35241C18.0287 0.801087 16.7344 0.900505 15.6876 1.62355L9.82198 6.99214H5.89158C3.18884 6.99214 1 9.11608 1 11.7281V18.2719C1 20.8838 3.18884 23.0078 5.89158 23.0078H9.83149L15.6781 28.3764C16.2776 28.7921 16.9533 29 17.648 29C18.1619 29 18.6758 28.8825 19.1612 28.6475C20.3127 28.0872 20.036 26.9664 20.036 25.7373V4.27169C20.036 3.03348 20.3222 1.9218 19.1707 1.35241H19.1612Z" stroke="#7E84A6"/>
<path d="M28.3456 6.85063C27.9935 6.50718 27.5176 6.30834 27.0133 6.29931C26.5184 6.28123 26.0235 6.47103 25.6619 6.80544C24.9101 7.50136 24.891 8.64016 25.6143 9.35416C27.2797 10.981 28.2028 13.1501 28.2028 15.4639C28.2028 17.7776 27.2892 19.9106 25.6333 21.5555C24.9101 22.2695 24.9291 23.4173 25.6809 24.1042C26.0521 24.4386 26.5279 24.6104 27.0037 24.6104C27.4796 24.6104 27.9935 24.4296 28.3646 24.0681C30.7057 21.7543 32 18.6995 32 15.4729C32 12.2463 30.7057 9.16436 28.3456 6.85966V6.85063Z" stroke="#7E84A6"/>
<path d="M34.4708 2.53948L34.0616 2.14181V2.25027C33.7761 2.09662 33.4525 2.00624 33.1194 2.00624C32.615 2.00624 32.1487 2.19604 31.7871 2.53045C31.4255 2.87389 31.2161 3.32579 31.2161 3.81385C31.2161 4.29286 31.4064 4.74476 31.7681 5.07917C34.6326 7.84481 36.2124 11.5323 36.2124 15.4548C36.2124 19.3773 34.6326 23.0558 31.7681 25.8215C31.4064 26.1649 31.2161 26.6258 31.2161 27.1139C31.2161 27.5929 31.4255 28.0448 31.7871 28.3792C32.1487 28.7136 32.6246 28.9034 33.1194 28.9034H33.1385C33.6428 28.9034 34.1187 28.7046 34.4708 28.3611C38.0396 24.9177 40 20.3354 40 15.4458C40 10.5562 38.0396 5.99201 34.4708 2.53948Z" stroke="#7E84A6"/>
</svg>
