<svg width="70" height="45" viewBox="0 0 70 45" fill="none" xmlns="http://www.w3.org/2000/svg">
<path d="M49.2359 7.79733V40.4715C49.2359 41.0441 48.7955 41.511 48.2405 41.511H28.5426C28.1902 40.9384 27.6352 40.4539 26.9481 40.1103C26.2962 39.7932 25.5298 39.5994 24.7017 39.5906H24.6224C23.7943 39.5906 23.0279 39.7668 22.376 40.0751C21.6536 40.4099 21.0634 40.912 20.7022 41.511H0.986657C0.440472 41.511 0 41.0441 0 40.4715V7.79733C0 7.22471 0.440472 6.75781 0.986657 6.75781H48.2405C48.7955 6.75781 49.2359 7.22471 49.2359 7.79733Z" fill="#6E9EFF"/>
<path d="M24.7016 10.8659V39.5847H24.6223C23.7942 39.5847 23.0278 39.7609 22.3759 40.0692C19.0019 38.2809 12.0689 35.9464 2.55469 39.4261V8.68116C2.55469 8.68116 3.97301 7.65045 6.26346 6.75189C9.36438 5.52738 14.0686 4.55834 18.9843 6.75189C20.8871 7.58879 22.8164 8.9102 24.7016 10.8659Z" fill="#4D7BD9"/>
<path d="M46.8412 8.68067V39.4256C37.2478 35.9195 30.2971 38.3244 26.9495 40.1039C26.2976 39.7868 25.5312 39.593 24.7031 39.5842V10.8654C26.236 8.86567 28.0067 7.56187 29.8655 6.7514C34.1557 4.87499 38.9039 5.67665 42.278 6.7514C45.0089 7.62354 46.8412 8.68067 46.8412 8.68067Z" fill="#4D7BD9"/>
<path d="M24.7006 8.37418V39.0663C24.7006 39.0663 16.3581 31.8866 2.5625 36.9344V6.18944C2.5625 6.18944 14.3407 -2.38214 24.7006 8.37418Z" fill="#C5D7E6"/>
<path d="M24.7031 8.39664V39.0887C24.7031 39.0887 33.0457 31.909 46.8412 36.9568V6.2119C46.8412 6.2119 32.658 -1.94564 24.7031 8.39664Z" fill="#C5D7E6"/>
<path d="M24.7031 5.85758V36.5497C24.7031 36.5497 33.0457 29.37 46.8412 34.4178V3.67284C46.8412 3.67284 32.658 -4.4847 24.7031 5.85758Z" fill="#E4ECF2"/>
<path d="M25.0982 5.65321V37.6491C25.0982 37.6491 16.7293 30.1699 2.89844 35.4291V3.37156C2.89844 3.37156 14.7119 -5.56121 25.0982 5.65321Z" fill="url(#paint0_linear_1003_67223)"/>
<path d="M25.1094 5.65321V37.6491C25.1094 37.6491 33.1172 30.1699 46.3489 35.4291V3.37156C46.3489 3.37156 35.0464 -5.56121 25.1094 5.65321Z" fill="url(#paint1_linear_1003_67223)"/>
<path d="M60.2092 44.6535C65.6145 44.6535 69.9964 44.1644 69.9964 43.5611C69.9964 42.9578 65.6145 42.4688 60.2092 42.4688C54.8038 42.4688 50.4219 42.9578 50.4219 43.5611C50.4219 44.1644 54.8038 44.6535 60.2092 44.6535Z" fill="#D9D9D9"/>
<path d="M56.0014 28.0703L54.125 29.9467L56.3538 32.1755L58.2302 30.2991L56.0014 28.0703Z" fill="#333C49"/>
<path d="M35.8159 9.75437C30.4333 15.1369 30.4245 23.8583 35.7983 29.232C41.172 34.6058 49.8934 34.597 55.2847 29.2144C60.6673 23.8319 60.6761 15.1105 55.3023 9.72794C49.9286 4.35419 41.2072 4.36299 35.8247 9.74556L35.8159 9.75437Z" fill="url(#paint2_linear_1003_67223)"/>
<path d="M53.3339 27.2792C49.0261 31.587 42.049 31.5958 37.75 27.2968C33.451 22.9978 33.4598 16.0208 37.7676 11.7129C42.0754 7.40512 49.0525 7.39631 53.3603 11.6953C57.6593 15.9943 57.6505 22.9802 53.3427 27.288L53.3339 27.2792Z" fill="#CFE1FB"/>
<path d="M60.0261 30.2744L68.6329 38.8813C69.646 39.8943 69.646 41.5417 68.6329 42.5636C67.6198 43.5855 65.9637 43.5855 64.9506 42.5636L56.3438 33.9568L60.0349 30.2656L60.0261 30.2744Z" fill="#3F4A5A"/>
<path d="M61.0625 33.1243L61.6087 32.5781L68.3567 39.3262C68.7796 39.749 69.0174 40.3216 69.0174 40.9207C69.0174 41.5197 68.7796 42.0923 68.3567 42.524C68.2774 42.5945 68.1805 42.6385 68.0836 42.6385C67.9867 42.6385 67.881 42.6033 67.8105 42.524C67.6608 42.3742 67.6608 42.1276 67.8105 41.9778C68.0924 41.6959 68.2422 41.3171 68.2422 40.9207C68.2422 40.5242 68.0924 40.1542 67.8105 39.8723L61.0625 33.1243Z" fill="#8B9CB5"/>
<path d="M60.0282 30.2834L56.3459 33.9657L56.1168 33.7367C55.9495 33.5693 55.8438 33.3403 55.8438 33.076C55.8438 32.8205 55.9495 32.5827 56.1168 32.4241L58.4866 30.0543C58.654 29.887 58.883 29.7812 59.1385 29.7812C59.394 29.7812 59.6318 29.887 59.7992 30.0543L60.0282 30.2834Z" fill="#D9D8D7"/>
<path d="M54.5481 23.1862C48.7339 33 36.2069 27.5645 34.5859 21.2482C35.6783 28.0226 41.7128 30.0224 43.3954 30.3483C47.7032 31.4055 51.4824 29.0533 53.0153 27.5645C58.6621 22.0939 56.0017 14.9759 55.0326 14.0156C55.755 16.4558 56.8386 19.3277 54.5481 23.1862Z" fill="#8EA8CF"/>
<path d="M53.8729 22.1388C54.146 22.0595 54.375 21.8392 54.4543 21.5485C54.7803 20.28 54.8155 18.9938 54.5424 17.7164C54.4455 17.2671 53.9962 16.9764 53.547 17.0733C53.0977 17.1702 52.807 17.6195 52.9127 18.0688C53.1241 19.0819 53.1065 20.1126 52.8422 21.1257C52.7189 21.5661 52.992 22.0242 53.4324 22.1388C53.5822 22.1828 53.7408 22.174 53.8729 22.1388Z" fill="white"/>
<path d="M52.9299 16.206C53.0092 16.1883 53.0796 16.1443 53.1501 16.1002C53.5377 15.8536 53.6434 15.3338 53.3968 14.9462C52.6656 13.8098 51.6525 12.8672 50.4632 12.2065C49.0449 11.4224 47.4504 11.0789 45.8471 11.1934C45.3802 11.2286 45.0454 11.6339 45.0807 12.0919C45.1159 12.55 45.5123 12.8936 45.9792 12.8584C47.2566 12.7615 48.534 13.0434 49.6616 13.6688C50.613 14.1886 51.4235 14.9462 52.0049 15.8536C52.2075 16.1707 52.5951 16.3029 52.9387 16.1971L52.9299 16.206Z" fill="white"/>
<defs>
<linearGradient id="paint0_linear_1003_67223" x1="25.2568" y1="18.8233" x2="5.22413" y2="18.8233" gradientUnits="userSpaceOnUse">
<stop stop-color="#D1D1D1"/>
<stop offset="1" stop-color="#FCFDFE"/>
</linearGradient>
<linearGradient id="paint1_linear_1003_67223" x1="24.9596" y1="18.8233" x2="44.1201" y2="18.8233" gradientUnits="userSpaceOnUse">
<stop stop-color="#ECECEC"/>
<stop offset="1" stop-color="#E1E1E1"/>
</linearGradient>
<linearGradient id="paint2_linear_1003_67223" x1="35.8159" y1="9.75437" x2="55.2759" y2="29.2232" gradientUnits="userSpaceOnUse">
<stop stop-color="#3F4A5A"/>
<stop offset="0.7" stop-color="#3F4A5A"/>
</linearGradient>
</defs>
</svg>
