<svg width="80" height="80" viewBox="0 0 80 80" fill="none" xmlns="http://www.w3.org/2000/svg">
<rect x="1.5" y="1.5" width="77" height="77" rx="18.5" fill="#C9C9C9" stroke="white" stroke-width="3"/>
<path d="M34.0137 26.7381C34.0323 23 36.8912 19.9904 40.4206 20C43.9221 20.0096 46.7624 23.0192 46.7717 26.7381V36.9554C46.7624 40.6935 43.8942 43.7031 40.3741 43.6935C36.8726 43.6839 34.0323 40.6743 34.023 36.9554V26.7381H34.0137Z" fill="white"/>
<path d="M41.696 51.1436V57.3768H47.1546C47.8745 57.3768 48.4577 57.9783 48.4577 58.7164C48.4577 59.4546 47.8745 60.056 47.1546 60.056H33.631C32.9111 60.056 32.3279 59.4546 32.3279 58.7164C32.3279 57.9783 32.9111 57.3768 33.631 57.3768H39.0897V51.1436C32.091 50.4328 27.653 44.3728 27.6348 37.1189C27.6348 36.3807 28.218 35.7793 28.9379 35.7793C29.6578 35.7793 30.2411 36.3807 30.2411 37.1189C30.2411 43.4068 34.2963 48.5282 40.4019 48.5282C46.5076 48.5282 50.5628 43.4068 50.5628 37.1189C50.5628 36.3807 51.146 35.7793 51.8659 35.7793C52.5859 35.7793 53.1691 36.3807 53.1691 37.1189C53.1509 44.3728 48.7129 50.4328 41.7142 51.1436H41.696Z" fill="white"/>
</svg>
