<svg width="55" height="55" viewBox="0 0 55 55" fill="none" xmlns="http://www.w3.org/2000/svg">
<rect width="55" height="55" fill="white"/>
<path d="M28.484 43.4103C34.7095 42.6913 39.6987 37.5598 40.4087 31.1406C41.3406 22.7473 35.0138 15.6026 27.083 15.511V11.7458C27.083 11.5366 26.8294 11.4255 26.6582 11.5563L19.1395 17.2498C19.0127 17.3479 19.0127 17.5375 19.1395 17.6355L26.6582 23.3291C26.8294 23.4599 27.083 23.3422 27.083 23.1395V19.3809C32.6554 19.4724 37.1185 24.3619 36.7381 30.2059C36.4148 35.2327 32.4399 39.3117 27.5648 39.632C22.3981 39.9719 18.0047 36.1675 17.2186 31.1341C17.0728 30.1993 16.2804 29.5195 15.3675 29.5195C14.2327 29.5195 13.3452 30.5589 13.5227 31.7159C14.6258 38.8868 21.0477 44.2666 28.484 43.4103Z" fill="#565656"/>
</svg>
