<svg width="80" height="80" viewBox="0 0 80 80" fill="none" xmlns="http://www.w3.org/2000/svg">
<rect x="1.5" y="1.5" width="77" height="77" rx="18.5" fill="#C9C9C9" stroke="white" stroke-width="3"/>
<path d="M29.0372 50.9848H54.9935C55.9511 50.9848 56.7241 50.1251 56.7241 49.06V20.8329C56.7241 19.7679 55.9511 18.9082 54.9935 18.9082H29.0372C25.8534 18.9082 23.2695 21.7821 23.2695 25.3232V53.5511C23.2695 57.0921 25.8534 59.9661 29.0372 59.9661H54.9935C55.9511 59.9661 56.7241 59.1064 56.7241 58.0413C56.7241 56.9763 55.9511 56.1166 54.9935 56.1166H29.0372C27.7686 56.1166 26.7298 54.9621 26.7298 53.5502C26.7298 52.1384 27.7678 50.9839 29.0372 50.9839V50.9848Z" fill="white"/>
<path d="M32.2773 29.616C32.1393 29.616 32.0273 29.728 32.0273 29.866V39.3296C32.0273 39.4677 32.1393 39.5796 32.2773 39.5796H33.8723C34.0103 39.5796 34.1223 39.4677 34.1223 39.3296V38.4589H39.5157V45.9292C39.5157 46.0673 39.6276 46.1792 39.7657 46.1792H41.4384C41.5765 46.1792 41.6884 46.0673 41.6884 45.9292V38.4589H47.1597V39.3296C47.1597 39.4677 47.2716 39.5796 47.4097 39.5796H49.0046C49.1427 39.5796 49.2546 39.4677 49.2546 39.3296V29.866C49.2546 29.728 49.1427 29.616 49.0046 29.616H41.6884V25.3418C41.6884 25.2037 41.5765 25.0918 41.4384 25.0918H39.7657C39.6276 25.0918 39.5157 25.2037 39.5157 25.3418V29.616H32.2773ZM41.6884 36.4232V31.6518H47.1597V36.4232H41.6884ZM39.5157 31.6518V36.4232H34.1223V31.6518H39.5157Z" fill="#C9C9C9" stroke="#C9C9C9" stroke-width="0.5" stroke-linejoin="round"/>
<path d="M36.89 63.1822L38.1758 64.4948V62.6574V53.6504V52.9004H37.4258H30.9922H30.2422V53.6504V62.6574V64.4948L31.528 63.1822L34.209 60.4453L36.89 63.1822Z" fill="white" stroke="#C9C9C9" stroke-width="1.5"/>
</svg>
