<svg width="49" height="48" viewBox="0 0 49 48" fill="none" xmlns="http://www.w3.org/2000/svg">
<path d="M46.104 14.628C44.844 11.736 43.116 9.18 40.968 7.032C38.82 4.884 36.264 3.156 33.372 1.896C30.48 0.636 27.324 0 24 0C20.676 0 17.532 0.636 14.628 1.896C11.736 3.156 9.18 4.884 7.032 7.032C4.884 9.18 3.156 11.736 1.896 14.628C0.636 17.52 0 20.676 0 24V43.392C0 44.628 0.456 45.708 1.368 46.62C2.28 47.532 3.372 47.988 4.596 47.988H14.832V27.54H4.776V24C4.776 18.636 6.648 14.052 10.356 10.344C14.052 6.648 18.648 4.764 24.012 4.764C29.376 4.764 33.96 6.636 37.668 10.344C41.364 14.04 43.248 18.636 43.248 24V27.54H33.18V48H43.416C44.652 48 45.732 47.544 46.644 46.632C47.556 45.72 48.012 44.64 48.012 43.404V24C48.012 20.688 47.376 17.532 46.116 14.628H46.104ZM43.236 32.304V43.224H37.944V32.304H43.236ZM4.776 43.236V32.316H10.068V43.236H4.776Z" fill="white"/>
</svg>
