<svg width="34" height="34" viewBox="0 0 34 34" fill="none" xmlns="http://www.w3.org/2000/svg">
<g clip-path="url(#clip0_484_64805)">
<path d="M14.5783 8.05651C14.209 8.05651 13.8992 7.93277 13.6487 7.68529C13.3982 7.4378 13.2729 7.13113 13.2729 6.76527C13.2729 6.40717 13.3982 6.10417 13.6487 5.85625C13.8992 5.60833 14.209 5.48438 14.5783 5.48438H20.8305C21.1998 5.48438 21.5097 5.61014 21.7602 5.86167C22.0107 6.11323 22.1359 6.41805 22.1359 6.77615C22.1359 7.13426 22.0107 7.43718 21.7602 7.68491C21.5097 7.93265 21.1998 8.05651 20.8305 8.05651H14.5783ZM17.7033 22.5596C18.063 22.5596 18.3649 22.4308 18.609 22.173C18.853 21.9153 18.975 21.6103 18.975 21.2581V16.6406C18.975 16.2806 18.8533 15.9789 18.61 15.7353C18.3667 15.4918 18.0652 15.3701 17.7055 15.3701C17.3458 15.3701 17.044 15.4918 16.7999 15.7353C16.5559 15.9789 16.4339 16.2806 16.4339 16.6406V21.2581C16.4339 21.6103 16.5555 21.9153 16.7988 22.173C17.0421 22.4308 17.3437 22.5596 17.7033 22.5596ZM17.6972 33.6229C16.0396 33.6229 14.4883 33.3095 13.0433 32.6827C11.5983 32.056 10.3353 31.2037 9.25431 30.1261C8.17331 29.0485 7.32292 27.788 6.70313 26.3448C6.08333 24.9016 5.77344 23.3521 5.77344 21.6964C5.77344 20.0406 6.08427 18.4901 6.70595 17.0449C7.32762 15.5997 8.17893 14.3347 9.25989 13.2499C10.3409 12.1651 11.6038 11.3073 13.0488 10.6763C14.4938 10.0454 16.0457 9.72995 17.7044 9.72995C19.1299 9.72995 20.478 9.96237 21.7486 10.4272C23.0191 10.8921 24.1427 11.548 25.1192 12.3951L26.1026 11.4344C26.3457 11.2071 26.6441 11.0935 26.9977 11.0935C27.3513 11.0935 27.6512 11.2165 27.8973 11.4627C28.1677 11.733 28.3029 12.0387 28.3029 12.3796C28.3029 12.7204 28.1686 13.0252 27.9 13.2938L26.9703 14.2234C27.7347 15.0911 28.3752 16.1345 28.8917 17.3534C29.4082 18.5723 29.6664 20.0185 29.6664 21.6919C29.6664 23.3521 29.3524 24.9057 28.7243 26.3528C28.0962 27.7999 27.2401 29.0608 26.1562 30.1355C25.0723 31.2102 23.8059 32.0602 22.357 32.6853C20.908 33.3104 19.3548 33.6229 17.6972 33.6229ZM17.6991 30.6789C20.2231 30.6789 22.358 29.813 24.1038 28.0811C25.8495 26.3492 26.7224 24.2213 26.7224 21.6973C26.7224 19.1732 25.8513 17.0383 24.1091 15.2926C22.3669 13.5468 20.2338 12.674 17.7098 12.674C15.1857 12.674 13.0508 13.5451 11.3051 15.2872C9.55933 17.0295 8.68646 19.1626 8.68646 21.6866C8.68646 24.2106 9.55756 26.3404 11.2997 28.0758C13.042 29.8112 15.1751 30.6789 17.6991 30.6789Z" fill="#F0F0F0"/>
</g>
<defs>
<clipPath id="clip0_484_64805">
<rect width="34" height="34" fill="white"/>
</clipPath>
</defs>
</svg>
