<svg width="44" height="44" viewBox="0 0 44 44" fill="none" xmlns="http://www.w3.org/2000/svg">
<path d="M39.1279 16C38.7875 15.7464 38.5219 15.4057 38.359 15.0138C38.1962 14.622 38.1421 14.1935 38.2026 13.7736C38.9957 8.79245 38.0893 7.26415 37.4094 6.58491C36.7296 5.90566 35.2189 5.01887 30.2335 5.81132C29.8134 5.86769 29.3859 5.81183 28.9945 5.64943C28.603 5.48703 28.2617 5.22388 28.0052 4.88679C24.7193 0.509434 23.0009 0 22 0C20.9991 0 19.2807 0.509434 15.9948 4.88679C15.7383 5.22388 15.397 5.48703 15.0055 5.64943C14.6141 5.81183 14.1866 5.86769 13.7665 5.81132C8.78112 5.01887 7.27039 5.92453 6.59056 6.58491C5.91073 7.24528 5.00429 8.79245 5.79743 13.7736C5.85788 14.1935 5.80383 14.622 5.64098 15.0138C5.47813 15.4057 5.21251 15.7464 4.8721 16C0.490988 19.283 0 21 0 22C0 23 0.490988 24.717 4.8721 28C5.21251 28.2536 5.47813 28.5943 5.64098 28.9862C5.80383 29.378 5.85788 29.8065 5.79743 30.2264C5.07983 35.2453 5.91073 36.7358 6.59056 37.4151C7.27039 38.0943 8.74335 38.9057 13.7665 38.1887C14.1868 38.1283 14.6157 38.1823 15.0078 38.345C15.4 38.5077 15.741 38.7731 15.9948 39.1132C19.2807 43.4906 20.9991 44 22 44C23.0009 44 24.7193 43.4906 28.0052 39.1132C28.259 38.7731 28.6 38.5077 28.9922 38.345C29.3843 38.1823 29.8132 38.1283 30.2335 38.1887C35.2755 38.9057 36.7296 38.0755 37.4094 37.4151C38.0893 36.7547 38.9202 35.2453 38.2026 30.2264C38.1421 29.8065 38.1962 29.378 38.359 28.9862C38.5219 28.5943 38.7875 28.2536 39.1279 28C43.509 24.717 44 23 44 22C44 21 43.509 19.283 39.1279 16Z" fill="url(#paint0_linear_1095_90885)"/>
<path d="M21.0558 28.6042C20.8072 28.6056 20.5609 28.558 20.3308 28.4641C20.1007 28.3702 19.8915 28.2319 19.715 28.057L15.9382 24.2834C15.5826 23.9281 15.3828 23.4462 15.3828 22.9438C15.3828 22.4413 15.5826 21.9594 15.9382 21.6042C16.2938 21.2489 16.7761 21.0493 17.279 21.0493C17.7818 21.0493 18.2641 21.2489 18.6197 21.6042L21.0558 24.057L27.2687 17.8306C27.4442 17.6537 27.6531 17.5134 27.8832 17.4176C28.1133 17.3218 28.3601 17.2725 28.6094 17.2725C28.8587 17.2725 29.1055 17.3218 29.3357 17.4176C29.5658 17.5134 29.7746 17.6537 29.9502 17.8306C30.1272 18.006 30.2677 18.2147 30.3636 18.4446C30.4594 18.6745 30.5088 18.9211 30.5088 19.1702C30.5088 19.4193 30.4594 19.6659 30.3636 19.8958C30.2677 20.1257 30.1272 20.3344 29.9502 20.5098L22.3965 28.057C22.2201 28.2319 22.0108 28.3702 21.7807 28.4641C21.5507 28.558 21.3043 28.6056 21.0558 28.6042Z" fill="white"/>
<defs>
<linearGradient id="paint0_linear_1095_90885" x1="44" y1="0" x2="44" y2="44" gradientUnits="userSpaceOnUse">
<stop stop-color="#A5B9FF"/>
<stop offset="1" stop-color="#8AC7FF"/>
</linearGradient>
</defs>
</svg>
