<svg width="24" height="28" viewBox="0 0 24 28" fill="none" xmlns="http://www.w3.org/2000/svg">
<path d="M13.2266 27.4229C18.7219 26.805 23.126 22.3952 23.7528 16.8787C24.5754 9.66568 18.9905 3.52564 11.9899 3.44699V0.211251C11.9899 0.0314878 11.7661 -0.0640115 11.615 0.0483406L4.9781 4.94127C4.86618 5.02554 4.86618 5.18845 4.9781 5.27271L11.615 10.1656C11.7661 10.278 11.9899 10.1769 11.9899 10.0027V6.77261C16.9088 6.85126 20.8484 11.0532 20.5127 16.0754C20.2273 20.3953 16.7186 23.9007 12.4152 24.176C7.85446 24.4681 3.97641 21.1986 3.28251 16.8731C3.1538 16.0697 2.45429 15.4855 1.64847 15.4855C0.64678 15.4855 -0.136663 16.3787 0.0200253 17.373C0.993733 23.5355 6.6625 28.1588 13.2266 27.4229Z" fill="#565656"/>
</svg>
