<svg width="23" height="24" viewBox="0 0 23 24" fill="none" xmlns="http://www.w3.org/2000/svg">
<path d="M15.4578 11.9998L21.8828 5.56784C22.4141 5.03651 22.7008 4.33738 22.7008 3.58932C22.7008 2.84125 22.4072 2.14213 21.8828 1.61079C21.3585 1.07946 20.6593 0.820778 19.9043 0.820778C19.1492 0.820778 18.4361 1.11441 17.9257 1.61778L11.5008 8.04275L5.07581 1.61778C3.98518 0.527146 2.2094 0.527146 1.11876 1.61778C0.594414 2.14213 0.300781 2.84824 0.300781 3.59631C0.300781 4.34437 0.594414 5.0435 1.11876 5.57484L7.54373 11.9998L1.11876 18.4248C0.587423 18.9561 0.300781 19.6552 0.300781 20.4033C0.300781 21.1514 0.594414 21.8505 1.11876 22.3818C2.2094 23.4725 3.98518 23.4725 5.07581 22.3818L11.5008 15.9569L17.9257 22.3818C18.4501 22.9062 19.1562 23.1998 19.9043 23.1998C20.6523 23.1998 21.3515 22.9062 21.8828 22.3818C22.4141 21.8575 22.7008 21.1514 22.7008 20.4033C22.7008 19.6552 22.4072 18.9561 21.8828 18.4248L15.4578 11.9998Z" fill="white"/>
</svg>
