<svg width="80" height="80" viewBox="0 0 80 80" fill="none" xmlns="http://www.w3.org/2000/svg">
<mask id="path-1-outside-1_301_68494" maskUnits="userSpaceOnUse" x="3.16406" y="3.16406" width="74" height="74" fill="black">
<rect fill="white" x="3.16406" y="3.16406" width="74" height="74"/>
<path fill-rule="evenodd" clip-rule="evenodd" d="M16.4001 6.25503C13.601 3.46707 9.06262 3.46707 6.26345 6.25503C3.46428 9.04299 3.46429 13.5632 6.26346 16.3511L30.0048 39.9974L6.26344 63.6437C3.46427 66.4316 3.46427 70.9518 6.26344 73.7398C9.06261 76.5277 13.601 76.5277 16.4001 73.7398L40.1415 50.0935L63.5942 73.4522C66.3934 76.2402 70.9317 76.2402 73.7309 73.4522C76.53 70.6643 76.53 66.1441 73.7309 63.3561L50.2782 39.9974L73.7309 16.6387C76.53 13.8507 76.53 9.33053 73.7309 6.54257C70.9317 3.75461 66.3933 3.75461 63.5942 6.54257L40.1415 29.9013L16.4001 6.25503Z"/>
</mask>
<g filter="url(#filter0_i_301_68494)">
<path fill-rule="evenodd" clip-rule="evenodd" d="M16.4001 6.25503C13.601 3.46707 9.06262 3.46707 6.26345 6.25503C3.46428 9.04299 3.46429 13.5632 6.26346 16.3511L30.0048 39.9974L6.26344 63.6437C3.46427 66.4316 3.46427 70.9518 6.26344 73.7398C9.06261 76.5277 13.601 76.5277 16.4001 73.7398L40.1415 50.0935L63.5942 73.4522C66.3934 76.2402 70.9317 76.2402 73.7309 73.4522C76.53 70.6643 76.53 66.1441 73.7309 63.3561L50.2782 39.9974L73.7309 16.6387C76.53 13.8507 76.53 9.33053 73.7309 6.54257C70.9317 3.75461 66.3933 3.75461 63.5942 6.54257L40.1415 29.9013L16.4001 6.25503Z" fill="#F65555"/>
</g>
<path d="M6.26345 6.25503L6.96914 6.96355L6.96914 6.96355L6.26345 6.25503ZM16.4001 6.25503L15.6944 6.96356L15.6944 6.96356L16.4001 6.25503ZM6.26346 16.3511L6.96914 15.6426L6.96914 15.6426L6.26346 16.3511ZM30.0048 39.9974L30.7105 40.7059L31.4219 39.9974L30.7105 39.2889L30.0048 39.9974ZM6.26344 63.6437L6.96913 64.3522L6.96913 64.3522L6.26344 63.6437ZM6.26344 73.7398L6.96912 73.0312L6.96912 73.0312L6.26344 73.7398ZM16.4001 73.7398L17.1058 74.4483L17.1058 74.4483L16.4001 73.7398ZM40.1415 50.0935L40.8472 49.385L40.1415 48.6821L39.4358 49.385L40.1415 50.0935ZM63.5942 73.4522L62.8885 74.1607L62.8885 74.1607L63.5942 73.4522ZM73.7309 73.4522L73.0252 72.7437L73.0252 72.7437L73.7309 73.4522ZM73.7309 63.3561L73.0252 64.0647L73.0252 64.0647L73.7309 63.3561ZM50.2782 39.9974L49.5725 39.2889L48.8611 39.9974L49.5725 40.7059L50.2782 39.9974ZM73.7309 16.6387L73.0252 15.9301L73.0252 15.9301L73.7309 16.6387ZM73.7309 6.54257L74.4366 5.83405L74.4366 5.83404L73.7309 6.54257ZM63.5942 6.54257L64.2999 7.2511L64.2999 7.2511L63.5942 6.54257ZM40.1415 29.9013L39.4358 30.6098L40.1415 31.3127L40.8472 30.6098L40.1415 29.9013ZM6.96914 6.96355C9.37811 4.56423 13.2855 4.56423 15.6944 6.96356L17.1058 5.54651C13.9165 2.36992 8.74713 2.36991 5.55776 5.54651L6.96914 6.96355ZM6.96914 15.6426C4.56239 13.2455 4.56239 9.36066 6.96914 6.96355L5.55776 5.54651C2.36618 8.72531 2.36618 13.8808 5.55777 17.0596L6.96914 15.6426ZM30.7105 39.2889L6.96914 15.6426L5.55777 17.0596L29.2991 40.7059L30.7105 39.2889ZM29.2991 39.2889L5.55776 62.9351L6.96913 64.3522L30.7105 40.7059L29.2991 39.2889ZM5.55776 62.9351C2.36617 66.1139 2.36616 71.2695 5.55775 74.4483L6.96912 73.0312C4.56237 70.6341 4.56238 66.7493 6.96913 64.3522L5.55776 62.9351ZM5.55775 74.4483C8.74712 77.6249 13.9164 77.6249 17.1058 74.4483L15.6944 73.0312C13.2855 75.4306 9.37809 75.4306 6.96912 73.0312L5.55775 74.4483ZM17.1058 74.4483L40.8472 50.802L39.4358 49.385L15.6944 73.0312L17.1058 74.4483ZM64.2999 72.7437L40.8472 49.385L39.4358 50.802L62.8885 74.1607L64.2999 72.7437ZM73.0252 72.7437C70.6162 75.143 66.7088 75.143 64.2999 72.7437L62.8885 74.1607C66.0779 77.3373 71.2472 77.3373 74.4366 74.1607L73.0252 72.7437ZM73.0252 64.0647C75.4319 66.4618 75.4319 70.3466 73.0252 72.7437L74.4366 74.1607C77.6282 70.9819 77.6281 65.8264 74.4366 62.6476L73.0252 64.0647ZM49.5725 40.7059L73.0252 64.0647L74.4366 62.6476L50.9839 39.2889L49.5725 40.7059ZM50.9839 40.7059L74.4365 17.3472L73.0252 15.9301L49.5725 39.2889L50.9839 40.7059ZM74.4365 17.3472C77.6281 14.1684 77.6281 9.01285 74.4366 5.83405L73.0252 7.25109C75.4319 9.6482 75.4319 13.533 73.0252 15.9301L74.4365 17.3472ZM74.4366 5.83404C71.2472 2.65745 66.0779 2.65746 62.8885 5.83405L64.2999 7.2511C66.7088 4.85177 70.6162 4.85177 73.0252 7.25109L74.4366 5.83404ZM62.8885 5.83405L39.4358 29.1928L40.8472 30.6098L64.2999 7.2511L62.8885 5.83405ZM15.6944 6.96356L39.4358 30.6098L40.8472 29.1928L17.1058 5.54651L15.6944 6.96356Z" fill="#F65555" mask="url(#path-1-outside-1_301_68494)"/>
<defs>
<filter id="filter0_i_301_68494" x="3.16406" y="3.16406" width="74.6641" height="74.6641" filterUnits="userSpaceOnUse" color-interpolation-filters="sRGB">
<feFlood flood-opacity="0" result="BackgroundImageFix"/>
<feBlend mode="normal" in="SourceGraphic" in2="BackgroundImageFix" result="shape"/>
<feColorMatrix in="SourceAlpha" type="matrix" values="0 0 0 0 0 0 0 0 0 0 0 0 0 0 0 0 0 0 127 0" result="hardAlpha"/>
<feOffset dx="1" dy="1"/>
<feGaussianBlur stdDeviation="1.5"/>
<feComposite in2="hardAlpha" operator="arithmetic" k2="-1" k3="1"/>
<feColorMatrix type="matrix" values="0 0 0 0 0 0 0 0 0 0 0 0 0 0 0 0 0 0 0.2 0"/>
<feBlend mode="normal" in2="shape" result="effect1_innerShadow_301_68494"/>
</filter>
</defs>
</svg>
