<svg width="68" height="60" viewBox="0 0 68 60" fill="none" xmlns="http://www.w3.org/2000/svg">
<g filter="url(#filter0_d_309_68884)">
<path fill-rule="evenodd" clip-rule="evenodd" d="M46.2429 38.6716C48.6073 35.387 50 31.3561 50 27C50 15.9543 41.0457 7 30 7C18.9543 7 10 15.9543 10 27C10 38.0457 18.9543 47 30 47C30.3354 47 30.6689 46.9917 31.0002 46.9754L31 47L58 47L46.2429 38.6716Z" fill="#F65555"/>
</g>
<g filter="url(#filter1_d_309_68884)">
<path d="M15.832 24.2812H20.168V36H23.0781V24.2812H27.4141V21.8594H15.832V24.2812ZM32.1602 21.8594H29.2305V36H32.1602V21.8594ZM34.543 36H37.4727V31.3906H40.0117C43.2734 31.3906 45.1484 29.4473 45.1484 26.625C45.1484 23.8418 43.3027 21.8594 40.0898 21.8594H34.543V36ZM37.4727 29.0273V24.2617H39.543C41.2812 24.2715 42.1309 25.2188 42.1211 26.625C42.1309 28.0508 41.2812 29.0273 39.543 29.0273H37.4727Z" fill="white"/>
</g>
<defs>
<filter id="filter0_d_309_68884" x="0" y="0" width="68" height="60" filterUnits="userSpaceOnUse" color-interpolation-filters="sRGB">
<feFlood flood-opacity="0" result="BackgroundImageFix"/>
<feColorMatrix in="SourceAlpha" type="matrix" values="0 0 0 0 0 0 0 0 0 0 0 0 0 0 0 0 0 0 127 0" result="hardAlpha"/>
<feOffset dy="3"/>
<feGaussianBlur stdDeviation="5"/>
<feComposite in2="hardAlpha" operator="out"/>
<feColorMatrix type="matrix" values="0 0 0 0 0 0 0 0 0 0 0 0 0 0 0 0 0 0 0.12 0"/>
<feBlend mode="normal" in2="BackgroundImageFix" result="effect1_dropShadow_309_68884"/>
<feBlend mode="normal" in="SourceGraphic" in2="effect1_dropShadow_309_68884" result="shape"/>
</filter>
<filter id="filter1_d_309_68884" x="12.8281" y="20.8594" width="37.3203" height="22.1406" filterUnits="userSpaceOnUse" color-interpolation-filters="sRGB">
<feFlood flood-opacity="0" result="BackgroundImageFix"/>
<feColorMatrix in="SourceAlpha" type="matrix" values="0 0 0 0 0 0 0 0 0 0 0 0 0 0 0 0 0 0 127 0" result="hardAlpha"/>
<feOffset dx="1" dy="3"/>
<feGaussianBlur stdDeviation="2"/>
<feComposite in2="hardAlpha" operator="out"/>
<feColorMatrix type="matrix" values="0 0 0 0 0 0 0 0 0 0 0 0 0 0 0 0 0 0 0.25 0"/>
<feBlend mode="normal" in2="BackgroundImageFix" result="effect1_dropShadow_309_68884"/>
<feBlend mode="normal" in="SourceGraphic" in2="effect1_dropShadow_309_68884" result="shape"/>
</filter>
</defs>
</svg>
