<svg width="92" height="84" viewBox="0 0 92 84" fill="none" xmlns="http://www.w3.org/2000/svg">
<g filter="url(#filter0_d_134_14529)">
<path fill-rule="evenodd" clip-rule="evenodd" d="M66.7981 59.2267C71.2999 53.714 74 46.6723 74 39C74 21.3269 59.6731 7 42 7C24.3269 7 10 21.3269 10 39C10 56.6731 24.3269 71 42 71C42.3346 71 42.668 70.9949 43.0001 70.9847L43 71L82 71L66.7981 59.2267Z" fill="#F5BE54"/>
</g>
<path d="M40.1995 44.2273H44.9722L47.7989 47.892L49.816 50.2784L54.6597 56.5H49.5461L46.2506 52.3239L44.8444 50.3352L40.1995 44.2273ZM55.3558 39.4545C55.3558 42.589 54.7686 45.2737 53.5944 47.5085C52.4296 49.7339 50.8387 51.4384 48.8217 52.6221C46.8141 53.8059 44.5366 54.3977 41.9893 54.3977C39.4419 54.3977 37.1597 53.8059 35.1427 52.6221C33.1351 51.429 31.5442 49.7197 30.37 47.4943C29.2052 45.2595 28.6228 42.5795 28.6228 39.4545C28.6228 36.3201 29.2052 33.6401 30.37 31.4148C31.5442 29.1799 33.1351 27.4706 35.1427 26.2869C37.1597 25.1032 39.4419 24.5114 41.9893 24.5114C44.5366 24.5114 46.8141 25.1032 48.8217 26.2869C50.8387 27.4706 52.4296 29.1799 53.5944 31.4148C54.7686 33.6401 55.3558 36.3201 55.3558 39.4545ZM50.0575 39.4545C50.0575 37.2481 49.7118 35.3873 49.0205 33.8721C48.3387 32.3475 47.3917 31.197 46.1796 30.4204C44.9675 29.6345 43.5707 29.2415 41.9893 29.2415C40.4078 29.2415 39.0111 29.6345 37.7989 30.4204C36.5868 31.197 35.6351 32.3475 34.9438 33.8721C34.262 35.3873 33.9211 37.2481 33.9211 39.4545C33.9211 41.661 34.262 43.5265 34.9438 45.0511C35.6351 46.5663 36.5868 47.7168 37.7989 48.5028C39.0111 49.2793 40.4078 49.6676 41.9893 49.6676C43.5707 49.6676 44.9675 49.2793 46.1796 48.5028C47.3917 47.7168 48.3387 46.5663 49.0205 45.0511C49.7118 43.5265 50.0575 41.661 50.0575 39.4545Z" fill="white"/>
<defs>
<filter id="filter0_d_134_14529" x="0" y="0" width="92" height="84" filterUnits="userSpaceOnUse" color-interpolation-filters="sRGB">
<feFlood flood-opacity="0" result="BackgroundImageFix"/>
<feColorMatrix in="SourceAlpha" type="matrix" values="0 0 0 0 0 0 0 0 0 0 0 0 0 0 0 0 0 0 127 0" result="hardAlpha"/>
<feOffset dy="3"/>
<feGaussianBlur stdDeviation="5"/>
<feComposite in2="hardAlpha" operator="out"/>
<feColorMatrix type="matrix" values="0 0 0 0 0 0 0 0 0 0 0 0 0 0 0 0 0 0 0.12 0"/>
<feBlend mode="normal" in2="BackgroundImageFix" result="effect1_dropShadow_134_14529"/>
<feBlend mode="normal" in="SourceGraphic" in2="effect1_dropShadow_134_14529" result="shape"/>
</filter>
</defs>
</svg>
