<svg width="92" height="84" viewBox="0 0 92 84" fill="none" xmlns="http://www.w3.org/2000/svg">
<g filter="url(#filter0_d_2097_56438)">
<path fill-rule="evenodd" clip-rule="evenodd" d="M66.7981 59.2267C71.2999 53.714 74 46.6723 74 39C74 21.3269 59.6731 7 42 7C24.3269 7 10 21.3269 10 39C10 56.6731 24.3269 71 42 71C42.3346 71 42.668 70.9949 43.0001 70.9847L43 71L82 71L66.7981 59.2267Z" fill="#F5BE54"/>
</g>
<g filter="url(#filter1_d_2097_56438)">
<path fill-rule="evenodd" clip-rule="evenodd" d="M26.1582 54.1576V31.4614H29.922V54.1576H26.1582ZM26.8677 26.261C26.7 26.0677 26.5367 25.8794 26.3796 25.6979L29.1313 23.8418C30.6811 25.4699 32.9267 27.847 34.002 29.2798L31.0922 31.4289C30.1827 30.0829 28.3538 27.9743 26.8677 26.261ZM34.7611 28.8564V25.242H49.3102H51.9669H53.1056V49.5011C53.1056 51.6503 52.6628 52.6923 51.4293 53.3435C50.1641 53.9622 48.2981 54.0273 45.6096 54.0273C45.4831 52.9202 44.9138 51.1944 44.4394 50.1524C45.8415 50.2656 47.5064 50.2558 48.271 50.2513C48.3861 50.2506 48.4808 50.2501 48.5511 50.2501C49.1204 50.2501 49.3102 50.0221 49.3102 49.4686V28.8564H34.7611ZM41.7826 37.1273H36.9435V42.5979H41.7826V37.1273ZM36.9435 46.0821H45.4515V33.6431H36.9435H35.4253H33.5276V47.9056H36.9435V46.0821ZM59.8424 54.1576C61.7027 54.1576 63.2108 52.6495 63.2108 50.7892C63.2108 48.9288 61.7027 47.4207 59.8424 47.4207C57.9821 47.4207 56.474 48.9288 56.474 50.7892C56.474 52.6495 57.9821 54.1576 59.8424 54.1576Z" fill="white"/>
</g>
<defs>
<filter id="filter0_d_2097_56438" x="0" y="0" width="92" height="84" filterUnits="userSpaceOnUse" color-interpolation-filters="sRGB">
<feFlood flood-opacity="0" result="BackgroundImageFix"/>
<feColorMatrix in="SourceAlpha" type="matrix" values="0 0 0 0 0 0 0 0 0 0 0 0 0 0 0 0 0 0 127 0" result="hardAlpha"/>
<feOffset dy="3"/>
<feGaussianBlur stdDeviation="5"/>
<feComposite in2="hardAlpha" operator="out"/>
<feColorMatrix type="matrix" values="0 0 0 0 0 0 0 0 0 0 0 0 0 0 0 0 0 0 0.12 0"/>
<feBlend mode="normal" in2="BackgroundImageFix" result="effect1_dropShadow_2097_56438"/>
<feBlend mode="normal" in="SourceGraphic" in2="effect1_dropShadow_2097_56438" result="shape"/>
</filter>
<filter id="filter1_d_2097_56438" x="23.1582" y="22.8418" width="45.0527" height="38.3154" filterUnits="userSpaceOnUse" color-interpolation-filters="sRGB">
<feFlood flood-opacity="0" result="BackgroundImageFix"/>
<feColorMatrix in="SourceAlpha" type="matrix" values="0 0 0 0 0 0 0 0 0 0 0 0 0 0 0 0 0 0 127 0" result="hardAlpha"/>
<feOffset dx="1" dy="3"/>
<feGaussianBlur stdDeviation="2"/>
<feComposite in2="hardAlpha" operator="out"/>
<feColorMatrix type="matrix" values="0 0 0 0 0 0 0 0 0 0 0 0 0 0 0 0 0 0 0.25 0"/>
<feBlend mode="normal" in2="BackgroundImageFix" result="effect1_dropShadow_2097_56438"/>
<feBlend mode="normal" in="SourceGraphic" in2="effect1_dropShadow_2097_56438" result="shape"/>
</filter>
</defs>
</svg>
