<svg width="185" height="130" viewBox="0 0 185 130" fill="none" xmlns="http://www.w3.org/2000/svg">
<path d="M139.896 12.3172C136.148 12.3172 132.523 12.7759 129.053 13.6321C119.275 5.5439 106.689 0.666504 92.9473 0.666504C79.2051 0.666504 66.45 5.60506 56.6408 13.8003C52.9701 12.8371 49.1143 12.3172 45.135 12.3172C20.4886 12.3172 0.5 32.1326 0.5 56.5655C0.5 80.9983 20.4886 100.814 45.135 100.814C49.1143 100.814 52.9701 100.294 56.6408 99.3306C59.7409 101.93 63.134 104.193 66.7585 106.073V122.907C66.7585 126.531 69.7198 129.451 73.3597 129.451H73.807C77.4623 129.451 80.4081 126.516 80.4081 122.907V111.058C84.4336 111.96 88.6288 112.464 92.9319 112.464C97.235 112.464 101.106 112.006 104.993 111.165V122.877C104.993 126.5 107.954 129.421 111.594 129.421H112.041C115.697 129.421 118.642 126.485 118.642 122.877V106.303C122.36 104.407 125.845 102.129 129.022 99.4835C132.493 100.34 136.133 100.798 139.865 100.798C164.511 100.798 184.5 80.983 184.5 56.5502C184.5 32.1173 164.511 12.3019 139.865 12.3019L139.896 12.3172Z" fill="#A6C4E3"/>
<path d="M128.699 43.4469C132.804 43.4469 136.133 40.1474 136.133 36.0773C136.133 32.0072 132.804 28.7077 128.699 28.7077C124.593 28.7077 121.264 32.0072 121.264 36.0773C121.264 40.1474 124.593 43.4469 128.699 43.4469Z" fill="white"/>
<path d="M56.5637 43.5693C60.6694 43.5693 63.9977 40.2698 63.9977 36.1996C63.9977 32.1295 60.6694 28.83 56.5637 28.83C52.458 28.83 49.1297 32.1295 49.1297 36.1996C49.1297 40.2698 52.458 43.5693 56.5637 43.5693Z" fill="white"/>
<path d="M92.7776 49.1194C104.686 49.1194 114.339 45.7651 114.339 41.6275C114.339 37.4898 104.686 34.1355 92.7776 34.1355C80.8694 34.1355 71.2158 37.4898 71.2158 41.6275C71.2158 45.7651 80.8694 49.1194 92.7776 49.1194Z" fill="#FFEB55"/>
<path d="M79.8837 28.8453C82.0133 28.8453 83.7396 27.134 83.7396 25.0229C83.7396 22.9119 82.0133 21.2005 79.8837 21.2005C77.7542 21.2005 76.0279 22.9119 76.0279 25.0229C76.0279 27.134 77.7542 28.8453 79.8837 28.8453Z" fill="#1A1A1A"/>
<path d="M105.116 28.8453C107.246 28.8453 108.972 27.134 108.972 25.0229C108.972 22.9119 107.246 21.2005 105.116 21.2005C102.987 21.2005 101.26 22.9119 101.26 25.0229C101.26 27.134 102.987 28.8453 105.116 28.8453Z" fill="#1A1A1A"/>
<path d="M105.055 117.571V122.923C105.055 126.546 108.016 129.466 111.656 129.466H112.103C115.758 129.466 118.704 126.531 118.704 122.923V117.571H105.039H105.055Z" fill="#1A1A1A"/>
<path d="M66.7894 122.923C66.7894 126.546 69.7506 129.466 73.3905 129.466H73.8378C77.4931 129.466 80.439 126.531 80.439 122.923V117.571H66.7739V122.923H66.7894Z" fill="#1A1A1A"/>
<path d="M105.286 40.389C104.931 39.5481 103.975 39.1505 103.111 39.4869C103.065 39.5022 98.0987 41.4899 93.0398 41.4899C87.4566 41.4899 82.7679 39.5175 82.7216 39.4869C81.8733 39.12 80.9017 39.5022 80.5315 40.3431C80.1614 41.1841 80.5469 42.1473 81.3952 42.5143C81.6112 42.606 86.7317 44.7771 93.0398 44.7771C98.7773 44.7771 104.145 42.6213 104.376 42.5143C105.224 42.1626 105.625 41.1994 105.286 40.3584V40.389Z" fill="#1A1A1A"/>
</svg>
