<svg width="48" height="48" viewBox="0 0 48 48" fill="none" xmlns="http://www.w3.org/2000/svg">
<mask id="mask0_743_64962" style="mask-type:luminance" maskUnits="userSpaceOnUse" x="0" y="0" width="48" height="48">
<path d="M48 0H0V48H48V0Z" fill="white"/>
</mask>
<g mask="url(#mask0_743_64962)">
<path d="M36.5975 11.4175C35.8175 10.6375 34.5575 10.6375 33.7775 11.4175L23.9975 21.1775L14.2175 11.3975C13.4375 10.6175 12.1775 10.6175 11.3975 11.3975C10.6175 12.1775 10.6175 13.4375 11.3975 14.2175L21.1775 23.9975L11.3975 33.7775C10.6175 34.5575 10.6175 35.8175 11.3975 36.5975C12.1775 37.3775 13.4375 37.3775 14.2175 36.5975L23.9975 26.8175L33.7775 36.5975C34.5575 37.3775 35.8175 37.3775 36.5975 36.5975C37.3775 35.8175 37.3775 34.5575 36.5975 33.7775L26.8175 23.9975L36.5975 14.2175C37.3575 13.4575 37.3575 12.1775 36.5975 11.4175Z" fill="white"/>
</g>
</svg>
