<svg width="255" height="265" viewBox="0 0 255 265" fill="none" xmlns="http://www.w3.org/2000/svg">
<path d="M127.5 2.375C197.916 2.375 255 59.5878 255 130.162C255 200.736 197.916 257.948 127.5 257.948C57.0844 257.948 0 200.736 0 130.162C0 59.5878 57.0844 2.375 127.5 2.375Z" fill="url(#paint0_linear_338_66482)"/>
<mask id="mask0_338_66482" style="mask-type:luminance" maskUnits="userSpaceOnUse" x="0" y="0" width="255" height="258">
<path d="M255 130.164C255 161.677 243.626 190.503 224.756 212.78C222.502 215.454 220.13 218.034 217.651 220.518C194.583 243.651 162.702 257.951 127.5 257.951C92.2981 257.951 60.4172 243.651 37.3486 220.518C34.8698 218.034 32.4977 215.454 30.2442 212.78C11.3742 190.503 0 161.677 0 130.164C0 98.6514 11.3742 69.8251 30.2442 47.5486V17.7475H47.9281V0H224.756V47.5486C243.626 69.8251 255 98.6514 255 130.164Z" fill="white"/>
</mask>
<g mask="url(#mask0_338_66482)">
<path d="M30.25 9.42188H209.116V257.946H30.25V9.42188Z" fill="#9DA1BF"/>
<path d="M48.1406 0H227.007V265H48.1406V0Z" fill="#E2E7F6"/>
<path d="M227.007 240.203C179.57 240.203 134.077 221.505 100.532 188.209C66.9882 154.913 48.1406 109.766 48.1406 62.6928V0H227.007V240.203Z" fill="#F2F2F2"/>
<path d="M67.5 176H94.3258V202.627H67.5V176Z" fill="#6EB1B6"/>
<path d="M67.5 50H94.3258V76.6272H67.5V50Z" fill="#6EB1B6"/>
<path d="M116.578 50H206.017V58.8797H116.578V50Z" fill="#686868"/>
<path d="M116.578 67.7578H206.017V76.6375H116.578V67.7578Z" fill="#686868"/>
<path d="M67.5 113H94.3258V139.627H67.5V113Z" fill="#6EB1B6"/>
<path d="M116.578 113.016H206.017V121.895H116.578V113.016Z" fill="#686868"/>
<path d="M116.578 130.891H206.017V139.77H116.578V130.891Z" fill="#686868"/>
<path d="M116.578 177H192.592V185.88H116.578V177Z" fill="#686868"/>
<path d="M116.578 194.75H192.592V203.63H116.578V194.75Z" fill="#686868"/>
</g>
<defs>
<linearGradient id="paint0_linear_338_66482" x1="127.5" y1="2.375" x2="127.5" y2="257.949" gradientUnits="userSpaceOnUse">
<stop stop-color="#EAF5F3"/>
<stop offset="1" stop-color="#6EB1B6"/>
</linearGradient>
</defs>
</svg>
