<svg width="80" height="80" viewBox="0 0 80 80" fill="none" xmlns="http://www.w3.org/2000/svg">
<g clip-path="url(#clip0_1051_68658)">
<path d="M60 1.5H20C9.78273 1.5 1.5 9.78273 1.5 20V60C1.5 70.2173 9.78273 78.5 20 78.5H60C70.2173 78.5 78.5 70.2173 78.5 60V20C78.5 9.78273 70.2173 1.5 60 1.5Z" fill="white" stroke="#505666" stroke-width="3"/>
<path d="M29.0333 50.9828H54.9896C55.9472 50.9828 56.7202 50.1232 56.7202 49.0582V20.831C56.7202 19.766 55.9472 18.9062 54.9896 18.9062H29.0333C25.8495 18.9062 23.2656 21.7802 23.2656 25.3212V53.5491C23.2656 57.0902 25.8495 59.9641 29.0333 59.9641H54.9896C55.9472 59.9641 56.7202 59.1044 56.7202 58.0394C56.7202 56.9743 55.9472 56.1147 54.9896 56.1147H29.0333C27.7647 56.1147 26.7259 54.9602 26.7259 53.5484C26.7259 52.1366 27.7639 50.9828 29.0333 50.9828Z" fill="#505666"/>
<path d="M32.2734 29.6102C32.1354 29.6102 32.0234 29.7221 32.0234 29.8602V39.3238C32.0234 39.4618 32.1354 39.5738 32.2734 39.5738H33.8684C34.0064 39.5738 34.1184 39.4618 34.1184 39.3238V38.4531H39.5118V45.9233C39.5118 46.0614 39.6237 46.1733 39.7618 46.1733H41.4345C41.5726 46.1733 41.6845 46.0614 41.6845 45.9233V38.4531H47.1558V39.3238C47.1558 39.4618 47.2677 39.5738 47.4058 39.5738H49.0007C49.1388 39.5738 49.2507 39.4618 49.2507 39.3238V29.8602C49.2507 29.7221 49.1388 29.6102 49.0007 29.6102H41.6845V25.3359C41.6845 25.1979 41.5726 25.0859 41.4345 25.0859H39.7618C39.6237 25.0859 39.5118 25.1979 39.5118 25.3359V29.6102H32.2734ZM41.6845 36.4173V31.6459H47.1558V36.4173H41.6845ZM39.5118 31.6459V36.4173H34.1184V31.6459H39.5118Z" fill="white" stroke="white" stroke-width="0.5" stroke-linejoin="round"/>
<path d="M36.4772 62.5377L37.75 63.7752V62V54V53.25H37H31H30.25V54V62V63.7752L31.5228 62.5377L34 60.1294L36.4772 62.5377Z" fill="#505666" stroke="white" stroke-width="1.5"/>
</g>
<defs>
<clipPath id="clip0_1051_68658">
<rect width="80" height="80" fill="white"/>
</clipPath>
</defs>
</svg>
