<svg width="80" height="80" viewBox="0 0 80 80" fill="none" xmlns="http://www.w3.org/2000/svg">
<g clip-path="url(#clip0_1055_65326)">
<path d="M60 1.5H20C9.78273 1.5 1.5 9.78273 1.5 20V60C1.5 70.2173 9.78273 78.5 20 78.5H60C70.2173 78.5 78.5 70.2173 78.5 60V20C78.5 9.78273 70.2173 1.5 60 1.5Z" fill="white" stroke="#DB5353" stroke-width="3"/>
<path d="M34.0156 26.7381C34.0342 23 36.8931 19.9904 40.4225 20C43.924 20.0096 46.7643 23.0192 46.7736 26.7381V36.9554C46.7643 40.6935 43.8961 43.7031 40.376 43.6935C36.8745 43.6839 34.0342 40.6743 34.0249 36.9554V26.7381H34.0156Z" fill="#DB5353"/>
<path d="M41.694 51.1455V57.3787H47.1526C47.8725 57.3787 48.4557 57.9802 48.4557 58.7183C48.4557 59.4565 47.8725 60.0579 47.1526 60.0579H33.629C32.9091 60.0579 32.3259 59.4565 32.3259 58.7183C32.3259 57.9802 32.9091 57.3787 33.629 57.3787H39.0877V51.1455C32.089 50.4347 27.651 44.3747 27.6328 37.1208C27.6328 36.3826 28.216 35.7812 28.9359 35.7812C29.6558 35.7812 30.2391 36.3826 30.2391 37.1208C30.2391 43.4087 34.2943 48.5301 40.3999 48.5301C46.5056 48.5301 50.5608 43.4087 50.5608 37.1208C50.5608 36.3826 51.144 35.7812 51.8639 35.7812C52.5839 35.7812 53.1671 36.3826 53.1671 37.1208C53.1489 44.3747 48.7109 50.4347 41.7122 51.1455H41.694Z" fill="#DB5353"/>
</g>
<defs>
<clipPath id="clip0_1055_65326">
<rect width="80" height="80" fill="white"/>
</clipPath>
</defs>
</svg>
