<svg width="32" height="16" viewBox="0 0 32 16" fill="none" xmlns="http://www.w3.org/2000/svg">
<path d="M1 7L-1.74845e-07 7L1.74846e-07 9L1 9L1 7ZM31.7071 8.7071C32.0976 8.31658 32.0976 7.68341 31.7071 7.29289L25.3431 0.928931C24.9526 0.538406 24.3195 0.538406 23.9289 0.928931C23.5384 1.31946 23.5384 1.95262 23.9289 2.34314L29.5858 8L23.9289 13.6569C23.5384 14.0474 23.5384 14.6805 23.9289 15.0711C24.3195 15.4616 24.9526 15.4616 25.3431 15.0711L31.7071 8.7071ZM1 9L31 9L31 7L1 7L1 9Z" fill="white"/>
</svg>
