<svg width="29" height="28" viewBox="0 0 29 28" fill="none" xmlns="http://www.w3.org/2000/svg">
<path fill-rule="evenodd" clip-rule="evenodd" d="M6.24356 2.19278C5.26385 1.21699 3.67543 1.21699 2.69572 2.19278C1.71601 3.16856 1.71601 4.75062 2.69572 5.72641L11.0052 14.0026L2.69572 22.2788C1.71601 23.2546 1.71601 24.8366 2.69572 25.8124C3.67543 26.7882 5.26385 26.7882 6.24356 25.8124L14.553 17.5362L22.7615 25.7118C23.7412 26.6876 25.3296 26.6876 26.3093 25.7118C27.289 24.736 27.289 23.1539 26.3093 22.1782L18.1009 14.0026L26.3093 5.82704C27.289 4.85126 27.289 3.2692 26.3093 2.29342C25.3296 1.31763 23.7412 1.31763 22.7615 2.29342L14.553 10.469L6.24356 2.19278Z" fill="#FF6868"/>
</svg>
