<svg width="33" height="47" viewBox="0 0 33 47" fill="none" xmlns="http://www.w3.org/2000/svg">
<path d="M27.1374 23.1514L27.2069 23.4439L27.4498 23.2668C27.9216 22.9228 28.4921 22.7213 29.1068 22.7213C30.7043 22.7213 32.0191 24.0858 32.0191 25.7824V35.2359C32.0191 41.1033 27.4768 45.8599 21.9133 45.8599C19.1007 45.8599 16.3933 44.614 14.4832 42.4363L14.4833 42.4362L14.4774 42.4299L3.86666 31.3332C3.19881 30.634 3.19623 29.4899 3.86073 28.7881L3.86078 28.788C4.63626 27.9684 5.67836 27.5168 6.77631 27.5138C7.86559 27.5138 8.89091 27.9557 9.66758 28.7629L9.6675 28.763L9.67221 28.7676L11.4688 30.5161L11.8083 30.8465V30.3728V13.808C11.8083 12.1115 13.1245 10.7469 14.7213 10.7469C16.3181 10.7469 17.6337 12.1114 17.6337 13.808V19.8891V20.266L17.9458 20.0548C18.3995 19.7476 18.9388 19.5692 19.5162 19.5692C20.7068 19.5692 21.7398 20.3264 22.1896 21.4171L22.2935 21.6691L22.5027 21.4943C23.0006 21.0784 23.629 20.83 24.3111 20.83C25.6684 20.83 26.8199 21.8138 27.1374 23.1514Z" fill="#222222" stroke="#222222" stroke-width="0.4"/>
<path d="M15.5655 41.5663L15.5657 41.5661L15.5594 41.5595L4.92488 30.4367C4.92481 30.4366 4.92473 30.4365 4.92465 30.4365C4.80254 30.308 4.80218 30.0957 4.92368 29.9676L4.92387 29.9674C5.4294 29.4331 6.10632 29.1396 6.81768 29.1381C7.52608 29.1381 8.19467 29.4271 8.70123 29.9576L8.70113 29.9577L8.70633 29.9627L11.7345 32.912L11.7345 32.9121C12.0001 33.1706 12.3917 33.2421 12.7288 33.0919L12.7292 33.0917C13.065 32.9412 13.2787 32.6014 13.2787 32.23V13.9527C13.2787 13.0703 13.9549 12.3719 14.7613 12.3719C15.5676 12.3719 16.2438 13.0703 16.2438 13.9527V25.2967C16.2438 25.8095 16.6472 26.2369 17.1591 26.2369C17.671 26.2369 18.0743 25.8095 18.0743 25.2967V22.7758C18.0743 21.8933 18.7505 21.1949 19.5569 21.1949C20.3632 21.1949 21.0394 21.8933 21.0394 22.7758V26.5568C21.0394 27.0696 21.4428 27.497 21.9547 27.497C22.4666 27.497 22.87 27.0696 22.87 26.5568V24.0359C22.87 23.1534 23.5455 22.455 24.3525 22.455C25.1595 22.455 25.8351 23.1534 25.8351 24.0359V27.817C25.8351 28.3297 26.2384 28.7571 26.7503 28.7571C27.2622 28.7571 27.6656 28.3297 27.6656 27.817V25.9264C27.6656 25.0439 28.3411 24.3456 29.1481 24.3456C29.9552 24.3456 30.6307 25.0439 30.6307 25.9264V29.0778V35.3806C30.6307 40.4324 26.7291 44.5244 21.9547 44.5244C19.5353 44.5244 17.2063 43.4478 15.5655 41.5663Z" fill="white" stroke="#222222" stroke-width="0.4"/>
<path d="M13.4112 8.125C14.2674 7.89557 14.7754 7.01573 14.5455 6.16034L13.3708 1.7763C13.1414 0.920048 12.2615 0.41207 11.4061 0.642004C10.5507 0.871939 10.0419 1.75128 10.2718 2.60667L11.4465 6.9907C11.5611 7.41815 11.8384 7.76011 12.1937 7.9652C12.5489 8.1703 12.9832 8.2404 13.4112 8.125Z" fill="#768AF4"/>
<path d="M9.78671 12.1357C10.23 11.3679 9.96716 10.387 9.19936 9.94371L5.03031 7.53671C4.26251 7.09342 3.28158 7.35626 2.83829 8.12406C2.395 8.89186 2.65784 9.87279 3.42564 10.3161L7.59469 12.7231C8.36249 13.1664 9.34342 12.9035 9.78671 12.1357Z" fill="#768AF4"/>
<path d="M2.6089 20.4186L6.99293 19.2439C7.84919 19.0145 8.35717 18.1347 8.12723 17.2793C7.8973 16.4239 7.01796 15.915 6.16257 16.145L1.77853 17.3197C0.922276 17.5491 0.414299 18.4289 0.644233 19.2843C0.758767 19.7118 1.03614 20.0537 1.39138 20.2588C1.74662 20.4639 2.18095 20.534 2.6089 20.4186Z" fill="#768AF4"/>
<path d="M24.523 14.5436L28.907 13.3689C29.7633 13.1395 30.2712 12.2597 30.0413 11.4043C29.8114 10.5489 28.932 10.04 28.0766 10.27L23.6926 11.4447C22.8363 11.6741 22.3284 12.5539 22.5583 13.4093C22.6728 13.8368 22.9502 14.1787 23.3054 14.3838C23.6607 14.5889 24.095 14.659 24.523 14.5436Z" fill="#768AF4"/>
<path d="M20.7419 9.19465L23.1489 5.0256C23.5922 4.2578 23.3294 3.27687 22.5616 2.83358C21.7938 2.39029 20.8128 2.65313 20.3695 3.42093L17.9625 7.58998C17.5192 8.35778 17.7821 9.33871 18.5499 9.782C19.3177 10.2253 20.2986 9.96245 20.7419 9.19465Z" fill="#768AF4"/>
</svg>
