<svg width="18" height="12" viewBox="0 0 18 12" fill="none" xmlns="http://www.w3.org/2000/svg">
<path d="M16.583 0.671242C16.259 0.337729 15.7953 0.148438 15.3137 0.148438C14.8321 0.148438 14.3684 0.337729 14.0443 0.671242L7.423 7.44967L3.95704 3.89821C3.61944 3.55117 3.16932 3.36188 2.68768 3.36188C2.20605 3.36188 1.75593 3.55117 1.41833 3.89821C0.725139 4.6058 0.725139 5.75957 1.41833 6.46716L6.15365 11.3166C6.49124 11.6637 6.94137 11.8529 7.423 11.8529C7.90463 11.8529 8.35476 11.6637 8.69235 11.3166L16.583 3.24019C17.2762 2.53261 17.2762 1.37883 16.583 0.671242Z" fill="white"/>
</svg>
