<svg width="80" height="80" viewBox="0 0 80 80" fill="none" xmlns="http://www.w3.org/2000/svg">
<g clip-path="url(#clip0_1055_65320)">
<path d="M60 1.5H20C9.78273 1.5 1.5 9.78273 1.5 20V60C1.5 70.2173 9.78273 78.5 20 78.5H60C70.2173 78.5 78.5 70.2173 78.5 60V20C78.5 9.78273 70.2173 1.5 60 1.5Z" fill="white" stroke="#DBDBDB" stroke-width="3"/>
<path d="M41.4278 63.1416C50.4829 62.0957 57.74 54.6318 58.7728 45.2948C60.1283 33.0863 50.9256 22.6939 39.3899 22.5608V17.0841C39.3899 16.7799 39.021 16.6182 38.7721 16.8084L27.8358 25.09C27.6513 25.2326 27.6513 25.5083 27.8358 25.651L38.7721 33.9326C39.021 34.1227 39.3899 33.9516 39.3899 33.6568V28.1896C47.4953 28.3227 53.987 35.4348 53.4337 43.9351C52.9634 51.2469 47.1818 57.18 40.0907 57.6459C32.5754 58.1403 26.1852 52.6065 25.0418 45.2853C24.8297 43.9256 23.677 42.9368 22.3492 42.9368C20.6986 42.9368 19.4076 44.4486 19.6658 46.1315C21.2703 56.5619 30.6113 64.3871 41.4278 63.1416Z" fill="#565656"/>
</g>
<defs>
<clipPath id="clip0_1055_65320">
<rect width="80" height="80" fill="white"/>
</clipPath>
</defs>
</svg>
