<svg width="20" height="21" viewBox="0 0 20 21" fill="none" xmlns="http://www.w3.org/2000/svg">
<g clip-path="url(#clip0_338_67385)">
<path d="M9.9668 18.8331H2.4918C2.0332 18.8331 1.66133 18.4596 1.66133 17.9999V3.0001C1.66133 2.53998 2.03359 2.16686 2.4918 2.16686H9.9668C10.4262 2.16686 10.7973 1.79453 10.7973 1.33363C10.7973 0.872722 10.4262 0.5 9.9668 0.5H2.4918C1.11797 0.5 0 1.62169 0 3.0001V17.9999C0 19.3783 1.11797 20.5 2.4918 20.5H9.9668C10.4262 20.5 10.7973 20.1277 10.7973 19.6668C10.7973 19.2059 10.4262 18.8331 9.9668 18.8331Z" fill="white"/>
<path d="M19.7484 9.90375L14.6984 4.90394C14.373 4.5806 13.8461 4.58492 13.5238 4.91217C13.2016 5.23943 13.2047 5.76697 13.532 6.09031L17.141 9.6635H7.47109C7.01172 9.6635 6.64062 10.0358 6.64062 10.4967C6.64062 10.9576 7.01172 11.33 7.47109 11.33H17.1414L13.5324 14.9032C13.2051 15.2265 13.2027 15.754 13.5242 16.0817C13.6871 16.2467 13.9012 16.3302 14.1156 16.3302C14.3301 16.3302 14.5375 16.2502 14.6988 16.0903L19.7488 11.0905C19.9066 10.9337 19.9965 10.7205 19.9965 10.4971C19.9965 10.2737 19.9078 10.0613 19.7488 9.90375H19.7484Z" fill="white"/>
</g>
<defs>
<clipPath id="clip0_338_67385">
<rect width="20" height="20" fill="white" transform="translate(0 0.5)"/>
</clipPath>
</defs>
</svg>
