<svg width="18" height="23" viewBox="0 0 18 23" fill="none" xmlns="http://www.w3.org/2000/svg">
<path d="M9.98935 22.4383C14.1396 21.944 17.4658 18.4161 17.9391 14.0029C18.5604 8.23254 14.3425 3.32051 9.05532 3.25759V0.669001C9.05532 0.52519 8.88627 0.448791 8.77215 0.538672L3.75968 4.45302C3.67516 4.52043 3.67516 4.65076 3.75968 4.71817L8.77215 8.63252C8.88627 8.7224 9.05532 8.6415 9.05532 8.50219V5.91809C12.7703 5.98101 15.7457 9.34258 15.4921 13.3603C15.2765 16.8162 12.6266 19.6205 9.37652 19.8408C5.93204 20.0745 3.00316 17.4589 2.4791 13.9985C2.38189 13.3558 1.85359 12.8884 1.245 12.8884C0.488477 12.8884 -0.103214 13.603 0.015124 14.3984C0.750512 19.3284 5.03182 23.0271 9.98935 22.4383Z" fill="#6673A3"/>
</svg>
