<svg width="24" height="34" viewBox="0 0 24 34" fill="none" xmlns="http://www.w3.org/2000/svg">
<path d="M18.3577 10.665C16.6549 8.949 14.3994 8 11.9961 8C9.59289 8 7.331 8.949 5.63459 10.665C3.93817 12.381 3 14.669 3 17.1C3 19.2125 3.75182 21 5.34542 22.6055C6.08439 23.288 6.57918 24.172 6.77196 25.16C6.89405 25.771 7.42739 26.1935 8.01857 26.1935C8.1021 26.1935 8.18564 26.187 8.26917 26.1675C8.95673 26.031 9.40654 25.3485 9.2716 24.653C8.96959 23.119 8.20491 21.754 7.1061 20.74C5.72455 19.3425 5.55105 18.0555 5.55105 17.0935C5.55105 15.3515 6.21934 13.7135 7.44024 12.4785C8.66115 11.2435 10.2805 10.5675 12.0026 10.5675C13.7247 10.5675 15.344 11.2435 16.5649 12.4785C17.7858 13.7135 18.4541 15.3515 18.4541 17.113C18.4669 17.789 18.3384 18.4455 18.075 19.0695C17.8115 19.6935 17.426 20.2395 16.899 20.7335C15.6717 21.975 14.997 23.1905 14.7335 24.666C14.605 25.368 15.0613 26.0375 15.7553 26.161C16.4492 26.291 17.1111 25.8295 17.2332 25.1275C17.4067 24.185 17.8436 23.4115 18.6597 22.586C19.418 21.8775 20.0091 21.0325 20.414 20.077C20.8188 19.115 21.018 18.101 20.9987 17.0805C20.9987 14.6495 20.0606 12.368 18.3641 10.6455L18.3577 10.665Z" fill="#6E79BD"/>
<path d="M15.5303 27.5H8.46195C7.75511 27.5 7.17678 28.085 7.17678 28.8C7.17678 29.515 7.75511 30.1 8.46195 30.1H15.5303C16.2372 30.1 16.8155 29.515 16.8155 28.8C16.8155 28.085 16.2372 27.5 15.5303 27.5Z" fill="#6E79BD"/>
<path d="M13.6026 31.4H10.3897C9.68285 31.4 9.10453 31.985 9.10453 32.7C9.10453 33.415 9.68285 34 10.3897 34H13.6026C14.3094 34 14.8878 33.415 14.8878 32.7C14.8878 31.985 14.3094 31.4 13.6026 31.4Z" fill="#6E79BD"/>
<path d="M10.775 4.8234C10.775 5.46092 11.2808 5.98269 11.9089 5.98269C12.5369 5.98269 13.0427 5.46092 13.0427 4.8234V2.0593C13.0427 1.42177 12.5369 0.9 11.9089 0.9C11.2808 0.9 10.775 1.42177 10.775 2.0593V4.8234Z" fill="#6E79BD" stroke="#6E79BD" stroke-width="0.2"/>
<path d="M20.6805 8.39599L20.6802 8.39633C20.4585 8.62131 20.1687 8.73648 19.8775 8.73665L20.6805 8.39599ZM20.6805 8.39599L22.5886 6.44093C23.0304 5.98829 23.0304 5.25563 22.5886 4.80299C22.1455 4.349 21.4263 4.349 20.9832 4.80299L19.0751 6.75806C18.6333 7.21067 18.6333 7.94329 19.075 8.39593L20.6805 8.39599ZM19.0751 8.39599C19.2959 8.62289 19.586 8.73648 19.8768 8.73665L19.0751 8.39599Z" fill="#6E79BD" stroke="#6E79BD" stroke-width="0.2"/>
<path d="M4.74431 8.39656L4.74487 8.39599C5.18664 7.94336 5.18664 7.21069 4.74487 6.75806L2.83674 4.80299C2.39364 4.349 1.67442 4.349 1.23133 4.80299C0.789558 5.25563 0.789558 5.98829 1.23133 6.44093L3.13871 8.39588L3.21038 8.32614L3.13881 8.39598L3.13875 8.39592C3.35973 8.62303 3.65009 8.73665 3.9412 8.73665C4.23286 8.73665 4.52139 8.62135 4.74431 8.39656Z" fill="#6E79BD" stroke="#6E79BD" stroke-width="0.2"/>
</svg>
