<svg width="25" height="18" viewBox="0 0 25 18" fill="none" xmlns="http://www.w3.org/2000/svg">
<path d="M23.73 1.25934C23.25 0.774933 22.5633 0.5 21.85 0.5C21.1367 0.5 20.45 0.774933 19.97 1.25934L10.1633 11.1045L5.03 5.94628C4.53 5.44224 3.86333 5.16731 3.15 5.16731C2.43667 5.16731 1.77 5.44224 1.27 5.94628C0.243333 6.97401 0.243333 8.64979 1.27 9.67751L8.28333 16.721C8.78333 17.2251 9.45 17.5 10.1633 17.5C10.8767 17.5 11.5433 17.2251 12.0433 16.721L23.73 4.99057C24.7567 3.96284 24.7567 2.28706 23.73 1.25934Z" fill="#FF6868"/>
</svg>
