<svg width="80" height="80" viewBox="0 0 80 80" fill="none" xmlns="http://www.w3.org/2000/svg">
<g clip-path="url(#clip0_1055_65323)">
<path d="M60 1.5H20C9.78273 1.5 1.5 9.78273 1.5 20V60C1.5 70.2173 9.78273 78.5 20 78.5H60C70.2173 78.5 78.5 70.2173 78.5 60V20C78.5 9.78273 70.2173 1.5 60 1.5Z" fill="#DB5353" stroke="white" stroke-width="3"/>
<path d="M49.8146 26.1797H31.6328C29.4237 26.1797 27.6328 27.9705 27.6328 30.1797V48.3615C27.6328 50.5706 29.4237 52.3615 31.6328 52.3615H49.8146C52.0238 52.3615 53.8146 50.5706 53.8146 48.3615V30.1797C53.8146 27.9705 52.0238 26.1797 49.8146 26.1797Z" fill="white"/>
</g>
<defs>
<clipPath id="clip0_1055_65323">
<rect width="80" height="80" fill="white"/>
</clipPath>
</defs>
</svg>
