<svg width="32" height="33" viewBox="0 0 32 33" fill="none" xmlns="http://www.w3.org/2000/svg">
<g clip-path="url(#clip0_338_67182)">
<g clip-path="url(#clip1_338_67182)">
<path d="M13.7245 8.07708C13.3769 8.07708 13.0852 7.96062 12.8495 7.7277C12.6137 7.49477 12.4958 7.20614 12.4958 6.8618C12.4958 6.52477 12.6137 6.23958 12.8495 6.00625C13.0852 5.77292 13.3769 5.65625 13.7245 5.65625H19.6089C19.9564 5.65625 20.2481 5.77462 20.4839 6.01135C20.7196 6.24811 20.8375 6.535 20.8375 6.87203C20.8375 7.20908 20.7196 7.49419 20.4839 7.72735C20.2481 7.9605 19.9564 8.07708 19.6089 8.07708H13.7245ZM16.6656 21.7271C17.0042 21.7271 17.2883 21.6058 17.518 21.3632C17.7477 21.1207 17.8625 20.8336 17.8625 20.5021V16.1563C17.8625 15.8174 17.748 15.5334 17.519 15.3042C17.29 15.075 17.0062 14.9604 16.6677 14.9604C16.3292 14.9604 16.045 15.075 15.8154 15.3042C15.5857 15.5334 15.4708 15.8174 15.4708 16.1563V20.5021C15.4708 20.8336 15.5853 21.1207 15.8143 21.3632C16.0433 21.6058 16.3271 21.7271 16.6656 21.7271ZM16.6599 32.1396C15.0998 32.1396 13.6397 31.8446 12.2797 31.2547C10.9197 30.6648 9.73101 29.8627 8.71362 28.8484C7.69621 27.8342 6.89583 26.6479 6.3125 25.2896C5.72917 23.9313 5.4375 22.4729 5.4375 20.9146C5.4375 19.3563 5.73005 17.897 6.31515 16.5367C6.90026 15.1765 7.70149 13.9859 8.71887 12.965C9.73626 11.944 10.9249 11.1366 12.2849 10.5428C13.6449 9.94899 15.1055 9.65208 16.6667 9.65208C18.0083 9.65208 19.2771 9.87083 20.4729 10.3083C21.6688 10.7458 22.7262 11.3632 23.6453 12.1604L24.5708 11.2563C24.7996 11.0424 25.0805 10.9354 25.4133 10.9354C25.7461 10.9354 26.0283 11.0512 26.26 11.2829C26.5144 11.5373 26.6417 11.825 26.6417 12.1458C26.6417 12.4667 26.5153 12.7535 26.2625 13.0063L25.3875 13.8813C26.1069 14.6979 26.7097 15.6799 27.1958 16.8271C27.6819 17.9743 27.925 19.3354 27.925 20.9104C27.925 22.4729 27.6294 23.9351 27.0383 25.2971C26.4471 26.6591 25.6415 27.8458 24.6213 28.8573C23.6011 29.8688 22.4092 30.6688 21.0455 31.2571C19.6818 31.8454 18.22 32.1396 16.6599 32.1396ZM16.6617 29.3688C19.0372 29.3688 21.0465 28.5538 22.6896 26.9238C24.3326 25.2938 25.1542 23.291 25.1542 20.9154C25.1542 18.5399 24.3343 16.5306 22.6946 14.8875C21.0549 13.2444 19.0472 12.4229 16.6717 12.4229C14.2961 12.4229 12.2868 13.2428 10.6438 14.8825C9.00069 16.5222 8.17917 18.5299 8.17917 20.9054C8.17917 23.281 8.99902 25.2854 10.6387 26.9188C12.2785 28.5521 14.2861 29.3688 16.6617 29.3688Z" fill="#F0F0F0"/>
</g>
</g>
<defs>
<clipPath id="clip0_338_67182">
<rect width="32" height="32" fill="white" transform="translate(0 0.5)"/>
</clipPath>
<clipPath id="clip1_338_67182">
<rect width="28" height="28" fill="white" transform="translate(2.66406 5.16406)"/>
</clipPath>
</defs>
</svg>
