<svg width="148" height="148" viewBox="0 0 148 148" fill="none" xmlns="http://www.w3.org/2000/svg">
<path d="M134.204 59.9475C134.204 26.8358 107.344 0 74.2142 0C41.0847 0 14.2344 26.8358 14.2344 59.9475C14.2344 72.761 18.266 84.6175 25.1196 94.3686V123.874C25.1196 126.674 27.3874 128.941 30.1894 128.941C32.9913 128.941 35.2591 126.674 35.2591 123.874V105.5C41.8205 111.121 49.6115 115.332 58.1786 117.709V131.268H68.0661V119.583C70.0919 119.794 72.148 119.895 74.2344 119.895C76.3207 119.895 78.397 119.784 80.4329 119.573V131.258H90.3204V117.689C98.8976 115.311 106.699 111.071 113.27 105.439V123.864C113.27 126.664 115.538 128.931 118.34 128.931C121.142 128.931 123.41 126.664 123.41 123.864V94.278C130.223 84.547 134.234 72.7207 134.234 59.9374L134.204 59.9475Z" fill="#FFEB55"/>
<path d="M37.7687 28.7699C34.2915 28.7699 31.4694 31.5905 31.4694 35.0659C31.4694 38.5412 34.2915 41.3618 37.7687 41.3618C41.246 41.3618 44.0681 38.5412 44.0681 35.0659C44.0681 31.5905 41.246 28.7699 37.7687 28.7699Z" fill="#FF9FD2"/>
<path d="M112.293 41.8454C115.772 41.8454 118.592 39.0266 118.592 35.5494C118.592 32.0723 115.772 29.2535 112.293 29.2535C108.813 29.2535 105.993 32.0723 105.993 35.5494C105.993 39.0266 108.813 41.8454 112.293 41.8454Z" fill="#FF9FD2"/>
<path d="M57.9871 139.599C53.3407 139.599 49.5813 143.356 49.5813 148H68.0661V130.925H58.1786V139.599H57.9871Z" fill="#1A1A1A"/>
<path d="M90.3002 139.599V130.925H80.4128V148H98.8976C98.8976 143.356 95.1381 139.599 90.4917 139.599H90.3002Z" fill="#1A1A1A"/>
<path d="M61.9683 34.3204C62.4622 34.3204 65.9394 32.1043 66.7961 29.6967C66.9372 29.3844 67.0178 29.0319 67.0178 28.6591C67.0178 27.269 65.8991 26.1508 64.5082 26.1508C63.1173 26.1508 61.9985 27.269 61.9985 28.6591H61.9683C61.9683 27.269 60.8495 26.1508 59.4586 26.1508C58.0677 26.1508 56.949 27.269 56.949 28.6591C56.949 28.7095 56.949 28.7699 56.949 28.8203C57.1102 31.5402 61.3736 34.3204 61.9582 34.3204H61.9683Z" fill="#1A1A1A"/>
<path d="M89.5241 34.119C90.018 34.119 93.4953 31.9028 94.352 29.4952C94.4931 29.183 94.5737 28.8304 94.5737 28.4577C94.5737 27.0675 93.4549 25.9494 92.064 25.9494C90.6732 25.9494 89.5544 27.0675 89.5544 28.4577H89.5241C89.5241 27.0675 88.4054 25.9494 87.0145 25.9494C85.6236 25.9494 84.5048 27.0675 84.5048 28.4577C84.5048 28.508 84.5048 28.5685 84.5048 28.6188C84.6661 31.3387 88.9295 34.119 89.5141 34.119H89.5241Z" fill="#1A1A1A"/>
<path d="M93.8279 39.8206H54.1369C54.1369 50.7806 63.0266 59.6553 73.9824 59.6553C84.9382 59.6553 93.8279 50.7705 93.8279 39.8206Z" fill="#1A1A1A"/>
<path d="M80.695 39.8206H67.7435V44.9077H80.695V39.8206Z" fill="white"/>
</svg>
