<svg width="180" height="180" viewBox="0 0 180 180" fill="none" xmlns="http://www.w3.org/2000/svg">
<ellipse cx="90" cy="166.287" rx="50" ry="7.2165" fill="#D2D2D2"/>
<g clip-path="url(#clip0_1100_66433)">
<path d="M132 128.537C136.422 121.124 138.969 112.446 138.969 103.157C138.981 61.8485 63.5963 -8.30399 69.846 9.27154C81.9112 43.191 41.0312 67.0049 41.0312 103.157C41.0312 112.434 43.5791 121.124 48.0007 128.537C61.2998 124.508 75.3987 122.333 90.0003 122.333C104.602 122.333 118.701 124.508 132 128.537Z" fill="#57ADFF"/>
<path d="M132.054 128.563C118.755 124.535 104.656 122.359 90.0543 122.359C75.4527 122.359 61.3538 124.535 48.0547 128.563C52.1221 135.389 57.8005 141.109 64.5301 145.264V161.009C64.5301 165.625 68.2433 169.377 72.8363 169.377C77.4293 169.377 81.1425 165.636 81.1425 161.009V151.686C84.0331 152.227 87.0037 152.527 90.0543 152.527C93.1049 152.527 95.9841 152.227 98.8404 151.709V161.009C98.8404 165.625 102.554 169.377 107.147 169.377C111.74 169.377 115.453 165.636 115.453 161.009V145.345C122.24 141.178 127.964 135.423 132.065 128.563H132.054Z" fill="#55EE55"/>
<path d="M99.4001 72.2422C95.4355 72.2422 91.9508 74.2334 89.8371 77.272C87.7234 74.2334 84.2272 72.2422 80.2741 72.2422C73.8187 72.2422 68.5859 77.5137 68.5859 84.0168C68.5859 90.5198 73.8187 95.7913 80.2741 95.7913C84.2387 95.7913 87.7234 93.8001 89.8371 90.7615C91.9508 93.8001 95.4469 95.7913 99.4001 95.7913C105.855 95.7913 111.088 90.5198 111.088 84.0168C111.088 77.5137 105.855 72.2422 99.4001 72.2422Z" fill="white"/>
<path d="M70.9409 59.4922C68.4958 59.4922 66.5078 61.495 66.5078 63.9583C66.5078 66.4216 68.4958 68.4244 70.9409 68.4244C73.3859 68.4244 75.3739 66.4216 75.3739 63.9583C75.3739 61.495 73.3859 59.4922 70.9409 59.4922Z" fill="#1A1A1A"/>
<path d="M108.863 59.4922C106.418 59.4922 104.43 61.495 104.43 63.9583C104.43 66.4216 106.418 68.4244 108.863 68.4244C111.308 68.4244 113.296 66.4216 113.296 63.9583C113.296 61.495 111.308 59.4922 108.863 59.4922Z" fill="#1A1A1A"/>
<path d="M101.026 82.6501C94.9247 82.6501 92.6054 78.1612 91.8399 76.0204C94.2163 75.4794 95.9301 74.0177 95.9301 72.2912C95.9301 70.1043 93.1995 68.3203 89.8404 68.3203C86.4814 68.3203 83.7507 70.0928 83.7507 72.2912C83.7507 73.9832 85.3845 75.4104 87.6696 75.9859C87.2469 77.9425 85.5216 82.5925 78.655 82.5925C77.6153 82.5925 76.7812 83.4327 76.7812 84.4801C76.7812 85.5275 77.6153 86.3677 78.655 86.3677C84.6647 86.3677 88.0924 83.5478 89.8976 80.5092C91.9084 83.5593 95.4389 86.4368 101.037 86.4368C102.077 86.4368 102.911 85.5966 102.911 84.5492C102.911 83.5018 102.077 82.6616 101.037 82.6616L101.026 82.6501Z" fill="#1A1A1A"/>
<path d="M110.747 46.3359C103.218 46.3359 96.9568 51.8607 95.7 59.1004H83.6234C82.378 51.8607 76.1169 46.3359 68.5762 46.3359C60.1443 46.3359 53.2891 53.2418 53.2891 61.7361C53.2891 70.2304 60.1443 77.1363 68.5762 77.1363C77.0081 77.1363 83.8633 70.2304 83.8633 61.7361C83.8633 61.598 83.8405 61.4484 83.8405 61.3102H95.4829C95.4829 61.4484 95.4601 61.598 95.4601 61.7361C95.4601 70.2304 102.315 77.1363 110.747 77.1363C119.179 77.1363 126.034 70.2304 126.034 61.7361C126.034 53.2418 119.179 46.3359 110.747 46.3359ZM68.5876 74.9149C61.3668 74.9149 55.4942 68.9988 55.4942 61.7246C55.4942 54.4504 61.3668 48.5343 68.5876 48.5343C75.8084 48.5343 81.6811 54.4504 81.6811 61.7246C81.6811 68.9988 75.8084 74.9149 68.5876 74.9149ZM110.747 74.9149C103.526 74.9149 97.6537 68.9988 97.6537 61.7246C97.6537 54.4504 103.526 48.5343 110.747 48.5343C117.968 48.5343 123.841 54.4504 123.841 61.7246C123.841 68.9988 117.968 74.9149 110.747 74.9149Z" fill="#1A1A1A"/>
</g>
<defs>
<clipPath id="clip0_1100_66433">
<rect width="97.9381" height="162.876" fill="white" transform="translate(41.0312 6.5)"/>
</clipPath>
</defs>
</svg>
