<svg width="56" height="56" viewBox="0 0 56 56" fill="none" xmlns="http://www.w3.org/2000/svg">
<path d="M42.575 42.1487C44.1082 39.5873 45 36.5941 45 33.3899C44.99 19.1167 18.8361 -5.11055 21.0006 0.956313C25.1892 12.6782 11 20.8946 11 33.3799C11 36.584 11.8818 39.5873 13.425 42.1386C18.0445 40.7425 22.9346 39.9992 28.005 39.9992C33.0754 39.9992 37.9655 40.7525 42.585 42.1386L42.575 42.1487Z" fill="#57ADFF"/>
<path d="M42.565 42.1386C37.9455 40.7425 33.0554 39.9992 27.985 39.9992C22.9145 39.9992 18.0245 40.7525 13.405 42.1386C14.8479 44.5493 16.8721 46.5682 19.277 48.0046V53.1072C19.277 54.7043 20.5697 56 22.163 56C23.7563 56 25.0489 54.7043 25.0489 53.1072V50.1441C26.0009 50.3148 26.9829 50.4052 27.985 50.4052C29.1574 50.4052 30.2997 50.2847 31.402 50.0637V53.1072C31.402 54.7043 32.6947 56 34.2879 56C35.8812 56 37.1739 54.7043 37.1739 53.1072V47.7033C39.3684 46.287 41.2222 44.3786 42.565 42.1386Z" fill="#55EE55"/>
<path d="M31.5523 22.4314C30.1795 22.4314 28.967 23.1144 28.2355 24.1691C27.504 23.1245 26.2915 22.4314 24.9187 22.4314C22.674 22.4314 20.8603 24.2494 20.8603 26.4994C20.8603 28.7494 22.674 30.5674 24.9187 30.5674C26.2915 30.5674 27.504 29.8844 28.2355 28.8297C28.967 29.8743 30.1795 30.5674 31.5523 30.5674C33.7969 30.5674 35.6107 28.7494 35.6107 26.4994C35.6107 24.2494 33.7969 22.4314 31.5523 22.4314Z" fill="white"/>
<path d="M29.1173 23.7773C29.8388 23.5564 30.3398 23.0843 30.3398 22.5419C30.3398 21.7885 29.3979 21.1758 28.2255 21.1758C27.0531 21.1758 26.1111 21.7885 26.1111 22.5419C26.1111 23.0742 26.5821 23.5262 27.2535 23.7472L25.2393 25.9269C24.9988 26.188 25.0088 26.5998 25.2794 26.851C25.3996 26.9715 25.56 27.0217 25.7203 27.0217C25.8907 27.0217 26.071 26.9514 26.2013 26.8108L28.1754 24.6713L30.2897 26.6802C30.5502 26.9313 30.9611 26.9213 31.2116 26.6601C31.4621 26.399 31.4521 25.9871 31.1916 25.736L29.1273 23.7673L29.1173 23.7773Z" fill="#1A1A1A"/>
<path d="M35.6307 15.6313C35.4704 15.3601 35.1197 15.2797 34.8591 15.4404L31.6926 17.3589C31.422 17.5196 31.3419 17.8712 31.5022 18.1324C31.6124 18.3132 31.7928 18.4036 31.9832 18.4036C32.0834 18.4036 32.1836 18.3734 32.2738 18.3232L35.4403 16.4047C35.7109 16.244 35.791 15.8924 35.6307 15.6313Z" fill="#1A1A1A"/>
<path d="M24.7082 17.3589L21.5417 15.4404C21.2711 15.2797 20.9304 15.3601 20.7701 15.6313C20.6098 15.9025 20.6899 16.244 20.9605 16.4047L24.127 18.3232C24.2172 18.3734 24.3174 18.4036 24.4176 18.4036C24.608 18.4036 24.7984 18.3031 24.8986 18.1324C25.0589 17.8612 24.9788 17.5196 24.7082 17.3589Z" fill="#1A1A1A"/>
<path d="M21.7321 18.1725C20.8803 18.1725 20.1989 18.8656 20.1989 19.7093C20.1989 20.5531 20.8904 21.2461 21.7321 21.2461C22.5738 21.2461 23.2653 20.5531 23.2653 19.7093C23.2653 18.8656 22.5738 18.1725 21.7321 18.1725Z" fill="#1A1A1A"/>
<path d="M34.7188 21.2562C35.5656 21.2562 36.252 20.5681 36.252 19.7194C36.252 18.8706 35.5656 18.1826 34.7188 18.1826C33.8721 18.1826 33.1857 18.8706 33.1857 19.7194C33.1857 20.5681 33.8721 21.2562 34.7188 21.2562Z" fill="#1A1A1A"/>
</svg>
