<svg width="148" height="148" viewBox="0 0 148 148" fill="none" xmlns="http://www.w3.org/2000/svg">
<path d="M134.269 59.9475C134.269 26.8358 107.406 0 74.2739 0C41.1416 0 14.2891 26.8358 14.2891 59.9475C14.2891 72.761 18.321 84.6175 25.1752 94.3686V123.854C25.1752 126.654 27.4432 128.921 30.2454 128.921C33.0476 128.921 35.3155 126.654 35.3155 123.854V105.51C41.9984 111.222 49.9514 115.503 58.6906 117.85V131.278H68.5688V119.633C70.4537 119.814 72.3588 119.915 74.2941 119.915C76.5318 119.915 78.7393 119.784 80.9165 119.542V131.288H90.8653V117.578C99.2517 115.17 106.882 111 113.323 105.47V123.854C113.323 126.654 115.591 128.921 118.393 128.921C121.195 128.921 123.463 126.654 123.463 123.854V94.2981C130.277 84.5671 134.289 72.7408 134.289 59.9575L134.269 59.9475Z" fill="#FFEB55"/>
<path d="M36.6158 42.2886C40.0951 42.2886 42.9157 39.4698 42.9157 35.9926C42.9157 32.5155 40.0951 29.6967 36.6158 29.6967C33.1365 29.6967 30.3159 32.5155 30.3159 35.9926C30.3159 39.4698 33.1365 42.2886 36.6158 42.2886Z" fill="#FF9FD2"/>
<path d="M113.404 29.6967C109.926 29.6967 107.104 32.5173 107.104 35.9926C107.104 39.468 109.926 42.2886 113.404 42.2886C116.881 42.2886 119.704 39.468 119.704 35.9926C119.704 32.5173 116.881 29.6967 113.404 29.6967Z" fill="#FF9FD2"/>
<path d="M58.489 139.599C53.8422 139.599 50.0824 143.356 50.0824 148H68.5688V130.925H58.6805V139.599H58.489Z" fill="#1A1A1A"/>
<path d="M90.8149 139.599V130.925H80.9266V148H99.413C99.413 143.356 95.6532 139.599 91.0064 139.599H90.8149Z" fill="#1A1A1A"/>
<path d="M87.0652 32.5173C89.7968 32.4971 92.0144 30.2608 91.9942 27.5309C91.9942 27.1985 91.8632 26.8862 91.6213 26.6444C91.3894 26.4127 91.077 26.2818 90.7443 26.2818C90.0488 26.2818 89.4944 26.856 89.4944 27.541C89.4944 28.1958 89.2424 28.8203 88.7889 29.2837C88.3252 29.7471 87.7103 30.009 87.0551 30.009H87.045C86.3899 30.009 85.7851 29.7571 85.3214 29.3038C84.8577 28.8405 84.5957 28.226 84.5957 27.5712C84.5957 26.8862 84.0312 26.312 83.3357 26.3221C82.6503 26.3221 82.0858 26.8862 82.0858 27.5813C82.106 30.3213 84.3437 32.5072 87.0753 32.5173H87.0652Z" fill="#1A1A1A"/>
<path d="M61.0896 32.5173C63.8313 32.4971 66.0387 30.2608 66.0186 27.5309C66.0186 27.1985 65.8876 26.8862 65.6456 26.6444C65.4138 26.4127 65.1013 26.2818 64.7687 26.2818C64.0833 26.2818 63.5188 26.8459 63.5188 27.541C63.5188 28.1958 63.2668 28.8203 62.8132 29.2837C62.3495 29.7471 61.7347 30.009 61.0795 30.009C60.4445 30.009 59.7994 29.7571 59.3357 29.3038C58.872 28.8405 58.6099 28.226 58.6099 27.5712C58.6099 26.8862 58.0455 26.3221 57.36 26.3221C56.6645 26.3221 56.1101 26.8963 56.1101 27.5813C56.1303 30.3213 58.3579 32.5072 61.0996 32.5173H61.0896Z" fill="#1A1A1A"/>
<path d="M94.1009 40.4451H54.3966C54.3966 51.4051 63.287 60.2799 74.2437 60.2799C85.2004 60.2799 94.0908 51.395 94.0908 40.4451H94.1009Z" fill="#1A1A1A"/>
<path d="M79.6162 40.4451H68.8813V45.5222H79.6162V40.4451Z" fill="white"/>
</svg>
