<svg width="56" height="56" viewBox="0 0 56 56" fill="none" xmlns="http://www.w3.org/2000/svg">
<path d="M42.575 41.9605C44.1082 39.4106 45 36.4307 45 33.2309C44.99 19.0314 18.8361 -5.08772 21.0006 0.952057C25.1892 12.6216 11 20.8013 11 33.2309C11 36.4207 11.8818 39.4106 13.425 41.9605C18.0445 40.5706 22.9346 39.8306 28.005 39.8306C33.0754 39.8306 37.9655 40.5806 42.585 41.9605H42.575Z" fill="#57ADFF"/>
<path d="M42.595 41.9705C37.9755 40.5806 33.0855 39.8406 28.015 39.8406C22.9446 39.8406 18.0545 40.5906 13.435 41.9705C14.8479 44.3204 16.812 46.2904 19.1568 47.7103V53.1201C19.1568 54.71 20.4495 56 22.0427 56C23.636 56 24.9287 54.71 24.9287 53.1201V49.9102C25.9307 50.0902 26.9629 50.2002 28.0251 50.2002C29.0872 50.2002 30.0893 50.1002 31.0813 49.9202V53.1201C31.0813 54.71 32.374 56 33.9673 56C35.5606 56 36.8532 54.71 36.8532 53.1201V47.7303C39.2081 46.3004 41.1922 44.3204 42.6051 41.9605L42.595 41.9705Z" fill="#55EE55"/>
<path d="M31.2918 22.5113C29.919 22.5113 28.7065 23.1912 27.9749 24.2412C27.2434 23.2012 26.0309 22.5113 24.6581 22.5113C22.4135 22.5113 20.5998 24.3212 20.5998 26.5611C20.5998 28.801 22.4135 30.611 24.6581 30.611C26.0309 30.611 27.2434 29.931 27.9749 28.881C28.7065 29.921 29.919 30.611 31.2918 30.611C33.5364 30.611 35.3501 28.801 35.3501 26.5611C35.3501 24.3212 33.5364 22.5113 31.2918 22.5113Z" fill="white"/>
<path d="M25.5399 18.4614C25.6401 18.2514 25.6902 18.0214 25.6902 17.7714C25.6902 16.8415 24.9387 16.0915 24.0068 16.0915C23.0749 16.0915 22.3233 16.8415 22.3233 17.7714H22.3033C22.3033 16.8415 21.5517 16.0915 20.6198 16.0915C19.6879 16.0915 18.9363 16.8415 18.9363 17.7714C18.9363 17.8114 18.9363 17.8414 18.9363 17.8814C19.0466 19.7014 21.9024 21.5513 22.2933 21.5513C22.6239 21.5513 24.9487 20.0713 25.5299 18.4614H25.5399Z" fill="#1A1A1A"/>
<path d="M35.31 16.0915C34.3781 16.0915 33.6266 16.8415 33.6266 17.7714H33.6065C33.6065 16.8415 32.855 16.0915 31.9231 16.0915C30.9912 16.0915 30.2396 16.8415 30.2396 17.7714C30.2396 17.8114 30.2396 17.8414 30.2396 17.8814C30.3498 19.7014 33.2057 21.5513 33.5965 21.5513C33.9272 21.5513 36.252 20.0713 36.8332 18.4614C36.9334 18.2514 36.9835 18.0214 36.9835 17.7714C36.9835 16.8415 36.2319 16.0915 35.3 16.0915H35.31Z" fill="#1A1A1A"/>
<path d="M31.8529 26.3111C29.8087 26.3111 28.987 24.8712 28.6964 24.1112C29.5081 23.9212 30.0893 23.4212 30.0893 22.8312C30.0893 22.0813 29.1474 21.4713 27.9749 21.4713C26.8025 21.4713 25.8606 22.0813 25.8606 22.8312C25.8606 23.4112 26.4218 23.9012 27.2034 24.1012C27.023 24.8312 26.3917 26.2911 24.097 26.2911C23.7362 26.2911 23.4456 26.5811 23.4456 26.9411C23.4456 27.3011 23.7362 27.5911 24.097 27.5911C26.1813 27.5911 27.3737 26.6211 27.995 25.5711C28.6964 26.6211 29.9189 27.6111 31.863 27.6111C32.2237 27.6111 32.5143 27.3211 32.5143 26.9611C32.5143 26.6011 32.2237 26.3111 31.863 26.3111H31.8529Z" fill="#1A1A1A"/>
</svg>
