<svg width="120" height="120" viewBox="0 0 120 120" fill="none" xmlns="http://www.w3.org/2000/svg">
<path d="M90.8783 27.5956C88.3214 27.5956 85.8552 27.9245 83.4896 28.5326C77.0976 23.2097 68.8533 20 59.844 20C50.8347 20 42.6508 23.1798 36.2587 28.4728C33.9737 27.9046 31.588 27.5956 29.1318 27.5956C13.0459 27.5956 0 40.5141 0 56.4429C0 72.3717 13.0459 85.2901 29.1318 85.2901C31.588 85.2901 33.9737 84.9811 36.2587 84.413C38.3525 86.1374 40.6375 87.6426 43.0836 88.8786V99.634C43.0836 101.996 45.0164 103.9 47.392 103.9H47.6839C50.0696 103.9 51.9923 101.986 51.9923 99.634V92.0384C54.5189 92.5867 57.1462 92.8758 59.8339 92.8758C62.7229 92.8758 65.5213 92.5368 68.2191 91.9089V99.6241C68.2191 101.986 70.1518 103.89 72.5275 103.89H72.8194C75.2051 103.89 77.1278 101.977 77.1278 99.6241V88.5895C79.4027 87.3934 81.5267 85.958 83.4796 84.3332C85.8351 84.9413 88.3114 85.2702 90.8682 85.2702C106.954 85.2702 120 72.3517 120 56.4229C120 40.4941 106.954 27.5757 90.8682 27.5757L90.8783 27.5956Z" fill="#A6C4E3"/>
<path d="M83.6406 47.8106C86.3203 47.8106 88.4926 45.6595 88.4926 43.0061C88.4926 40.3526 86.3203 38.2015 83.6406 38.2015C80.961 38.2015 78.7887 40.3526 78.7887 43.0061C78.7887 45.6595 80.961 47.8106 83.6406 47.8106Z" fill="white"/>
<path d="M36.3392 38.0619C33.6616 38.0619 31.4873 40.215 31.4873 42.8665C31.4873 45.518 33.6616 47.6711 36.3392 47.6711C39.0169 47.6711 41.1912 45.518 41.1912 42.8665C41.1912 40.215 39.0169 38.0619 36.3392 38.0619Z" fill="white"/>
<path d="M59.9849 51.3193C67.707 51.3193 73.967 49.1995 73.967 46.5846C73.967 43.9696 67.707 41.8498 59.9849 41.8498C52.2628 41.8498 46.0029 43.9696 46.0029 46.5846C46.0029 49.1995 52.2628 51.3193 59.9849 51.3193Z" fill="#FFEB55"/>
<path d="M68.964 33.8555C67.5145 33.2873 65.9743 33.7757 65.5415 34.9519C65.1086 36.1282 65.9341 37.5436 67.3836 38.1118C68.8332 38.68 70.3733 38.1915 70.8061 37.0153C71.239 35.8391 70.4136 34.4236 68.964 33.8555Z" fill="#1A1A1A"/>
<path d="M54.4585 34.9519C54.0257 33.7757 52.4855 33.2873 51.036 33.8555C49.5864 34.4236 48.761 35.8391 49.1939 37.0153C49.6267 38.1915 51.1568 38.68 52.6164 38.1118C54.0659 37.5436 54.8914 36.1282 54.4585 34.9519Z" fill="#1A1A1A"/>
<path d="M67.3131 45.518C67.1722 45.4781 63.9208 44.591 59.9044 44.591C56.2604 44.591 52.8278 45.4681 52.6869 45.508C52.103 45.6575 51.7608 46.2456 51.9118 46.8238C52.0426 47.3022 52.4755 47.6312 52.9586 47.6312C53.0492 47.6312 53.1398 47.6212 53.2304 47.5913C53.2606 47.5913 56.5422 46.744 59.8943 46.744C63.5987 46.744 66.6991 47.5813 66.7293 47.5913C67.3031 47.7508 67.9071 47.4119 68.0681 46.8437C68.2292 46.2755 67.8869 45.6775 67.3131 45.518Z" fill="#1A1A1A"/>
<path d="M68.2392 96.2449V99.7337C68.2392 102.096 70.172 104 72.5476 104H72.8395C75.2252 104 77.1479 102.086 77.1479 99.7337V96.2449H68.2292H68.2392Z" fill="#1A1A1A"/>
<path d="M43.0635 99.7337C43.0635 102.096 44.9962 104 47.3719 104H47.6638C50.0495 104 51.9722 102.086 51.9722 99.7337V96.2449H43.0534V99.7337H43.0635Z" fill="#1A1A1A"/>
</svg>
