<svg width="56" height="56" viewBox="0 0 56 56" fill="none" xmlns="http://www.w3.org/2000/svg">
<path d="M42.575 41.968C44.1082 39.4177 45 36.4372 45 33.2468C44.99 19.0348 18.8361 -5.08864 21.0006 0.952214C25.1892 12.6239 11 20.805 11 33.2368C11 36.4272 11.8818 39.4177 13.425 41.958C18.0445 40.5678 22.9346 39.8277 28.005 39.8277C33.0754 39.8277 37.9655 40.5778 42.585 41.958L42.575 41.968Z" fill="#57ADFF"/>
<path d="M31.3519 22.4853C29.9791 22.4853 28.7666 23.1654 28.0351 24.2155C27.3036 23.1754 26.0911 22.4853 24.7182 22.4853C22.4736 22.4853 20.6599 24.2955 20.6599 26.5358C20.6599 28.7761 22.4736 30.5864 24.7182 30.5864C26.0911 30.5864 27.3036 29.9063 28.0351 28.8562C28.7666 29.8963 29.9791 30.5864 31.3519 30.5864C33.5965 30.5864 35.4103 28.7761 35.4103 26.5358C35.4103 24.2955 33.5965 22.4853 31.3519 22.4853Z" fill="white"/>
<path d="M29.0171 24.0555C29.6885 23.8254 30.1494 23.3754 30.1494 22.8553C30.1494 22.1052 29.2075 21.4951 28.0351 21.4951C26.8627 21.4951 25.9207 22.1052 25.9207 22.8553C25.9207 23.3554 26.3516 23.7954 26.9829 24.0355L25.0489 26.1158C24.8084 26.3758 24.8184 26.7859 25.089 27.0359C25.2093 27.1559 25.3696 27.2059 25.5299 27.2059C25.7003 27.2059 25.8806 27.1359 26.0109 26.9959L27.985 24.8656L30.0993 26.8659C30.3599 27.1159 30.7707 27.1059 31.0212 26.8459C31.2717 26.5858 31.2617 26.1758 31.0012 25.9257L29.0271 24.0555H29.0171Z" fill="#1A1A1A"/>
<path d="M37.4144 19.1748L33.5965 18.2247C33.1556 18.1146 32.7047 18.3847 32.5945 18.8247C32.4842 19.2648 32.7548 19.7149 33.1957 19.8249L37.0136 20.775C37.0837 20.795 37.1438 20.795 37.214 20.795C37.5847 20.795 37.9154 20.545 38.0156 20.1749C38.1258 19.7349 37.8553 19.2848 37.4144 19.1748Z" fill="#1A1A1A"/>
<path d="M22.654 18.2247L18.8361 19.1748C18.3952 19.2848 18.1247 19.7349 18.2349 20.1749C18.3251 20.545 18.6658 20.795 19.0365 20.795C19.1067 20.795 19.1668 20.795 19.237 20.775L23.0548 19.8249C23.4957 19.7149 23.7663 19.2648 23.6561 18.8247C23.5458 18.3847 23.1049 18.1146 22.654 18.2247Z" fill="#1A1A1A"/>
<path d="M28.015 39.8377C22.9446 39.8377 18.0545 40.5878 13.435 41.968C14.8479 44.3183 16.812 46.2886 19.1568 47.7088V53.1196C19.1568 54.7098 20.4495 56 22.0427 56C23.636 56 24.9287 54.7098 24.9287 53.1196V49.9091C25.9307 50.0892 26.9629 50.1992 28.0251 50.1992C29.0872 50.1992 30.1394 50.0892 31.1515 49.9091V53.1196C31.1515 54.7098 32.4441 56 34.0374 56C35.6307 56 36.9234 54.7098 36.9234 53.1196V47.6888C39.2482 46.2586 41.2022 44.2983 42.6051 41.968C37.9856 40.5778 33.0955 39.8377 28.0251 39.8377H28.015Z" fill="#55EE55"/>
</svg>
