<svg width="120" height="120" viewBox="0 0 120 120" fill="none" xmlns="http://www.w3.org/2000/svg">
<path d="M90.8803 36.9808C88.5697 36.9808 86.3197 37.2502 84.1604 37.759C77.7129 32.3021 69.3383 29 60.1766 29C51.0149 29 42.5797 32.332 36.1322 37.8188C33.8922 37.2702 31.5513 36.9808 29.1297 36.9808C13.0463 36.9808 0 49.83 0 65.672C0 81.514 13.0463 94.3631 29.1297 94.3631C31.8238 94.3631 34.427 93.994 36.9091 93.3256C43.2456 98.4334 51.3478 101.496 60.1766 101.496C69.0053 101.496 77.0268 98.4633 83.3532 93.3955C85.7546 94.0239 88.2771 94.3631 90.8703 94.3631C106.964 94.3631 120 81.514 120 65.672C120 49.83 106.954 36.9808 90.8703 36.9808H90.8803Z" fill="#A6C4E3"/>
<path d="M82.4552 58.5491C85.1356 58.5491 87.3085 56.4097 87.3085 53.7706C87.3085 51.1314 85.1356 48.992 82.4552 48.992C79.7748 48.992 77.602 51.1314 77.602 53.7706C77.602 56.4097 79.7748 58.5491 82.4552 58.5491Z" fill="white"/>
<path d="M37.3632 58.5491C40.0435 58.5491 42.2164 56.4097 42.2164 53.7706C42.2164 51.1314 40.0435 48.992 37.3632 48.992C34.6828 48.992 32.5099 51.1314 32.5099 53.7706C32.5099 56.4097 34.6828 58.5491 37.3632 58.5491Z" fill="white"/>
<path d="M52.6999 96.9868C52.6999 94.5516 50.7055 92.5774 48.2452 92.5774C45.7849 92.5774 43.7905 94.5516 43.7905 96.9868V99.5906C43.7905 102.026 45.7849 104 48.2452 104C50.7055 104 52.6999 102.026 52.6999 99.5906V96.9868Z" fill="#1A1A1A"/>
<path d="M76.4416 96.9868C76.4416 94.5516 74.4472 92.5774 71.9869 92.5774C69.5266 92.5774 67.5322 94.5516 67.5322 96.9868V99.5906C67.5322 102.026 69.5266 104 71.9869 104C74.4472 104 76.4416 102.026 76.4416 99.5906V96.9868Z" fill="#1A1A1A"/>
<path d="M60.985 63.131C68.986 61.5833 75.0348 58.1194 74.4956 55.3942C73.9563 52.6691 67.0331 51.7145 59.0322 53.2622C51.0313 54.8099 44.9824 58.2738 45.5217 60.9989C46.0609 63.7241 52.9841 64.6787 60.985 63.131Z" fill="#FFEB55"/>
<path d="M51.3781 50.5383C52.8381 50.5383 54.0217 49.3726 54.0217 47.9346C54.0217 46.4965 52.8381 45.3308 51.3781 45.3308C49.9181 45.3308 48.7345 46.4965 48.7345 47.9346C48.7345 49.3726 49.9181 50.5383 51.3781 50.5383Z" fill="#1A1A1A"/>
<path d="M71.5177 49.2813L68.2788 48.0144L71.2352 46.6975C71.6993 46.488 71.9011 45.9593 71.6892 45.5104C71.4773 45.0615 70.9426 44.852 70.4784 45.0615L65.5646 47.2562C65.2316 47.4058 65.0198 47.735 65.0298 48.0942C65.0298 48.4533 65.2619 48.7725 65.605 48.9122L70.8316 50.9673C70.9426 51.0072 71.0536 51.0271 71.1746 51.0271C71.5379 51.0271 71.8809 50.8077 72.0222 50.4585C72.2139 49.9996 71.9818 49.4709 71.5076 49.2913L71.5177 49.2813Z" fill="#1A1A1A"/>
<path d="M66.6947 55.3667C66.6947 55.3667 63.6475 57.4617 60.2674 58.2298C56.524 59.0778 53.0934 58.4693 53.0531 58.4593C52.4376 58.3496 51.8423 58.7486 51.7212 59.3571C51.6102 59.9657 52.0138 60.5543 52.6394 60.674C52.8008 60.7039 56.5543 61.3723 60.782 60.4246C64.6162 59.5567 67.8752 57.3021 68.0165 57.2123C68.5311 56.8532 68.6521 56.1548 68.2889 55.646C67.9257 55.1373 67.2093 55.0176 66.6947 55.3767V55.3667Z" fill="#1A1A1A"/>
</svg>
