<svg width="148" height="148" viewBox="0 0 148 148" fill="none" xmlns="http://www.w3.org/2000/svg">
<path d="M134 59.9529C134 26.8395 107.137 0 74.0051 0C40.8731 0 14 26.8395 14 59.9529C14 72.7656 18.033 84.6297 24.884 94.3719V123.854C24.884 126.649 27.1507 128.913 29.9483 128.913C32.7459 128.913 35.0125 126.649 35.0125 123.854V105.512C41.7002 111.224 49.6437 115.499 58.3938 117.845V131.27H68.267V119.62C70.1559 119.793 72.055 119.896 73.9949 119.896C76.2309 119.896 78.4465 119.763 80.6213 119.528V131.27H90.5762V117.57C98.9587 115.162 106.596 110.99 113.039 105.461V123.843C113.039 126.639 115.305 128.903 118.103 128.903C120.9 128.903 123.167 126.639 123.167 123.843V94.2903C129.987 84.5583 134 72.7248 134 59.9529Z" fill="#FFEB55"/>
<path d="M36.3296 42.2843C39.8088 42.2843 42.6293 39.4663 42.6293 35.9901C42.6293 32.5139 39.8088 29.6959 36.3296 29.6959C32.8504 29.6959 30.0299 32.5139 30.0299 35.9901C30.0299 39.4663 32.8504 42.2843 36.3296 42.2843Z" fill="#FF9FD2"/>
<path d="M113.141 29.6959C109.659 29.6959 106.841 32.5114 106.841 35.9901C106.841 39.4687 109.659 42.2843 113.141 42.2843C116.622 42.2843 119.44 39.4687 119.44 35.9901C119.44 32.5114 116.622 29.6959 113.141 29.6959Z" fill="#FF9FD2"/>
<path d="M58.3938 139.594H58.21C53.5644 139.594 49.7968 143.358 49.7968 148H68.2874V130.923H58.3938V139.594Z" fill="#1A1A1A"/>
<path d="M90.7191 139.594H90.5353V130.923H80.6417V148H99.1323C99.1323 143.358 95.3648 139.594 90.7191 139.594Z" fill="#1A1A1A"/>
<path d="M102.553 40.9785C102.297 40.4174 101.634 40.1828 101.082 40.4378C100.95 40.499 87.6867 46.528 74.0664 46.528C59.0268 46.528 46.4887 40.5092 46.3662 40.448C45.8149 40.1828 45.1512 40.4072 44.8857 40.9581C44.6203 41.509 44.8449 42.172 45.3962 42.4373C45.9272 42.6923 58.4959 48.7417 74.0664 48.7417C88.187 48.7417 101.45 42.7025 102.012 42.4475C102.573 42.1924 102.808 41.5294 102.553 40.9785Z" fill="#1A1A1A"/>
<path d="M57.0665 32.5216C57.7607 32.5216 58.3121 31.9504 58.3121 31.2669C58.3121 30.614 58.5571 29.9917 59.0268 29.5225C59.4863 29.0532 60.1091 28.7982 60.7625 28.788H60.7727C61.4262 28.788 62.0388 29.043 62.4983 29.5021C62.9679 29.9611 63.2232 30.5834 63.2334 31.2363C63.2334 31.93 63.7949 32.491 64.4892 32.4808C65.1835 32.4808 65.7349 31.9096 65.7349 31.2261C65.7145 28.4921 63.4784 26.2989 60.7421 26.2989C58.0058 26.3193 55.7902 28.5533 55.8106 31.2873C55.8106 31.6239 55.9433 31.9402 56.1782 32.1748C56.413 32.4094 56.7295 32.5318 57.0562 32.5318L57.0665 32.5216Z" fill="#1A1A1A"/>
<path d="M83.0513 32.5216C83.7456 32.5216 84.2969 31.9504 84.2969 31.2669C84.2969 30.614 84.542 29.9917 85.0117 29.5225C85.4711 29.0532 86.0939 28.7982 86.7474 28.788C87.3804 28.788 88.0237 29.0328 88.4933 29.5021C88.963 29.9611 89.2182 30.5834 89.2285 31.2363C89.2285 31.9198 89.79 32.4808 90.4843 32.4808C91.1786 32.4808 91.7299 31.9096 91.7299 31.2261C91.7095 28.4921 89.4837 26.2989 86.7372 26.2989C84.0008 26.3193 81.7852 28.5533 81.8057 31.2873C81.8057 31.6239 81.9384 31.9402 82.1732 32.1748C82.4081 32.4094 82.7246 32.5318 83.0513 32.5318V32.5216Z" fill="#1A1A1A"/>
</svg>
