<svg width="56" height="56" viewBox="0 0 56 56" fill="none" xmlns="http://www.w3.org/2000/svg">
<path d="M42.575 41.9605C44.1082 39.4106 45 36.4307 45 33.2408C44.99 19.0314 18.8361 -5.08773 21.0006 0.952044C25.1892 12.6216 11 20.8013 11 33.2308C11 36.4207 11.8818 39.4106 13.425 41.9505C18.0445 40.5606 22.9346 39.8206 28.005 39.8206C33.0754 39.8206 37.9655 40.5706 42.585 41.9505L42.575 41.9605Z" fill="#57ADFF"/>
<path d="M42.595 41.9705C37.9755 40.5806 33.0855 39.8406 28.015 39.8406C22.9446 39.8406 18.0545 40.5906 13.435 41.9705C14.8479 44.3204 16.812 46.2904 19.1568 47.7103V53.1201C19.1568 54.71 20.4495 56 22.0427 56C23.636 56 24.9287 54.71 24.9287 53.1201V49.9102C25.9307 50.0902 26.9629 50.2002 28.0251 50.2002C29.0872 50.2002 30.1494 50.0902 31.1615 49.9002V53.1101C31.1615 54.7 32.4542 55.99 34.0474 55.99C35.6407 55.99 36.9334 54.7 36.9334 53.1101V47.6703C39.2482 46.2404 41.2022 44.2804 42.6051 41.9505L42.595 41.9705Z" fill="#55EE55"/>
<path d="M31.3419 22.6312C29.9691 22.6312 28.7566 23.3112 28.0251 24.3612C27.2935 23.3212 26.081 22.6312 24.7082 22.6312C22.4636 22.6312 20.6499 24.4412 20.6499 26.6811C20.6499 28.921 22.4636 30.7309 24.7082 30.7309C26.081 30.7309 27.2935 30.051 28.0251 29.001C28.7566 30.041 29.9691 30.7309 31.3419 30.7309C33.5865 30.7309 35.4002 28.921 35.4002 26.6811C35.4002 24.4412 33.5865 22.6312 31.3419 22.6312Z" fill="white"/>
<path d="M21.5417 18.3514C20.6899 18.3514 20.0085 19.0414 20.0085 19.8813C20.0085 20.7213 20.7 21.4113 21.5417 21.4113C22.3834 21.4113 23.0749 20.7213 23.0749 19.8813C23.0749 19.0414 22.3834 18.3514 21.5417 18.3514Z" fill="#1A1A1A"/>
<path d="M34.4483 18.3314C33.5965 18.3314 32.9151 19.0214 32.9151 19.8613C32.9151 20.7013 33.6065 21.3913 34.4483 21.3913C35.29 21.3913 35.9814 20.7013 35.9814 19.8613C35.9814 19.0214 35.29 18.3314 34.4483 18.3314Z" fill="#1A1A1A"/>
<path d="M31.903 26.2111C29.8588 26.2111 29.0371 24.7712 28.7465 24.0112C29.5582 23.8212 30.1394 23.3212 30.1394 22.7312C30.1394 21.9813 29.1975 21.3713 28.0251 21.3713C26.8526 21.3713 25.9107 21.9813 25.9107 22.7312C25.9107 23.3112 26.4719 23.8012 27.2535 24.0012C27.0731 24.7312 26.4418 26.1911 24.1471 26.1911C23.7863 26.1911 23.4957 26.4811 23.4957 26.8411C23.4957 27.2011 23.7863 27.4911 24.1471 27.4911C26.2314 27.4911 27.4238 26.5211 28.0451 25.4711C28.7465 26.5211 29.9691 27.5111 31.9131 27.5111C32.2738 27.5111 32.5644 27.2211 32.5644 26.8611C32.5644 26.5011 32.2738 26.2111 31.9131 26.2111H31.903Z" fill="#1A1A1A"/>
</svg>
