<svg width="120" height="120" viewBox="0 0 120 120" fill="none" xmlns="http://www.w3.org/2000/svg">
<path d="M90.8783 27.6155C88.3818 27.6155 85.9559 27.9253 83.6406 28.5149C77.2485 23.1981 69.0244 20 60.0352 20C51.0461 20 42.8018 23.2081 36.4097 28.5249C34.0844 27.9353 31.6484 27.6155 29.1318 27.6155C13.0459 27.6155 0 40.5678 0 56.5383C0 72.5087 13.0459 85.461 29.1318 85.461C31.6484 85.461 34.0844 85.1412 36.4097 84.5516C38.4431 86.2506 40.6778 87.7197 43.0534 88.949V99.7126C43.0534 102.081 44.9862 103.99 47.3618 103.99H47.6537C50.0394 103.99 51.9621 102.071 51.9621 99.7126V92.177C54.5592 92.7567 57.2569 93.0665 60.0252 93.0665C62.7934 93.0665 65.6019 92.7367 68.2493 92.1371V99.7026C68.2493 102.071 70.182 103.98 72.5577 103.98H72.8496C75.2353 103.98 77.158 102.061 77.158 99.7026V88.859C79.4732 87.6497 81.6374 86.2006 83.6306 84.5516C85.9458 85.1412 88.3718 85.451 90.8682 85.451C106.954 85.451 120 72.4987 120 56.5283C120 40.5578 106.954 27.6055 90.8682 27.6055L90.8783 27.6155Z" fill="#A6C4E3"/>
<path d="M83.6306 47.6336C86.3102 47.6336 88.4825 45.4768 88.4825 42.8164C88.4825 40.156 86.3102 37.9993 83.6306 37.9993C80.9509 37.9993 78.7786 40.156 78.7786 42.8164C78.7786 45.4768 80.9509 47.6336 83.6306 47.6336Z" fill="white"/>
<path d="M36.6312 47.9034C39.3108 47.9034 41.4831 45.7467 41.4831 43.0863C41.4831 40.4258 39.3108 38.2691 36.6312 38.2691C33.9515 38.2691 31.7792 40.4258 31.7792 43.0863C31.7792 45.7467 33.9515 47.9034 36.6312 47.9034Z" fill="white"/>
<path d="M60.2064 51.5412C67.9562 51.5412 74.2387 49.3845 74.2387 46.7241C74.2387 44.0637 67.9562 41.907 60.2064 41.907C52.4565 41.907 46.174 44.0637 46.174 46.7241C46.174 49.3845 52.4565 51.5412 60.2064 51.5412Z" fill="#FFEB55"/>
<path d="M52.1433 38.7588C54.3981 38.7488 56.2101 36.9199 56.2 34.6813C56.2 34.1916 55.7973 33.8018 55.3041 33.8018C54.8108 33.8018 54.4183 34.2015 54.4183 34.6913C54.4183 35.9605 53.4016 36.9899 52.1231 36.9999C50.8447 36.9999 49.8079 35.9905 49.7978 34.7212C49.7978 34.2315 49.3952 33.8418 48.9019 33.8418C48.4087 33.8418 48.0161 34.2415 48.0161 34.7312C48.0262 36.9699 49.8683 38.7688 52.1231 38.7588H52.1433Z" fill="#1A1A1A"/>
<path d="M68.3097 38.6089C70.5646 38.5989 72.3765 36.77 72.3664 34.5313C72.3664 34.0416 71.9638 33.6519 71.4705 33.6519C70.9773 33.6519 70.5847 34.0516 70.5847 34.5413C70.5847 35.8106 69.568 36.84 68.2896 36.85C67.0112 36.85 65.9743 35.8406 65.9643 34.5713C65.9643 34.0816 65.5616 33.6918 65.0684 33.6918C64.5751 33.6918 64.1825 34.0916 64.1825 34.5813C64.1926 36.82 66.0347 38.6189 68.2896 38.6089H68.3097Z" fill="#1A1A1A"/>
<path d="M66.7192 45.4249C66.7192 45.4249 63.4477 46.7341 60.146 46.7341C56.502 46.7341 53.4418 45.4449 53.4116 45.4249C52.858 45.185 52.2238 45.4349 51.9822 45.9845C51.7406 46.5342 51.9923 47.1638 52.5459 47.4037C52.6869 47.4637 56.0289 48.8828 60.146 48.8828C63.8906 48.8828 67.3937 47.4736 67.5447 47.4037C68.0983 47.1738 68.36 46.5442 68.1386 45.9945C67.9071 45.4449 67.2829 45.185 66.7192 45.4049V45.4249Z" fill="#1A1A1A"/>
<path d="M68.2694 96.2246V99.7225C68.2694 102.091 70.2022 104 72.5778 104H72.8697C75.2554 104 77.1781 102.081 77.1781 99.7225V96.2246H68.2594H68.2694Z" fill="#1A1A1A"/>
<path d="M43.0736 99.7225C43.0736 102.091 45.0063 104 47.3819 104H47.6739C50.0596 104 51.9822 102.081 51.9822 99.7225V96.2246H43.0635V99.7225H43.0736Z" fill="#1A1A1A"/>
</svg>
