<svg width="56" height="56" viewBox="0 0 56 56" fill="none" xmlns="http://www.w3.org/2000/svg">
<path d="M43.575 41.9605C45.1082 39.4106 46 36.4307 46 33.2309C45.99 19.0314 19.8361 -5.08772 22.0006 0.952057C26.1892 12.6216 12 20.8013 12 33.2309C12 36.4207 12.8818 39.4106 14.425 41.9605C19.0445 40.5706 23.9346 39.8306 29.005 39.8306C34.0754 39.8306 38.9655 40.5806 43.585 41.9605H43.575Z" fill="#57ADFF"/>
<path d="M32.3319 22.5912C30.959 22.5912 29.7465 23.2712 29.015 24.3212C28.2835 23.2812 27.071 22.5912 25.6982 22.5912C23.4536 22.5912 21.6398 24.4012 21.6398 26.6411C21.6398 28.881 23.4536 30.6909 25.6982 30.6909C27.071 30.6909 28.2835 30.011 29.015 28.961C29.7465 30.001 30.959 30.6909 32.3319 30.6909C34.5765 30.6909 36.3902 28.881 36.3902 26.6411C36.3902 24.4012 34.5765 22.5912 32.3319 22.5912Z" fill="white"/>
<path d="M43.595 41.9705C38.9755 40.5806 34.0855 39.8406 29.015 39.8406C23.9446 39.8406 19.0545 40.5906 14.435 41.9705C15.8479 44.3204 17.812 46.2904 20.1568 47.7103V53.1201C20.1568 54.71 21.4495 56 23.0427 56C24.636 56 25.9287 54.71 25.9287 53.1201V49.9102C26.9307 50.0902 27.9629 50.2002 29.0251 50.2002C30.0872 50.2002 31.1494 50.0902 32.1615 49.9002V53.1101C32.1615 54.7001 33.4542 55.99 35.0474 55.99C36.6407 55.99 37.9334 54.7001 37.9334 53.1101V47.6703C40.2482 46.2404 42.2022 44.2804 43.6051 41.9505L43.595 41.9705Z" fill="#55EE55"/>
<path d="M30.0973 24.0412C30.7185 23.8012 31.1294 23.3712 31.1294 22.8712C31.1294 22.1213 30.1874 21.5113 29.015 21.5113C27.8426 21.5113 26.9007 22.1213 26.9007 22.8712C26.9007 23.3512 27.2915 23.7712 27.8727 24.0212L26.0289 26.0111C25.7884 26.2711 25.7984 26.6811 26.069 26.9311C26.1892 27.0511 26.3495 27.1011 26.5099 27.1011C26.6802 27.1011 26.8606 27.0311 26.9909 26.8911L28.9649 24.7612L31.0793 26.7611C31.3398 27.0111 31.7507 27.0011 32.0012 26.7411C32.2517 26.4811 32.2417 26.0711 31.9811 25.8211L30.0973 24.0412Z" fill="#1A1A1A"/>
<path d="M37.9234 20.1513L36.8812 19.4214L37.9234 18.6914C38.1739 18.5114 38.234 18.1614 38.0637 17.9114C37.8833 17.6614 37.5326 17.6014 37.282 17.7714L35.9092 18.7314L34.5364 17.7714C34.2859 17.5914 33.9251 17.6514 33.7548 17.9114C33.5744 18.1614 33.6345 18.5214 33.8951 18.6914L34.9372 19.4214L33.8951 20.1513C33.6446 20.3313 33.5844 20.6813 33.7548 20.9313C33.865 21.0913 34.0354 21.1713 34.2157 21.1713C34.326 21.1713 34.4462 21.1413 34.5364 21.0713L35.9092 20.1113L37.282 21.0713C37.3823 21.1413 37.4925 21.1713 37.6027 21.1713C37.7831 21.1713 37.9534 21.0913 38.0637 20.9313C38.244 20.6813 38.1839 20.3213 37.9234 20.1513Z" fill="#1A1A1A"/>
<path d="M24.0147 17.9014C23.8344 17.6514 23.4836 17.5914 23.2331 17.7614L21.8603 18.7214L20.4875 17.7614C20.237 17.5814 19.8762 17.6414 19.7059 17.9014C19.5255 18.1514 19.5856 18.5114 19.8462 18.6814L20.8883 19.4114L19.8462 20.1413C19.5956 20.3213 19.5355 20.6713 19.7059 20.9213C19.8161 21.0813 19.9864 21.1613 20.1668 21.1613C20.277 21.1613 20.3973 21.1313 20.4875 21.0613L21.8603 20.1013L23.2331 21.0613C23.3333 21.1313 23.4436 21.1613 23.5538 21.1613C23.7342 21.1613 23.9045 21.0813 24.0147 20.9213C24.1951 20.6713 24.135 20.3113 23.8744 20.1413L22.8323 19.4114L23.8744 18.6814C24.125 18.5014 24.1851 18.1514 24.0147 17.9014Z" fill="#1A1A1A"/>
</svg>
