<svg width="148" height="148" viewBox="0 0 148 148" fill="none" xmlns="http://www.w3.org/2000/svg">
<path d="M134.344 60.1186C134.344 26.9137 107.481 0 74.3489 0C41.2169 0 14.3438 26.9137 14.3438 60.1186C14.3438 72.9668 18.3768 84.8637 25.2278 94.6328V124.615C25.2278 127.418 27.4944 129.689 30.292 129.689C33.0896 129.689 35.3563 127.418 35.3563 124.615V105.793C41.8091 111.327 49.4463 115.501 57.8288 117.905V131.193H67.651V119.848C69.8462 120.094 72.072 120.227 74.3284 120.227C75.7987 120.227 77.2383 120.155 78.678 120.053V131.193H88.5001V118.519C97.8833 116.237 106.399 111.757 113.474 105.63V124.442C113.474 127.244 115.741 129.515 118.538 129.515C121.336 129.515 123.603 127.244 123.603 124.442V94.3566C130.352 84.6386 134.313 72.8338 134.313 60.0981L134.344 60.1186Z" fill="#FFEB55"/>
<path d="M36.6734 29.7064C33.1917 29.7064 30.3737 32.5297 30.3737 36.018C30.3737 39.5062 33.1917 42.3296 36.6734 42.3296C40.155 42.3296 42.973 39.5062 42.973 36.018C42.973 32.5297 40.155 29.7064 36.6734 29.7064Z" fill="#FF9FD2"/>
<path d="M113.484 29.7064C110.003 29.7064 107.185 32.5297 107.185 36.018C107.185 39.5062 110.003 42.3296 113.484 42.3296C116.966 42.3296 119.784 39.5062 119.784 36.018C119.784 32.5297 116.966 29.7064 113.484 29.7064Z" fill="#FF9FD2"/>
<path d="M57.8288 139.571H57.645C52.9994 139.571 49.2319 143.346 49.2319 148H67.7225V130.876H57.8288V139.571Z" fill="#1A1A1A"/>
<path d="M88.7758 139.571H88.592V130.876H78.6984V148H97.189C97.189 143.346 93.4214 139.571 88.7758 139.571Z" fill="#1A1A1A"/>
<path d="M60.6979 32.8264C62.4065 32.8264 63.7915 31.4387 63.7915 29.7268C63.7915 28.015 62.4065 26.6273 60.6979 26.6273C58.9893 26.6273 57.6042 28.015 57.6042 29.7268C57.6042 31.4387 58.9893 32.8264 60.6979 32.8264Z" fill="#1A1A1A"/>
<path d="M84.1506 30.8316L90.144 33.6447C90.2971 33.7163 90.4605 33.747 90.6136 33.747C91.0322 33.747 91.4305 33.5118 91.6244 33.1026C91.8899 32.5502 91.6449 31.8853 91.0935 31.6193L87.1422 29.7678L90.971 27.7935C91.5121 27.5071 91.7265 26.8421 91.4509 26.2897C91.165 25.7476 90.5013 25.5328 89.95 25.809L84.12 28.8267C83.7422 29.021 83.5074 29.4097 83.5176 29.8394C83.5176 30.2588 83.7728 30.6475 84.1608 30.8214L84.1506 30.8316Z" fill="#1A1A1A"/>
<path d="M107.369 44.0583C101.926 41.1839 103.193 36.1612 103.254 35.9361C103.417 35.3428 103.07 34.7291 102.478 34.5654C101.886 34.4017 101.273 34.7495 101.11 35.3428C100.763 36.5806 100.671 38.5856 101.426 40.6622C100.538 41.0611 87.6731 46.7487 74.4612 46.7487C59.4216 46.7487 46.8835 40.7133 46.761 40.6519C46.2097 40.386 45.546 40.611 45.2805 41.1634C45.0151 41.7158 45.2397 42.3807 45.791 42.6467C46.322 42.9024 58.8907 48.9685 74.4612 48.9685C88.5818 48.9685 101.845 42.9126 102.406 42.6569C102.417 42.6569 102.427 42.6467 102.437 42.6364C103.284 43.8844 104.53 45.0711 106.327 46.0224C106.48 46.1042 106.654 46.1451 106.817 46.1554C107.226 46.1554 107.624 45.9508 107.828 45.5621C108.114 45.0199 107.91 44.3448 107.369 44.0583Z" fill="#1A1A1A"/>
</svg>
