<svg width="120" height="120" viewBox="0 0 120 120" fill="none" xmlns="http://www.w3.org/2000/svg">
<path d="M90.9103 27.5983C88.466 27.5983 86.1023 27.8974 83.8391 28.4558C77.4619 23.1809 69.254 20 60.2917 20C51.3294 20 43.0109 23.2208 36.6136 28.5655C34.2196 27.9373 31.7049 27.5983 29.1098 27.5983C13.036 27.5983 0 40.5214 0 56.4558C0 72.3903 13.036 85.3134 29.1098 85.3134C31.7049 85.3134 34.2196 84.9744 36.6136 84.3462C38.6354 86.0413 40.8483 87.5171 43.2121 88.7436V99.7222C43.2121 102.085 45.1433 103.99 47.5172 103.99H47.8089C50.1928 103.99 52.114 102.075 52.114 99.7222V91.9943C54.7393 92.5826 57.4753 92.9117 60.2816 92.9117C63.088 92.9117 65.6127 92.6125 68.1475 92.0641V99.7023C68.1475 102.066 70.0788 103.97 72.4526 103.97H72.7443C75.1282 103.97 77.0494 102.056 77.0494 99.7023V88.8932C79.4736 87.6567 81.7469 86.1709 83.8189 84.4459C86.0821 85.0043 88.456 85.3034 90.8902 85.3034C106.964 85.3034 120 72.3803 120 56.4459C120 40.5114 106.964 27.5883 90.8902 27.5883L90.9103 27.5983Z" fill="#A6C4E3"/>
<path d="M83.6077 47.9003C86.2853 47.9003 88.456 45.7484 88.456 43.094C88.456 40.4396 86.2853 38.2877 83.6077 38.2877C80.9301 38.2877 78.7594 40.4396 78.7594 43.094C78.7594 45.7484 80.9301 47.9003 83.6077 47.9003Z" fill="white"/>
<path d="M36.5633 47.9801C39.2409 47.9801 41.4116 45.8282 41.4116 43.1738C41.4116 40.5194 39.2409 38.3675 36.5633 38.3675C33.8856 38.3675 31.715 40.5194 31.715 43.1738C31.715 45.8282 33.8856 47.9801 36.5633 47.9801Z" fill="white"/>
<path d="M60.1811 51.5997C67.9473 51.5997 74.2431 49.4122 74.2431 46.7137C74.2431 44.0152 67.9473 41.8276 60.1811 41.8276C52.4148 41.8276 46.119 44.0152 46.119 46.7137C46.119 49.4122 52.4148 51.5997 60.1811 51.5997Z" fill="#FFEB55"/>
<path d="M51.772 38.3775C53.1608 38.3775 54.2867 37.2614 54.2867 35.8846C54.2867 34.5078 53.1608 33.3917 51.772 33.3917C50.3832 33.3917 49.2573 34.5078 49.2573 35.8846C49.2573 37.2614 50.3832 38.3775 51.772 38.3775Z" fill="#1A1A1A"/>
<path d="M68.228 38.3775C69.6168 38.3775 70.7427 37.2614 70.7427 35.8846C70.7427 34.5078 69.6168 33.3917 68.228 33.3917C66.8392 33.3917 65.7133 34.5078 65.7133 35.8846C65.7133 37.2614 66.8392 38.3775 68.228 38.3775Z" fill="#1A1A1A"/>
<path d="M68.1878 96.2422V99.7322C68.1878 102.095 70.119 104 72.4929 104H72.7846C75.1685 104 77.0897 102.085 77.0897 99.7322V96.2422H68.1777H68.1878Z" fill="#1A1A1A"/>
<path d="M43.2322 99.7322C43.2322 102.095 45.1634 104 47.5373 104H47.829C50.2129 104 52.1341 102.085 52.1341 99.7322V96.2422H43.2221V99.7322H43.2322Z" fill="#1A1A1A"/>
<path d="M68.3386 45.906C68.1073 45.3575 67.4836 45.0983 66.9204 45.3177C66.8902 45.3276 63.6513 46.6239 60.352 46.6239C56.7108 46.6239 53.653 45.3376 53.6228 45.3177C53.0696 45.0783 52.4359 45.3276 52.1945 45.8761C51.9531 46.4245 52.2045 47.0527 52.7578 47.292C52.8986 47.3519 56.2381 48.7678 60.352 48.7678C64.0939 48.7678 67.5943 47.3618 67.7452 47.292C68.2984 47.0627 68.5599 46.4345 68.3386 45.886V45.906Z" fill="#1A1A1A"/>
</svg>
