<svg width="56" height="56" viewBox="0 0 56 56" fill="none" xmlns="http://www.w3.org/2000/svg">
<path d="M42.575 41.9605C44.1082 39.4106 45 36.4307 45 33.2309C44.99 19.0314 18.8361 -5.08772 21.0006 0.952057C25.1892 12.6216 11 20.8013 11 33.2309C11 36.4207 11.8818 39.4106 13.425 41.9605C18.0445 40.5706 22.9346 39.8306 28.005 39.8306C33.0754 39.8306 37.9655 40.5806 42.585 41.9605H42.575Z" fill="#57ADFF"/>
<path d="M42.595 41.9705C37.9755 40.5806 33.0855 39.8406 28.015 39.8406C22.9446 39.8406 18.0545 40.5906 13.435 41.9705C14.8479 44.3204 16.812 46.2904 19.1568 47.7103V53.1201C19.1568 54.71 20.4495 56 22.0427 56C23.636 56 24.9287 54.71 24.9287 53.1201V49.9102C25.9307 50.0902 26.9629 50.2002 28.0251 50.2002C29.0872 50.2002 30.0793 50.1002 31.0613 49.9202V53.1201C31.0613 54.71 32.354 56 33.9472 56C35.5405 56 36.8332 54.71 36.8332 53.1201V47.7403C39.1981 46.3104 41.1821 44.3304 42.6051 41.9605L42.595 41.9705Z" fill="#55EE55"/>
<path d="M31.382 22.5213C30.0091 22.5213 28.7966 23.2012 28.0651 24.2512C27.3336 23.2112 26.1211 22.5213 24.7483 22.5213C22.5037 22.5213 20.6899 24.3312 20.6899 26.5711C20.6899 28.811 22.5037 30.621 24.7483 30.621C26.1211 30.621 27.3336 29.941 28.0651 28.891C28.7966 29.931 30.0091 30.621 31.382 30.621C33.6266 30.621 35.4403 28.811 35.4403 26.5711C35.4403 24.3312 33.6266 22.5213 31.382 22.5213Z" fill="white"/>
<path d="M35.8712 20.3213L34.338 19.3914L35.8411 18.5114C36.1117 18.3514 36.2019 18.0114 36.0416 17.7414C35.8812 17.4714 35.5405 17.3814 35.27 17.5414L32.9552 18.9014C32.7849 19.0014 32.6746 19.1814 32.6746 19.3814C32.6746 19.5814 32.7748 19.7614 32.9452 19.8614L35.28 21.2813C35.3702 21.3413 35.4704 21.3613 35.5706 21.3613C35.761 21.3613 35.9514 21.2613 36.0516 21.0913C36.2119 20.8213 36.1317 20.4813 35.8612 20.3213H35.8712Z" fill="#1A1A1A"/>
<path d="M22.9847 18.9014L20.6699 17.5414C20.3994 17.3814 20.0586 17.4714 19.8983 17.7414C19.738 18.0114 19.8282 18.3514 20.0987 18.5114L21.6018 19.3914L20.0687 20.3213C19.7981 20.4813 19.7179 20.8313 19.8783 21.0913C19.9885 21.2613 20.1689 21.3613 20.3593 21.3613C20.4595 21.3613 20.5597 21.3313 20.6499 21.2813L22.9847 19.8614C23.155 19.7614 23.2552 19.5714 23.2552 19.3814C23.2552 19.1814 23.145 19.0014 22.9747 18.9014H22.9847Z" fill="#1A1A1A"/>
<path d="M31.9431 26.3211C29.8989 26.3211 29.0772 24.8812 28.7866 24.1212C29.5983 23.9312 30.1795 23.4312 30.1795 22.8412C30.1795 22.0913 29.2375 21.4813 28.0651 21.4813C26.8927 21.4813 25.9508 22.0913 25.9508 22.8412C25.9508 23.4212 26.5119 23.9112 27.2935 24.1112C27.1132 24.8412 26.4819 26.3011 24.1871 26.3011C23.8264 26.3011 23.5358 26.5911 23.5358 26.9511C23.5358 27.3111 23.8264 27.6011 24.1871 27.6011C26.2714 27.6011 27.4639 26.6311 28.0852 25.5811C28.7866 26.6311 30.0091 27.6211 31.9531 27.6211C32.3139 27.6211 32.6045 27.3311 32.6045 26.9711C32.6045 26.6111 32.3139 26.3211 31.9531 26.3211H31.9431Z" fill="#1A1A1A"/>
</svg>
