<svg width="148" height="148" viewBox="0 0 148 148" fill="none" xmlns="http://www.w3.org/2000/svg">
<path d="M134 60.11C134 26.91 107.131 0 73.995 0C40.8585 0 14 26.91 14 60.11C14 72.96 18.0323 84.85 24.8891 94.62V124.61C24.8891 127.41 27.1548 129.69 29.9594 129.69C32.764 129.69 35.0297 127.42 35.0297 124.61V105.79C41.4773 111.32 49.1127 115.5 57.5066 117.9V131.19H67.3278V119.84C69.5236 120.08 71.7493 120.22 74.005 120.22C75.4722 120.22 76.9194 120.15 78.3567 120.05V131.19H88.1778V118.52C97.5598 116.24 106.074 111.75 113.15 105.64V124.46C113.15 127.26 115.416 129.54 118.22 129.54C121.025 129.54 123.291 127.27 123.291 124.46V94.38C130.038 84.66 134 72.86 134 60.12V60.11Z" fill="#FFEB55"/>
<path d="M36.3272 42.33C39.8055 42.33 42.6251 39.5049 42.6251 36.02C42.6251 32.5351 39.8055 29.71 36.3272 29.71C32.849 29.71 30.0293 32.5351 30.0293 36.02C30.0293 39.5049 32.849 42.33 36.3272 42.33Z" fill="#FF9FD2"/>
<path d="M113.13 29.71C109.657 29.71 106.832 32.53 106.832 36.02C106.832 39.51 109.647 42.33 113.13 42.33C116.613 42.33 119.428 39.51 119.428 36.02C119.428 32.53 116.613 29.71 113.13 29.71Z" fill="#FF9FD2"/>
<path d="M57.4866 139.57H57.307C52.6659 139.57 48.8931 143.34 48.8931 148H67.3777V130.88H57.4866V139.58V139.57Z" fill="#1A1A1A"/>
<path d="M88.4273 139.57H88.2477V130.87H78.3567V148H96.8412C96.8412 143.35 93.0784 139.57 88.4273 139.57Z" fill="#1A1A1A"/>
<path d="M102.6 41.18C102.341 40.62 101.682 40.38 101.123 40.64C100.993 40.7 87.7287 46.75 74.1148 46.75C59.0736 46.75 46.5376 40.71 46.4179 40.65C45.8689 40.38 45.2002 40.61 44.9307 41.16C44.6612 41.71 44.8908 42.38 45.4397 42.65C45.9687 42.91 58.5446 48.98 74.1148 48.98C88.2377 48.98 101.502 42.92 102.061 42.66C102.62 42.4 102.86 41.74 102.6 41.18Z" fill="#1A1A1A"/>
<path d="M60.3512 32.83C62.0579 32.83 63.4452 31.44 63.4452 29.73C63.4452 28.02 62.0579 26.63 60.3512 26.63C58.6444 26.63 57.2571 28.02 57.2571 29.73C57.2571 31.44 58.6444 32.83 60.3512 32.83Z" fill="#1A1A1A"/>
<path d="M86.4611 32.83C88.1678 32.83 89.5552 31.44 89.5552 29.73C89.5552 28.02 88.1678 26.63 86.4611 26.63C84.7544 26.63 83.367 28.02 83.367 29.73C83.367 31.44 84.7544 32.83 86.4611 32.83Z" fill="#1A1A1A"/>
</svg>
