<svg width="120" height="120" viewBox="0 0 120 120" fill="none" xmlns="http://www.w3.org/2000/svg">
<path d="M90.888 25.5736C88.4056 25.5736 86.004 25.8838 83.7033 26.454C77.3158 21.1815 69.0817 18 60.1009 18C51.1201 18 42.8557 21.1915 36.4581 26.494C34.1171 25.8938 31.665 25.5736 29.1322 25.5736C13.0474 25.5736 0 38.4597 0 54.3473C0 70.2349 13.0474 83.121 29.1322 83.121C31.665 83.121 34.1171 82.8009 36.4581 82.2006C38.4157 83.8213 40.5348 85.242 42.8052 86.4326V97.728C42.8052 100.079 44.7326 101.99 47.114 101.99H47.4067C49.7881 101.99 51.7154 100.079 51.7154 97.728V89.7342C54.4097 90.3545 57.2048 90.6946 60.0908 90.6946C62.9768 90.6946 65.5197 90.3845 68.0928 89.8242V97.728C68.0928 100.079 70.0202 101.99 72.4016 101.99H72.6942C75.0757 101.99 77.003 100.079 77.003 97.728V86.6227C79.3945 85.4021 81.6347 83.9314 83.6831 82.2306C85.9839 82.8109 88.3855 83.111 90.8678 83.111C106.963 83.111 120 70.2249 120 54.3373C120 38.4497 106.953 25.5636 90.8678 25.5636L90.888 25.5736Z" fill="#A6C4E3"/>
<path d="M83.5822 36.4088C80.8981 36.4088 78.7286 38.5598 78.7286 41.2011C78.7286 43.8423 80.8981 45.9933 83.5822 45.9933C86.2664 45.9933 88.4359 43.8423 88.4359 41.2011C88.4359 38.5598 86.2664 36.4088 83.5822 36.4088Z" fill="white"/>
<path d="M36.4783 46.0334C39.1589 46.0334 41.332 43.8878 41.332 41.2411C41.332 38.5944 39.1589 36.4488 36.4783 36.4488C33.7977 36.4488 31.6246 38.5944 31.6246 41.2411C31.6246 43.8878 33.7977 46.0334 36.4783 46.0334Z" fill="white"/>
<path d="M74.0464 46.2435C74.0464 49.0248 67.7598 49.475 60.0101 49.475C52.2603 49.475 45.9738 49.0248 45.9738 46.2435C45.9738 43.4621 52.2603 39.8604 60.0101 39.8604C67.7598 39.8604 74.0464 43.4621 74.0464 46.2435Z" fill="#FFEB55"/>
<path d="M68.113 94.2563V97.738C68.113 100.089 70.0404 102 72.4218 102H72.7144C75.0959 102 77.0232 100.089 77.0232 97.738V94.2563H68.113Z" fill="#1A1A1A"/>
<path d="M42.8254 97.738C42.8254 100.089 44.7528 102 47.1342 102H47.4268C49.8083 102 51.7356 100.089 51.7356 97.738V94.2563H42.8254V97.738Z" fill="#1A1A1A"/>
<path d="M66.4884 35.3783L70.3935 37.1891C70.5146 37.2492 70.6357 37.2692 70.7669 37.2692C71.0898 37.2692 71.4026 37.0891 71.554 36.7789C71.7558 36.3487 71.5742 35.8385 71.1403 35.6384L68.8295 34.5679L71.0595 33.4273C71.4833 33.2072 71.6549 32.687 71.4329 32.2668C71.2109 31.8466 70.6862 31.6765 70.2624 31.8966L66.4581 33.8375C66.1655 33.9876 65.9839 34.2878 65.9839 34.6179C65.9839 34.9481 66.1857 35.2382 66.4884 35.3783Z" fill="#1A1A1A"/>
<path d="M48.6983 36.7689C48.8496 37.0791 49.1625 37.2592 49.4854 37.2592C49.6065 37.2592 49.7376 37.2292 49.8587 37.1791L53.7639 35.3683C54.0666 35.2282 54.2583 34.9381 54.2684 34.6079C54.2684 34.2778 54.0969 33.9776 53.7941 33.8275L49.9899 31.8866C49.5661 31.6665 49.0414 31.8366 48.8194 32.2568C48.5974 32.677 48.7689 33.1972 49.1927 33.4173L51.4228 34.5579L49.112 35.6284C48.6781 35.8285 48.4864 36.3387 48.6983 36.7689Z" fill="#1A1A1A"/>
<path d="M68.5671 46.1634C68.5671 44.5526 64.7427 41.8313 60.0202 41.8313C55.2977 41.8313 51.4733 44.5526 51.4733 46.1634C51.4733 47.7742 55.2977 47.314 60.0202 47.314C64.7427 47.314 68.5671 47.7742 68.5671 46.1634Z" fill="#1A1A1A"/>
</svg>
