<svg width="120" height="120" viewBox="0 0 120 120" fill="none" xmlns="http://www.w3.org/2000/svg">
<path d="M90.8803 25.5962C88.3276 25.5962 85.8555 25.9274 83.4945 26.5294C77.0974 21.2111 68.8439 18 59.8335 18C50.8232 18 42.6402 21.181 36.2533 26.4692C33.9729 25.8973 31.5917 25.5962 29.1297 25.5962C13.0463 25.5962 0 38.5208 0 54.4559C0 70.3909 13.0463 83.3155 29.1297 83.3155C31.5917 83.3155 33.9729 83.0145 36.2533 82.4425C38.2914 84.1283 40.5112 85.5934 42.8925 86.8176V97.7152C42.8925 100.073 44.8196 101.99 47.2009 101.99H47.4935C49.8747 101.99 51.8019 100.073 51.8019 97.7152V90.0287C54.3849 90.6006 57.0689 90.9117 59.8335 90.9117C62.5982 90.9117 65.5041 90.5705 68.188 89.9584V97.7152C68.188 100.073 70.1152 101.99 72.4964 101.99H72.789C75.1703 101.99 77.0975 100.073 77.0975 97.7152V86.647C79.3778 85.4428 81.5169 84.0079 83.4844 82.3722C85.8454 82.9844 88.3175 83.3055 90.8703 83.3055C106.964 83.3055 120 70.3808 120 54.4458C120 38.5108 106.954 25.5862 90.8703 25.5862L90.8803 25.5962Z" fill="#A6C4E3"/>
<path d="M83.6458 45.8963C86.3262 45.8963 88.4991 43.7443 88.4991 41.0897C88.4991 38.4351 86.3262 36.2831 83.6458 36.2831C80.9655 36.2831 78.7926 38.4351 78.7926 41.0897C78.7926 43.7443 80.9655 45.8963 83.6458 45.8963Z" fill="white"/>
<path d="M36.2331 46.0268C38.9135 46.0268 41.0864 43.8748 41.0864 41.2202C41.0864 38.5656 38.9135 36.4136 36.2331 36.4136C33.5527 36.4136 31.3798 38.5656 31.3798 41.2202C31.3798 43.8748 33.5527 46.0268 36.2331 46.0268Z" fill="white"/>
<path d="M59.9647 49.7596C67.7161 49.7596 73.9998 47.6077 73.9998 44.9531C73.9998 42.2984 67.7161 40.1465 59.9647 40.1465C52.2133 40.1465 45.9295 42.2984 45.9295 44.9531C45.9295 47.6077 52.2133 49.7596 59.9647 49.7596Z" fill="#FFEB55"/>
<path d="M68.188 94.2332V97.7252C68.188 100.083 70.1152 102 72.4964 102H72.789C75.1703 102 77.0975 100.083 77.0975 97.7252V94.2332H68.188Z" fill="#1A1A1A"/>
<path d="M42.9025 97.7252C42.9025 100.083 44.8297 102 47.211 102H47.5036C49.8848 102 51.812 100.083 51.812 97.7252V94.2332H42.9025V97.7252Z" fill="#1A1A1A"/>
<path d="M51.8725 37.5977C53.6181 37.5977 55.0408 36.1928 55.0408 34.4668C55.0408 32.7409 53.6181 31.336 51.8725 31.336C50.127 31.336 48.7043 32.7409 48.7043 34.4668C48.7043 36.1928 50.127 37.5977 51.8725 37.5977ZM51.8725 32.6205C52.9017 32.6205 53.7291 33.4433 53.7291 34.4668C53.7291 35.4904 52.8916 36.3132 51.8725 36.3132C50.8534 36.3132 50.016 35.4904 50.016 34.4668C50.016 33.4433 50.8534 32.6205 51.8725 32.6205Z" fill="#1A1A1A"/>
<path d="M68.0064 37.5977C69.752 37.5977 71.1746 36.1928 71.1746 34.4668C71.1746 32.7409 69.752 31.336 68.0064 31.336C66.2608 31.336 64.8381 32.7409 64.8381 34.4668C64.8381 36.1928 66.2608 37.5977 68.0064 37.5977ZM68.0064 32.6205C69.0356 32.6205 69.8629 33.4433 69.8629 34.4668C69.8629 35.4904 69.0255 36.3132 68.0064 36.3132C66.9873 36.3132 66.1498 35.4904 66.1498 34.4668C66.1498 33.4433 66.9873 32.6205 68.0064 32.6205Z" fill="#1A1A1A"/>
<path d="M66.9974 43.9396H52.9219C52.3266 43.9396 51.8322 44.4212 51.8322 45.0133C51.8322 45.6053 52.3165 46.087 52.9219 46.087H66.9974C67.5927 46.087 68.0871 45.6053 68.0871 45.0133C68.0871 44.4212 67.6028 43.9396 66.9974 43.9396Z" fill="#1A1A1A"/>
</svg>
