<svg width="56" height="56" viewBox="0 0 56 56" fill="none" xmlns="http://www.w3.org/2000/svg">
<path d="M42.575 41.953C44.1082 39.4036 45 36.4242 45 33.2349C44.99 19.028 18.8361 -5.08682 21.0006 0.951874C25.1892 12.6194 11 20.7976 11 33.2249C11 36.4142 11.8818 39.4036 13.425 41.943C18.0445 40.5533 22.9346 39.8135 28.005 39.8135C33.0754 39.8135 37.9655 40.5633 42.585 41.943L42.575 41.953Z" fill="#57ADFF"/>
<path d="M31.3319 22.6372C29.959 22.6372 28.7465 23.3171 28.015 24.3668C27.2835 23.327 26.071 22.6372 24.6982 22.6372C22.4536 22.6372 20.6398 24.4468 20.6398 26.6863C20.6398 28.9258 22.4536 30.7354 24.6982 30.7354C26.071 30.7354 27.2835 30.0556 28.015 29.0058C28.7465 30.0456 29.959 30.7354 31.3319 30.7354C33.5765 30.7354 35.3902 28.9258 35.3902 26.6863C35.3902 24.4468 33.5765 22.6372 31.3319 22.6372Z" fill="white"/>
<path d="M42.595 41.963C37.9755 40.5733 33.0855 39.8335 28.015 39.8335C22.9446 39.8335 18.0545 40.5833 13.435 41.963C14.8379 44.2925 16.7919 46.2521 19.1167 47.6818V53.1206C19.1167 54.7103 20.4094 56 22.0027 56C23.5959 56 24.8886 54.7103 24.8886 53.1206V49.9113C25.9007 50.1013 26.9528 50.2012 28.0251 50.2012C29.0973 50.2012 30.1795 50.0913 31.2116 49.9013V53.1206C31.2116 54.7103 32.5043 56 34.0976 56C35.6908 56 36.9835 54.7103 36.9835 53.1206V47.6518C39.2782 46.2321 41.2122 44.2825 42.6051 41.973L42.595 41.963Z" fill="#55EE55"/>
<path d="M21.4916 18.3681C20.6398 18.3681 19.9584 19.058 19.9584 19.8978C19.9584 20.7376 20.6499 21.4275 21.4916 21.4275C22.3333 21.4275 23.0248 20.7376 23.0248 19.8978C23.0248 19.058 22.3333 18.3681 21.4916 18.3681Z" fill="#1A1A1A"/>
<path d="M28.9469 24.1469C29.6384 23.9269 30.1194 23.467 30.1194 22.9271C30.1194 22.1773 29.1774 21.5674 28.005 21.5674C26.8326 21.5674 25.8907 22.1773 25.8907 22.9271C25.8907 23.447 26.3416 23.8869 26.9929 24.1169L25.0189 26.2464C24.7784 26.5064 24.7884 26.9163 25.0589 27.1662C25.1892 27.2862 25.3395 27.3362 25.4999 27.3362C25.6702 27.3362 25.8506 27.2662 25.9808 27.1262L27.9549 24.9967L30.0693 26.9963C30.3298 27.2462 30.7406 27.2362 30.9912 26.9763C31.2417 26.7163 31.2317 26.3064 30.9711 26.0565L28.9469 24.1469Z" fill="#1A1A1A"/>
<path d="M36.0816 20.7776L34.5986 19.8778L36.0616 19.018C36.3221 18.868 36.4123 18.5281 36.252 18.2681C36.0917 18.0082 35.761 17.9182 35.5004 18.0782L33.2558 19.3979C33.0855 19.4979 32.9853 19.6678 32.9853 19.8678C32.9853 20.0678 33.0855 20.2377 33.2458 20.3377L35.5105 21.7074C35.6006 21.7574 35.7009 21.7874 35.791 21.7874C35.9714 21.7874 36.1518 21.6974 36.262 21.5274C36.4223 21.2675 36.3322 20.9376 36.0816 20.7776Z" fill="#1A1A1A"/>
</svg>
