<svg width="148" height="149" viewBox="0 0 148 149" fill="none" xmlns="http://www.w3.org/2000/svg">
<path d="M22.127 66.0838C22.127 63.3048 19.8743 61.052 17.0953 61.052C14.3163 61.052 12.0635 63.3048 12.0635 66.0838V123.318C12.0635 126.097 14.3163 128.35 17.0953 128.35C19.8743 128.35 22.127 126.097 22.127 123.318V66.0838Z" fill="#FFEB55"/>
<path d="M138.993 43.4123L91.633 75.5495C89.3334 77.11 88.7343 80.239 90.2947 82.5386C91.8551 84.8381 94.9842 85.4372 97.2837 83.8768L144.643 51.7396C146.943 50.1792 147.542 47.0501 145.982 44.7506C144.421 42.451 141.292 41.8519 138.993 43.4123Z" fill="#FFEB55"/>
<path d="M54.9306 112.372V131.364H45.1231V112.155L54.9306 112.372Z" fill="#FFEB55"/>
<path d="M45.0922 139.649H44.9112C40.2988 139.649 36.5558 143.388 36.5558 148.004H54.9218V131.029H45.0966V139.653L45.0922 139.649Z" fill="#1A1A1A"/>
<path d="M77.3396 112.372V131.364H67.4968V112.155L77.3396 112.372Z" fill="#FFEB55"/>
<path d="M77.3352 139.649V131.024H67.51V139.649H67.5056V148.004H85.8715C85.8715 143.392 82.133 139.649 77.5162 139.649H77.3352Z" fill="#1A1A1A"/>
<path d="M61.4895 118.979C94.3447 118.979 120.979 92.3447 120.979 59.4895C120.979 26.6344 94.3447 0 61.4895 0C28.6344 0 2 26.6344 2 59.4895C2 92.3447 28.6344 118.979 61.4895 118.979Z" fill="#FFEB55"/>
<path d="M23.6145 42.5493C27.0687 42.5493 29.8689 39.7491 29.8689 36.2949C29.8689 32.8407 27.0687 30.0405 23.6145 30.0405C20.1603 30.0405 17.3601 32.8407 17.3601 36.2949C17.3601 39.7491 20.1603 42.5493 23.6145 42.5493Z" fill="#FF9FD2"/>
<path d="M100.609 42.5493C104.063 42.5493 106.864 39.7491 106.864 36.2949C106.864 32.8407 104.063 30.0405 100.609 30.0405C97.1551 30.0405 94.3549 32.8407 94.3549 36.2949C94.3549 39.7491 97.1551 42.5493 100.609 42.5493Z" fill="#FF9FD2"/>
<path d="M47.3609 33.1037C49.0746 33.1037 50.4638 31.7145 50.4638 30.0008C50.4638 28.2871 49.0746 26.8979 47.3609 26.8979C45.6472 26.8979 44.258 28.2871 44.258 30.0008C44.258 31.7145 45.6472 33.1037 47.3609 33.1037Z" fill="#1A1A1A"/>
<path d="M70.8601 31.1086L76.8629 33.9247C77.0174 33.9953 77.1763 34.0306 77.3352 34.0306C77.7545 34.0306 78.1518 33.7923 78.3415 33.3906C78.602 32.8345 78.3636 32.1724 77.8075 31.912L73.8527 30.0537L77.6883 28.0763C78.2356 27.7939 78.4475 27.123 78.165 26.5756C77.8825 26.0283 77.2116 25.8165 76.6643 26.099L70.8248 29.1136C70.4496 29.3078 70.2157 29.7006 70.2245 30.1244C70.2333 30.5481 70.4805 30.9321 70.8645 31.1086H70.8601Z" fill="#1A1A1A"/>
<path d="M94.1121 44.3236C88.6655 41.4502 89.9323 36.4273 89.9896 36.2022C90.1529 35.6107 89.8042 35.0016 89.2128 34.8339C88.6213 34.6706 88.0078 35.0149 87.8401 35.6063C87.4958 36.8422 87.3987 38.8549 88.1579 40.9206C87.2707 41.3222 74.3779 47.0117 61.1409 47.0117C46.0765 47.0117 33.5147 40.9735 33.3911 40.9118C32.8394 40.6425 32.1729 40.872 31.9037 41.4238C31.6344 41.9755 31.8639 42.642 32.4157 42.9112C32.9453 43.1716 45.5424 49.2362 61.1453 49.2362C75.296 49.2362 88.586 43.1805 89.1422 42.92C89.1554 42.9156 89.1598 42.9068 89.1731 42.9024C90.0205 44.1559 91.2696 45.3388 93.0705 46.2922C93.2294 46.3761 93.3971 46.4158 93.5648 46.4202C93.9753 46.429 94.3726 46.2128 94.5756 45.8243C94.8625 45.2814 94.655 44.6061 94.1121 44.3192V44.3236Z" fill="#1A1A1A"/>
</svg>
