<svg width="58" height="54" viewBox="0 0 58 54" fill="none" xmlns="http://www.w3.org/2000/svg">
<path d="M29 10V20M29 20V30M29 20H39M29 20H19" stroke="white" stroke-width="4" stroke-linecap="round" stroke-linejoin="round"/>
<path d="M8.7 41.028V51.996H9.9V41.028H8.7ZM7.068 45.348V46.368H9.048V45.348H7.068ZM4.2 42.324V42.54C4.2 45.192 3.408 47.328 0.576 48.912L1.284 49.812C4.584 47.94 5.4 45.312 5.4 42.324H4.2ZM1.164 42.324V43.344H4.632V42.324H1.164ZM6.276 41.28V51.48H7.464V41.28H6.276ZM4.14 44.808L0.612 45.024L0.768 46.092L4.14 45.744V44.808ZM19.3671 41.028V47.748H20.6271V41.028H19.3671ZM13.2351 48.288V49.308H19.3671V51.996H20.6271V48.288H13.2351ZM12.1551 46.188V47.208H13.0671C15.1671 47.208 16.6431 47.16 18.3711 46.872L18.2271 45.864C16.5471 46.128 15.1191 46.188 13.0671 46.188H12.1551ZM12.1311 41.652V42.672H15.8991V43.896H12.1551V46.668H13.3791V44.844H17.1351V41.652H12.1311ZM30.4781 41.016V52.008H31.7261V41.016H30.4781ZM28.3781 45.036V46.068H30.6461V45.036H28.3781ZM23.1221 48.42V49.44H23.9741C25.9661 49.44 27.3341 49.392 28.9181 49.128L28.7981 48.12C27.2501 48.384 25.9301 48.42 23.9741 48.42H23.1221ZM23.1221 41.988V48.756H24.3701V43.02H28.1981V41.988H23.1221ZM24.0701 45.06V46.056H27.7661V45.06H24.0701ZM38.9445 41.52V42.48C38.9445 44.028 38.0085 45.468 36.2685 46.056L36.9405 47.04C38.8845 46.344 39.9885 44.58 39.9885 42.48V41.52H38.9445ZM39.1965 41.52V42.456C39.1965 44.424 40.2645 46.116 42.1245 46.776L42.7965 45.804C41.1525 45.24 40.2045 43.884 40.2045 42.456V41.52H39.1965ZM43.6605 41.028V47.064H44.9205V41.028H43.6605ZM44.5725 43.488V44.52H46.4685V43.488H44.5725ZM37.9005 47.556V51.864H44.9205V47.556H43.6725V48.72H39.1485V47.556H37.9005ZM39.1485 49.692H43.6725V50.844H39.1485V49.692ZM55.1796 41.028V46.92H56.4396V41.028H55.1796ZM49.2756 47.436V51.864H56.4396V47.436H55.1916V48.624H50.5116V47.436H49.2756ZM50.5116 49.608H55.1916V50.856H50.5116V49.608ZM50.5236 41.52C48.8436 41.52 47.6076 42.564 47.6076 44.076C47.6076 45.576 48.8436 46.632 50.5236 46.632C52.2036 46.632 53.4276 45.576 53.4276 44.076C53.4276 42.564 52.2036 41.52 50.5236 41.52ZM50.5236 42.564C51.5076 42.564 52.2036 43.164 52.2036 44.076C52.2036 44.988 51.5076 45.588 50.5236 45.588C49.5396 45.588 48.8316 44.988 48.8316 44.076C48.8316 43.164 49.5396 42.564 50.5236 42.564Z" fill="white"/>
</svg>
