<svg width="48" height="48" viewBox="0 0 48 48" fill="black" xmlns="http://www.w3.org/2000/svg">
<g clip-path="url(#clip0_1095_83495)">
<path d="M36.6014 11.4204C35.8214 10.6404 34.5614 10.6404 33.7814 11.4204L24.0014 21.1804L14.2214 11.4004C13.4414 10.6204 12.1814 10.6204 11.4014 11.4004C10.6214 12.1804 10.6214 13.4404 11.4014 14.2204L21.1814 24.0004L11.4014 33.7804C10.6214 34.5604 10.6214 35.8204 11.4014 36.6004C12.1814 37.3804 13.4414 37.3804 14.2214 36.6004L24.0014 26.8204L33.7814 36.6004C34.5614 37.3804 35.8214 37.3804 36.6014 36.6004C37.3814 35.8204 37.3814 34.5604 36.6014 33.7804L26.8214 24.0004L36.6014 14.2204C37.3614 13.4604 37.3614 12.1804 36.6014 11.4204V11.4204Z" fill="#FFFFFF"/>
</g>
<defs>
<clipPath id="clip0_1095_83495">
<rect width="48" height="48" fill="white"/>
</clipPath>
</defs>
</svg>
