<svg width="16" height="16" viewBox="0 0 16 16" fill="none" xmlns="http://www.w3.org/2000/svg">
<circle cx="8" cy="8" r="7.5" stroke="#7686D4"/>
<path d="M11.3694 5.63275C11.2253 5.48452 11.0193 5.40039 10.8052 5.40039C10.5912 5.40039 10.3851 5.48452 10.2411 5.63275L7.29824 8.64538L5.75782 7.06695C5.60777 6.91272 5.40772 6.82859 5.19366 6.82859C4.9796 6.82859 4.77954 6.91272 4.6295 7.06695C4.32142 7.38144 4.32142 7.89423 4.6295 8.20871L6.73409 10.364C6.88413 10.5183 7.08418 10.6024 7.29824 10.6024C7.5123 10.6024 7.71236 10.5183 7.8624 10.364L11.3694 6.7745C11.6775 6.46002 11.6775 5.94723 11.3694 5.63275Z" fill="#7686D4"/>
</svg>
